<?xml version="1.0" encoding="UTF-8" standalone="no"?>
<!-- Created with Inkscape (http://www.inkscape.org/) -->

<svg
   xmlns:dc="http://purl.org/dc/elements/1.1/"
   xmlns:cc="http://creativecommons.org/ns#"
   xmlns:rdf="http://www.w3.org/1999/02/22-rdf-syntax-ns#"
   xmlns:svg="http://www.w3.org/2000/svg"
   xmlns="http://www.w3.org/2000/svg"
   xmlns:sodipodi="http://sodipodi.sourceforge.net/DTD/sodipodi-0.dtd"
   xmlns:inkscape="http://www.inkscape.org/namespaces/inkscape"
   width="134.354mm"
   height="300.10071mm"
   viewBox="0 0 476.05749 1063.349"
   id="svg2"
   version="1.1"
   inkscape:version="0.91 r13725"
   sodipodi:docname="background.svg">
  <defs
     id="defs4">
    <filter
       id="filter4767-8"
       inkscape:label="Drop Shadow"
       style="color-interpolation-filters:sRGB">
      <feFlood
         id="feFlood4769-8"
         result="flood"
         flood-color="rgb(66,66,66)"
         flood-opacity="0.498039" />
      <feComposite
         id="feComposite4771-7"
         result="composite1"
         operator="out"
         in2="SourceGraphic"
         in="flood" />
      <feGaussianBlur
         id="feGaussianBlur4773-6"
         result="blur"
         stdDeviation="0"
         in="composite1" />
      <feOffset
         id="feOffset4775-2"
         result="offset"
         dy="6"
         dx="-4.4" />
      <feComposite
         id="feComposite4777-1"
         result="composite2"
         operator="atop"
         in2="SourceGraphic"
         in="offset" />
    </filter>
    <clipPath
       clipPathUnits="userSpaceOnUse"
       id="clipPath5277">
      <rect
         style="opacity:0.39300005;fill:#871c1c;fill-opacity:1;stroke:none;stroke-width:8.70752144;stroke-linejoin:miter;stroke-miterlimit:4;stroke-dasharray:none;stroke-opacity:1"
         id="rect5279"
         width="396.86838"
         height="749.23773"
         x="500.49612"
         y="-394.12448" />
    </clipPath>
    <clipPath
       clipPathUnits="userSpaceOnUse"
       id="clipPath4384">
      <rect
         style="opacity:0.59200003;fill:#ab3c08;fill-opacity:1;stroke:none;stroke-width:2.34599996;stroke-linecap:butt;stroke-linejoin:miter;stroke-miterlimit:4;stroke-dasharray:none;stroke-opacity:1"
         id="rect4386"
         width="401.76785"
         height="895.06219"
         x="431.17908"
         y="-478.72873" />
    </clipPath>
  </defs>
  <sodipodi:namedview
     id="base"
     pagecolor="#ffffff"
     bordercolor="#666666"
     borderopacity="1.0"
     inkscape:pageopacity="0.0"
     inkscape:pageshadow="2"
     inkscape:zoom="0.35"
     inkscape:cx="502.05063"
     inkscape:cy="476.99375"
     inkscape:document-units="px"
     inkscape:current-layer="g4606"
     showgrid="false"
     inkscape:window-width="1440"
     inkscape:window-height="852"
     inkscape:window-x="1920"
     inkscape:window-y="501"
     inkscape:window-maximized="1"
     fit-margin-top="0"
     fit-margin-left="0"
     fit-margin-right="0"
     fit-margin-bottom="0" />
  <metadata
     id="metadata7">
    <rdf:RDF>
      <cc:Work
         rdf:about="">
        <dc:format>image/svg+xml</dc:format>
        <dc:type
           rdf:resource="http://purl.org/dc/dcmitype/StillImage" />
        <dc:title></dc:title>
      </cc:Work>
    </rdf:RDF>
  </metadata>
  <g
     inkscape:label="Layer 1"
     inkscape:groupmode="layer"
     id="layer1"
     transform="translate(491.49751,-15.276959)">
    <g
       id="g4500"
       transform="translate(-439.46361,482.3622)">
      <g
         id="g4602"
         style="opacity:0.51200005">
        <g
           id="g4606"
           style="opacity:0.39300005"
           transform="matrix(1.1880169,0,0,1.1880169,-70.281429,101.65258)">
          <g
             id="g4365"
             transform="translate(-415.81942,0)"
             clip-path="url(#clipPath4384)"
             inkscape:export-xdpi="90"
             inkscape:export-ydpi="90">
            <path
               style="opacity:1;fill:#757575;fill-opacity:1;stroke:none;stroke-width:1.87300003;stroke-linejoin:miter;stroke-miterlimit:4;stroke-dasharray:none;stroke-opacity:1"
               d="M 738.46877,293.7233 A 182.33253,42.931484 0 0 1 556.13623,336.65478 182.33253,42.931484 0 0 1 373.8037,293.7233 182.33253,42.931484 0 0 1 556.13623,250.79181 182.33253,42.931484 0 0 1 738.46877,293.7233 Z"
               id="path4367"
               inkscape:connector-curvature="0"
               clip-path="url(#clipPath5277)"
               transform="matrix(1.1946308,0,0,1.1946308,-167.78039,-7.8954942)" />
            <path
               id="path4369"
               transform="matrix(12.018098,0,0,12.018098,-882.984,-678.355)"
               style="opacity:1;fill:#557b5f;fill-opacity:1;stroke:#557b5f;stroke-width:1.00003672;stroke-miterlimit:4;stroke-dasharray:none;stroke-opacity:1;filter:url(#filter4767-8)"
               d="m 109.77138,85.78381 c -0.0709,-0.375828 -0.73984,-0.391418 -0.21905,-0.391418 1.37815,0 1.11555,-3.05163 1.56804,-8.35606 0.32052,-3.757349 0.0685,-3.597478 -0.39783,-4.692654 -2.00926,-1.692249 -1.3689,-0.09512 -3.35861,-0.107652 -1.03407,0 -1.70281,0.3633 -1.70281,0.92504 0,0.6584 -0.66576,0.87221 -2.3097,0.74177 -9.428215,3.344218 -16.200507,-17.896711 -0.22187,-21.59516 -8.951655,-4.712965 0.0679,-2.50057 4.49875,-5.349889 l 1.60487,-1.124101 -2.60204,-0.756103 c -1.43113,-0.415857 -2.52861,-1.085084 -2.43884,-1.487165 0.0898,-0.402082 -0.29479,-0.731055 -0.85455,-0.731055 -1.43296,-0.221919 -0.22319,-1.313977 0.37729,-0.97159 0.80537,0.497751 2.12722,-2.18449 1.66726,-3.38313 -0.24369,-0.635032 0.0886,-1.110992 0.92895,-1.330755 1.41831,-0.370898 1.82671,-2.150367 0.49231,-2.145066 -0.44882,0.0019 -1.69732,0.725636 -2.77447,1.608562 -1.50282,1.231848 -1.69266,1.610781 -0.81602,1.628793 1.14553,0.02356 1.6754,1.981926 0.53624,1.981926 -7.476317,-1.729884 -3.67446,-7.727818 0.0868,-7.549151 3.72577,0.183323 4.24244,0.08108 3.47391,-0.687453 -0.49654,-0.496545 -1.18421,-0.902805 -1.52816,-0.902805 -0.34394,0 -0.77586,-0.954741 -0.95982,-2.121649 -0.25854,-1.639969 -0.016,-2.377721 1.06833,-3.249562 6.97547,-2.954814 -0.50761,-1.025866 1.76152,-3.476175 1.32007,-1.405152 1.41467,-1.761816 0.6034,-2.274857 -0.86702,-0.5483 -0.44326,-0.90727 0.83313,-0.705733 0.26928,0.0425 0.48961,-0.363344 0.48961,-0.901918 0,-0.538572 -0.36721,-0.990984 -0.81602,-1.005359 -0.44881,-0.01437 -0.0106,-0.463134 0.97382,-0.997241 1.52359,-0.826645 1.77471,-1.357115 1.68815,-3.56606 -0.0559,-1.42723 0.0934,-2.790033 0.33182,-3.0284548 0.23842,-0.23842 0.44326,0.2764438 0.45521,1.1441428 0.026,1.890306 1.89142,4.281286 3.99909,5.125845 1.5107,0.605352 1.50765,0.612803 -0.26713,0.65371 -1.10645,0.02551 -1.79524,0.401332 -1.79524,0.979559 0,0.714219 0.56635,0.846274 2.37247,0.553182 1.79155,-0.290728 2.30238,-0.174759 2.08626,0.473616 -0.15741,0.472237 -0.81129,0.935677 -1.45306,1.029872 -2.51041,0.368448 -1.99016,2.227672 0.62334,2.227672 1.67093,0 2.17699,0.9781 0.7775,1.502721 -0.56895,0.213282 -0.4345,0.599042 0.44405,1.2741 1.23603,0.949721 1.23291,0.982742 -0.1632,1.729921 -1.70614,0.913097 -1.88095,2.150032 -0.28085,1.987265 2.68587,-0.273208 3.56751,0.0327 3.15937,1.096305 -0.24096,0.627924 0.0473,1.394772 0.70501,1.875721 1.02177,0.747141 0.99349,0.851356 -0.3464,1.276625 -0.85263,0.270611 -1.85294,0.136118 -2.40689,-0.32362 -1.26863,-1.052872 -1.20375,0.02298 0.11492,1.905678 0.7471,1.066634 1.20723,1.283683 1.54901,0.730669 0.34723,-0.561825 0.84132,-0.596652 1.72852,-0.121841 0.76808,0.411065 1.64804,0.437797 2.30521,0.07002 0.93268,-0.52195 0.9706,-0.395808 0.30955,1.029484 -0.48607,1.048022 -1.29379,1.626123 -2.27659,1.629412 -3.06487,0.01025 -0.95164,1.640414 2.55314,1.969523 2.87117,0.269614 3.25426,0.434631 2.02812,0.873611 -2.62053,0.938207 -5.94912,0.942346 -6.72425,0.0084 -0.77647,-0.935589 -0.77873,-0.246011 -0.77873,0.623885 0,0.926313 3.71004,2.354694 5.02888,2.354694 1.4232,0 -1.32459,1.751225 -2.63062,2.281161 -0.61409,0.249179 -2.28071,-0.200366 -1.54379,0.32092 2.56091,1.456832 0.25144,0.388996 5.23765,-0.305812 0.71878,0.718769 2.70955,1.771382 2.16128,1.771382 -0.48911,0 -2.63678,-0.562182 -2.5076,0.402408 0.28132,2.10069 2.91016,3.265331 3.97359,2.382761 0.47404,-0.39341 1.2986,-0.165221 2.0778,-0.106521 1.15998,0.0874 -1.05819,0.608024 -1.35206,1.965524 -0.65367,3.01953 -1.05047,1.281773 -2.5845,1.281773 -0.83708,0 3.5641,2.243995 3.15322,2.654885 -0.54258,0.54258 -2.45332,2.565337 -3.78356,2.061337 -5.85047,0.09683 -1.70044,1.177402 2.43627,-0.18833 3.3039,-1.12575 3.79249,-0.807377 3.79249,-0.807377 0.68143,0.112261 0.44856,2.006928 -1.01711,2.013828 -1.60999,0.008 -1.8855,0.16261 -1.14243,0.64282 0.53857,0.34805 1.81156,0.63732 2.82886,0.64281 2.17616,0.0118 2.08972,1.52763 -0.10553,1.85065 -0.77973,0.11473 -1.41828,0.4085 -1.419,0.65281 -0.001,0.41046 -1.03495,0.60317 -5.15515,0.96102 -0.86128,0.0748 -1.70576,-0.26762 -1.87661,-0.76093 -0.23623,-0.68205 0.25177,-0.83128 2.03687,-0.62288 1.53266,0.17892 2.46021,-0.0196 2.67214,-0.5719 0.22749,-0.59281 -0.35487,-0.84595 -1.94613,-0.84595 -12.96958,-1.746117 14.3023,-0.421482 -3.42203,2.44805 0.3061,1.18384 6.19458,0.916708 6.73056,0.916708 -8.0898,2.026935 -2.31416,-0.817532 2.35519,1.144445 2.79847,-2.67975 1.55916,0.202281 2.52335,0.0071 2.71112,-0.548767 -0.88536,2.66465 -1.95752,2.66465 -1.1413,0 5.6245,1.411924 2.21389,2.06944 0,0 -8.66556,0.301922 -2.18439,1.71233 3.47079,0.7553 -2.20809,0.633949 -3.64815,1.181449 -1.3491,0.51294 -2.26987,-0.161481 -3.02745,-0.919071 -1.47672,-1.47671 0,0 -2.07987,1.555397 -1.39558,0.04474 -2.66467,-1.07227 -4.06033,-1.029845 -2.13654,-0.687636 -5.07711,-3.244616 -6.61534,1.17959 0.15097,3.12123 0.4087,6.18743 0.57273,6.81376 0.48043,1.83442 3.17095,5.1335 3.8462,4.71617 0.34092,-0.21069 0.61985,-0.0543 0.61985,0.34766 0,0.44424 -0.94974,0.65131 -2.42227,0.52814 -1.94241,-0.16248 -1.58734,-0.701018 -2.95459,-1.759608 -1.30767,-1.01246 -0.59312,-1.022577 -2.2279,-0.398658 -1.45719,0.556147 -3.08118,2.626136 -3.29972,1.46791 z m -4.43667,-15.506214 c 1.25878,-0.54092 1.25431,-0.5627 -0.12467,-0.60693 -0.78667,-0.0253 -1.61187,0.24788 -1.83377,0.60693 -0.47721,0.77213 0.16158,0.77213 1.95844,0 z m 0.82015,-8.64981 c -3.52573,-2.80487 -5.85372,0.56887 -1.25536,0.76449 0.94164,0.0318 1.42096,-0.26004 1.25536,-0.76449 z m -1.3976,-4.34914 1.58692,-1.24827 -2.78958,0.18477 c -5.582968,0.692885 -5.128405,0.443641 -0.60771,2.2073 0.12289,0.0574 0.93756,-0.45726 1.81037,-1.1438 z"
               inkscape:connector-curvature="0" />
          </g>
        </g>
        <g
           id="g4897"
           transform="matrix(0.52017754,0,0,0.52017754,520.47956,-384.2331)" />
      </g>
    </g>
  </g>
</svg>
