<?xml version="1.0" encoding="UTF-8" standalone="no"?>
<!-- Created with Inkscape (http://www.inkscape.org/) -->

<svg
   xmlns:dc="http://purl.org/dc/elements/1.1/"
   xmlns:cc="http://creativecommons.org/ns#"
   xmlns:rdf="http://www.w3.org/1999/02/22-rdf-syntax-ns#"
   xmlns:svg="http://www.w3.org/2000/svg"
   xmlns="http://www.w3.org/2000/svg"
   xmlns:sodipodi="http://sodipodi.sourceforge.net/DTD/sodipodi-0.dtd"
   xmlns:inkscape="http://www.inkscape.org/namespaces/inkscape"
   id="svg4196"
   version="1.1"
   inkscape:version="0.91 r13725"
   width="794.64148"
   height="100"
   viewBox="0 0 794.64147 100"
   sodipodi:docname="headerlogo.svg">
  <metadata
     id="metadata4202">
    <rdf:RDF>
      <cc:Work
         rdf:about="">
        <dc:format>image/svg+xml</dc:format>
        <dc:type
           rdf:resource="http://purl.org/dc/dcmitype/StillImage" />
        <dc:title></dc:title>
      </cc:Work>
    </rdf:RDF>
  </metadata>
  <defs
     id="defs4200">
    <filter
       style="color-interpolation-filters:sRGB"
       inkscape:label="Drop Shadow"
       id="filter4683">
      <feFlood
         flood-opacity="0.498039"
         flood-color="rgb(66,66,66)"
         result="flood"
         id="feFlood4685" />
      <feComposite
         in="flood"
         in2="SourceGraphic"
         operator="out"
         result="composite1"
         id="feComposite4687" />
      <feGaussianBlur
         in="composite1"
         stdDeviation="0"
         result="blur"
         id="feGaussianBlur4689" />
      <feOffset
         dx="-3.5"
         dy="6"
         result="offset"
         id="feOffset4691" />
      <feComposite
         in="offset"
         in2="SourceGraphic"
         operator="atop"
         result="composite2"
         id="feComposite4693" />
    </filter>
    <filter
       style="color-interpolation-filters:sRGB"
       inkscape:label="Drop Shadow"
       id="filter4767">
      <feFlood
         flood-opacity="0.498039"
         flood-color="rgb(66,66,66)"
         result="flood"
         id="feFlood4769" />
      <feComposite
         in="flood"
         in2="SourceGraphic"
         operator="out"
         result="composite1"
         id="feComposite4771" />
      <feGaussianBlur
         in="composite1"
         stdDeviation="0"
         result="blur"
         id="feGaussianBlur4773" />
      <feOffset
         dx="-4.4"
         dy="6"
         result="offset"
         id="feOffset4775" />
      <feComposite
         in="offset"
         in2="SourceGraphic"
         operator="atop"
         result="composite2"
         id="feComposite4777" />
    </filter>
    <filter
       style="color-interpolation-filters:sRGB"
       inkscape:label="Drop Shadow"
       id="filter4779">
      <feFlood
         flood-opacity="0.498039"
         flood-color="rgb(66,66,66)"
         result="flood"
         id="feFlood4781" />
      <feComposite
         in="flood"
         in2="SourceGraphic"
         operator="out"
         result="composite1"
         id="feComposite4783" />
      <feGaussianBlur
         in="composite1"
         stdDeviation="0"
         result="blur"
         id="feGaussianBlur4785" />
      <feOffset
         dx="-4.4"
         dy="6"
         result="offset"
         id="feOffset4787" />
      <feComposite
         in="offset"
         in2="SourceGraphic"
         operator="atop"
         result="composite2"
         id="feComposite4789" />
    </filter>
    <filter
       style="color-interpolation-filters:sRGB"
       inkscape:label="Drop Shadow"
       id="filter4791">
      <feFlood
         flood-opacity="0.498039"
         flood-color="rgb(66,66,66)"
         result="flood"
         id="feFlood4793" />
      <feComposite
         in="flood"
         in2="SourceGraphic"
         operator="out"
         result="composite1"
         id="feComposite4795" />
      <feGaussianBlur
         in="composite1"
         stdDeviation="0"
         result="blur"
         id="feGaussianBlur4797" />
      <feOffset
         dx="-4.4"
         dy="6"
         result="offset"
         id="feOffset4799" />
      <feComposite
         in="offset"
         in2="SourceGraphic"
         operator="atop"
         result="composite2"
         id="feComposite4801" />
    </filter>
    <clipPath
       clipPathUnits="userSpaceOnUse"
       id="clipPath4805">
      <rect
         style="opacity:1;fill:#aeaeae;fill-opacity:1;stroke:#000000;stroke-width:0.69999999;stroke-linejoin:miter;stroke-miterlimit:4;stroke-dasharray:none;stroke-opacity:1"
         id="rect4807"
         width="813.63635"
         height="180"
         x="80"
         y="-6.046555" />
    </clipPath>
    <clipPath
       clipPathUnits="userSpaceOnUse"
       id="clipPath4809">
      <rect
         style="opacity:1;fill:#aeaeae;fill-opacity:1;stroke:#000000;stroke-width:0.69999999;stroke-linejoin:miter;stroke-miterlimit:4;stroke-dasharray:none;stroke-opacity:1"
         id="rect4811"
         width="813.63635"
         height="180"
         x="80"
         y="-6.046555" />
    </clipPath>
    <clipPath
       clipPathUnits="userSpaceOnUse"
       id="clipPath4813">
      <rect
         style="opacity:1;fill:#aeaeae;fill-opacity:1;stroke:#000000;stroke-width:0.69999999;stroke-linejoin:miter;stroke-miterlimit:4;stroke-dasharray:none;stroke-opacity:1"
         id="rect4815"
         width="813.63635"
         height="180"
         x="80"
         y="-6.046555" />
    </clipPath>
    <clipPath
       clipPathUnits="userSpaceOnUse"
       id="clipPath4817">
      <rect
         style="opacity:1;fill:#aeaeae;fill-opacity:1;stroke:#000000;stroke-width:0.69999999;stroke-linejoin:miter;stroke-miterlimit:4;stroke-dasharray:none;stroke-opacity:1"
         id="rect4819"
         width="813.63635"
         height="180"
         x="80"
         y="-6.046555" />
    </clipPath>
    <clipPath
       clipPathUnits="userSpaceOnUse"
       id="clipPath4823">
      <rect
         style="opacity:1;fill:#aeaeae;fill-opacity:1;stroke:#000000;stroke-width:0.69999999;stroke-linejoin:miter;stroke-miterlimit:4;stroke-dasharray:none;stroke-opacity:1"
         id="rect4825"
         width="817.27271"
         height="100.90909"
         x="70.909088"
         y="6.6807165" />
    </clipPath>
    <clipPath
       clipPathUnits="userSpaceOnUse"
       id="clipPath4827">
      <rect
         style="opacity:1;fill:#aeaeae;fill-opacity:1;stroke:#000000;stroke-width:0.69999999;stroke-linejoin:miter;stroke-miterlimit:4;stroke-dasharray:none;stroke-opacity:1"
         id="rect4829"
         width="817.27271"
         height="100.90909"
         x="70.909088"
         y="6.6807165" />
    </clipPath>
    <clipPath
       clipPathUnits="userSpaceOnUse"
       id="clipPath4831">
      <rect
         style="opacity:1;fill:#aeaeae;fill-opacity:1;stroke:#000000;stroke-width:0.69999999;stroke-linejoin:miter;stroke-miterlimit:4;stroke-dasharray:none;stroke-opacity:1"
         id="rect4833"
         width="817.27271"
         height="100.90909"
         x="70.909088"
         y="6.6807165" />
    </clipPath>
    <clipPath
       clipPathUnits="userSpaceOnUse"
       id="clipPath4835">
      <rect
         style="opacity:1;fill:#aeaeae;fill-opacity:1;stroke:#000000;stroke-width:0.69999999;stroke-linejoin:miter;stroke-miterlimit:4;stroke-dasharray:none;stroke-opacity:1"
         id="rect4837"
         width="817.27271"
         height="100.90909"
         x="70.909088"
         y="6.6807165" />
    </clipPath>
    <clipPath
       clipPathUnits="userSpaceOnUse"
       id="clipPath4867">
      <rect
         style="opacity:1;fill:#aeaeae;fill-opacity:1;stroke:#000000;stroke-width:0.69999999;stroke-linejoin:miter;stroke-miterlimit:4;stroke-dasharray:none;stroke-opacity:1"
         id="rect4869"
         width="809.09088"
         height="101.81818"
         x="79.090904"
         y="7.5898046" />
    </clipPath>
    <clipPath
       clipPathUnits="userSpaceOnUse"
       id="clipPath4871">
      <rect
         style="opacity:1;fill:#aeaeae;fill-opacity:1;stroke:#000000;stroke-width:0.69999999;stroke-linejoin:miter;stroke-miterlimit:4;stroke-dasharray:none;stroke-opacity:1"
         id="rect4873"
         width="809.09088"
         height="101.81818"
         x="79.090904"
         y="7.5898046" />
    </clipPath>
    <clipPath
       clipPathUnits="userSpaceOnUse"
       id="clipPath4875">
      <rect
         style="opacity:1;fill:#aeaeae;fill-opacity:1;stroke:#000000;stroke-width:0.69999999;stroke-linejoin:miter;stroke-miterlimit:4;stroke-dasharray:none;stroke-opacity:1"
         id="rect4877"
         width="809.09088"
         height="101.81818"
         x="79.090904"
         y="7.5898046" />
    </clipPath>
    <clipPath
       clipPathUnits="userSpaceOnUse"
       id="clipPath4879">
      <rect
         style="opacity:1;fill:#aeaeae;fill-opacity:1;stroke:#000000;stroke-width:0.69999999;stroke-linejoin:miter;stroke-miterlimit:4;stroke-dasharray:none;stroke-opacity:1"
         id="rect4881"
         width="809.09088"
         height="101.81818"
         x="79.090904"
         y="7.5898046" />
    </clipPath>
  </defs>
  <sodipodi:namedview
     pagecolor="#ffffff"
     bordercolor="#666666"
     borderopacity="1"
     objecttolerance="10"
     gridtolerance="10"
     guidetolerance="10"
     inkscape:pageopacity="0"
     inkscape:pageshadow="2"
     inkscape:window-width="1440"
     inkscape:window-height="856"
     id="namedview4198"
     showgrid="false"
     inkscape:zoom="1.1"
     inkscape:cx="581.15306"
     inkscape:cy="42.832947"
     inkscape:window-x="0"
     inkscape:window-y="0"
     inkscape:window-maximized="0"
     inkscape:current-layer="svg4196"
     fit-margin-top="0"
     fit-margin-left="0"
     fit-margin-right="0"
     fit-margin-bottom="0"
     showguides="false" />
  <path
     style="fill:#193c47;fill-opacity:1;stroke:#193c47;stroke-width:1.90705774;stroke-miterlimit:4;stroke-dasharray:none;stroke-opacity:1;filter:url(#filter4683)"
     d="m 634.07093,81.301176 c 0.56108,-19.46826 0.23308,-26.73232 -1.28988,-28.5674 -1.12328,-1.35345 -1.40291,-2.47081 -0.62141,-2.48304 0.78149,-0.0131 3.06988,-0.46417 5.08534,-1.00429 2.79072,-0.74788 3.66441,-0.29409 3.66441,1.90331 0,2.69209 0.19948,2.7048 2.97836,0.18996 4.25094,-3.84704 10.9994,-3.40246 14.02998,0.92427 3.1835,4.54506 3.3354,18.99962 0.27661,26.32034 -2.83845,6.79338 -11.83872,13.61634 -14.47887,10.97618 -3.35143,-3.35143 -4.26828,-1.90315 -4.76061,7.51997 -0.36406,6.968794 -1.1437,9.473374 -3.06237,9.838054 -2.28449,0.4342 -2.48934,-2.44675 -1.82156,-25.617354 z m 19.13636,-0.84611 c 3.18934,-7.63323 3.07922,-21.08686 -0.19944,-24.36553 -6.53135,-6.53134 -11.15694,0.61737 -10.1107,15.62584 0.99463,14.26882 6.16772,18.65389 10.31014,8.73969 z m 38.18986,15.77265 c 0,-0.85094 1.54178,-5.25717 3.42623,-9.7916 2.1956,-5.28322 4.19104,-7.95094 5.55561,-7.42731 1.64685,0.63197 1.29419,2.70973 -1.55615,9.16825 -3.33123,7.54822 -7.42569,11.987264 -7.42569,8.05066 z M 100.6091,91.345946 c -11.477865,-0.2631 -19.950805,-1.12769 -19.950805,-2.03581 0,-0.99765 29.665015,-1.57852 80.617535,-1.57852 l 80.61753,0 0.21618,-25.65103 c 0.11896,-14.10805 0.0531,-31.063779 -0.1461,-37.679382 -0.25904,-8.600606 0.25949,-12.422462 1.81961,-13.411321 3.89758,-2.4703978 5.60079,-1.5374658 8.53421,4.674562 4.15891,8.807245 33.93581,54.152171 35.56041,54.152171 0.75297,0 1.15819,-13.37519 0.90045,-29.722619 l -0.46863,-29.722622 299.26202,0 c 198.15084,0 299.39962,0.550267 299.6692,1.628637 0.27005,1.080158 -99.55225,1.767218 -296.41191,2.040178 l -296.81908,0.411524 0,36.440522 c 0,28.95093 -0.46074,36.82295 -2.24172,38.30103 -1.81502,1.50631 -5.69073,-3.39204 -20.36103,-25.73362 -9.96564,-15.17671 -18.56276,-28.74971 -19.10481,-30.162177 -2.43726,-6.351439 -3.89427,-1.312535 -3.89427,13.468049 0,8.819858 -0.4796,22.792888 -1.0658,31.051128 l -1.06578,15.01499 -62.85822,-0.51421 c -34.57201,-0.28282 -71.83606,-0.71999 -82.80901,-0.97148 z m 210.37134,-2.22112 c -11.70402,-5.67919 -12.50514,-30.67605 -1.22008,-38.0703 5.20746,-3.41205 13.07869,-3.59431 16.29567,-0.37734 3.7406,3.74056 5.47644,15.52929 3.47791,23.61951 -1.10554,4.47533 -3.67715,8.65007 -7.27341,11.80761 -6.08656,5.34408 -6.34754,5.41396 -11.28009,3.02052 z m 12.34476,-18.56829 c 0,-10.29851 -1.94984,-16.1761 -5.86465,-17.67834 -4.22765,-1.62232 -7.41219,2.55732 -8.36078,10.97341 -1.04881,9.30491 0.32082,14.86135 4.75671,19.29724 l 3.47755,3.47751 2.99557,-3.69939 c 2.07003,-2.55638 2.9956,-6.3785 2.9956,-12.37043 z m 14.97762,0.70972 c 0.40405,-15.90624 0.0477,-19.74739 -1.94852,-21.01768 -1.83975,-1.17058 -1.13601,-1.56053 2.85012,-1.57931 3.63025,-0.0171 5.29306,0.74251 5.29306,2.41803 0,1.34362 0.65448,2.44294 1.45439,2.44294 0.7999,0 1.87624,-1.09932 2.39184,-2.44294 0.98354,-2.56306 6.78549,-3.37575 8.16496,-1.14371 1.38128,2.23494 -1.33086,4.99426 -4.61083,4.69106 -4.94076,-0.45671 -7.34978,6.43406 -7.37636,21.09942 -0.0217,11.98135 -0.34341,13.32981 -3.36853,14.12091 -3.25543,0.85131 -3.33139,0.35605 -2.85013,-18.58872 z m 27.42425,16.57242 c -0.9273,-1.73259 -1.68595,-10.46617 -1.68595,-19.40791 0,-11.41373 -0.60659,-16.54079 -2.0358,-17.20778 -1.62864,-0.76 -1.62864,-1.14004 0,-1.90005 1.1197,-0.52253 2.0358,-3.794711 2.0358,-7.271558 0,-4.654693 0.85886,-6.781189 3.25728,-8.064768 3.05681,-1.635965 3.25725,-1.238561 3.25725,6.457252 0,7.114724 0.43127,8.200464 3.25728,8.200464 1.79152,0 3.25729,0.73289 3.25729,1.62864 0,0.89575 -1.38737,1.62864 -3.08304,1.62864 -4.04928,0 -5.06477,3.06342 -5.03794,15.19809 0.028,12.6594 1.34602,17.82307 4.26342,16.70355 3.7354,-1.43342 2.48484,1.75743 -1.78538,4.55538 -3.76511,2.46702 -4.11893,2.43474 -5.70021,-0.51995 z m 17.85769,-27.79388 c 0,-19.543637 -0.60002,-30.944095 -1.62862,-30.944095 -3.85677,0 -1.18918,-2.952084 3.25726,-3.604678 l 4.88592,-0.717106 0,14.37567 c 0,7.906629 0.39222,14.375649 0.8716,14.375649 0.47938,0 2.63568,-1.15587 4.79175,-2.56856 5.7208,-3.7484 10.78641,-2.33741 14.50028,4.03903 2.98451,5.12412 3.08297,6.53638 1.30566,18.72931 -1.26188,8.65702 -1.36334,13.37378 -0.29531,13.73015 3.52741,1.17707 1.35551,3.52873 -3.25899,3.52873 -5.59479,0 -5.45356,0.69248 -3.09417,-15.17098 1.5353,-10.32277 1.41279,-12.77962 -0.85613,-17.16725 -1.57246,-3.04081 -3.91634,-5.12043 -5.77099,-5.12043 -5.53998,0 -8.1937,6.21799 -8.1937,19.19878 0,11.67907 -1.78153,18.25988 -4.94323,18.25988 -0.95421,0 -1.57133,-12.15273 -1.57133,-30.9441 z m 36.39264,28.43249 c -0.57895,-1.50867 -0.56304,-14.68747 0.0354,-29.28622 0.91413,-22.302991 0.70244,-26.928693 -1.32529,-28.956413 -2.13185,-2.131867 -1.99279,-2.525932 1.19287,-3.37999 1.98332,-0.531717 4.33894,-0.97689 5.23469,-0.989266 1.07312,-0.01463 1.17587,8.684054 0.30117,25.502739 -1.42708,27.44042 -0.81965,33.96615 3.0243,32.49109 3.7862,-1.4529 2.77004,0.11182 -2.51788,3.87718 -4.44491,3.16506 -4.98892,3.23287 -5.94521,0.74088 z m 20.91675,-0.80911 c -8.56394,-7.97852 -1.32612,-25.95426 9.5727,-23.7745 4.52473,0.90496 4.77793,0.66626 4.77793,-4.5045 0,-7.3565 -3.6133,-10.34769 -9.01055,-7.45916 -2.20749,1.1814 -4.44928,1.71235 -4.98176,1.17989 -1.91285,-1.91286 8.35419,-5.49927 13.10538,-4.57789 6.04142,1.17163 7.02644,4.43713 7.23915,23.99899 0.11181,10.29068 0.79484,15.18442 2.19813,15.75063 1.11969,0.45181 -0.34609,0.87933 -3.2573,0.95005 -3.91526,0.0951 -5.29305,-0.58122 -5.29305,-2.59827 0,-2.31549 -0.56863,-2.19265 -3.7694,0.81431 -4.66376,4.38138 -6.08325,4.41095 -10.58123,0.22045 z m 12.722,-10.59708 c 0,-1.18609 -0.73405,-4.08726 -1.63126,-6.44706 -1.20561,-3.17101 -2.58675,-4.15485 -5.29307,-3.77046 -3.02253,0.42929 -3.74755,1.69355 -4.15283,7.24159 -0.34474,4.71895 0.35526,7.56782 2.34953,9.56208 2.70164,2.70163 2.98449,2.66279 5.78409,-0.79456 1.61895,-1.9993 2.94354,-4.60553 2.94354,-5.79159 z m 15.9912,-5.12106 c 0.64093,-16.74444 0.41005,-18.79882 -2.34712,-20.88659 -2.81959,-2.13505 -2.58192,-2.31956 3.04944,-2.36733 4.61811,-0.0391 6.1074,0.60548 6.1074,2.6436 0,2.50806 0.20696,2.50806 2.97835,0 4.36745,-3.95247 12.58246,-3.46756 15.65862,0.92427 2.75001,3.92615 3.17391,14.93619 1.06777,27.73162 -1.05903,6.43389 -0.85078,7.73601 1.23715,7.73601 1.8043,0 2.01356,0.49693 0.74396,1.76652 -2.41839,2.41839 -9.5889,1.14568 -8.9976,-1.597 0.2604,-1.20785 0.9191,-7.97471 1.46374,-15.03742 0.8467,-10.9795 0.56433,-13.31202 -1.94738,-16.08743 -3.67889,-4.06508 -8.33692,-4.17248 -10.44114,-0.24071 -0.88462,1.65291 -2.11042,9.65553 -2.724,17.78357 -0.89383,11.84011 -1.65685,14.91975 -3.83784,15.4901 -2.45614,0.64229 -2.65272,-1.10328 -2.01135,-17.85921 z m 42.15868,14.85634 c -5.37426,-5.37424 -8.14349,-17.55274 -5.86649,-25.79943 1.97834,-7.16492 9.79835,-12.7938 16.52652,-11.89587 4.45226,0.59421 4.47874,0.54031 4.47874,-9.119598 0,-7.344682 -0.6959,-10.245643 -2.85011,-11.880926 -2.52937,-1.920064 -2.14855,-2.16936 3.38418,-2.215336 l 6.23428,-0.05177 -0.53405,30.94574 c -0.49994,28.96833 -0.34579,30.94564 2.41218,30.94411 1.62042,-9.1e-4 2.52494,0.68001 2.01002,1.51312 -1.2739,2.06124 -9.53465,1.03642 -10.3063,-1.27854 -0.4324,-1.29713 -1.67531,-1.12144 -4.10483,0.58027 -4.79712,3.36005 -6.55067,3.09173 -11.38414,-1.74176 z m 13.66794,-10.37933 c 0.48411,-17.78112 -1.0602,-22.89681 -6.91207,-22.89681 -3.74045,0 -6.27482,5.92016 -6.27482,14.65773 0,7.49474 1.92762,13.09542 5.86077,17.02858 2.74931,2.7493 2.97105,2.7467 5.02232,-0.0587 1.18032,-1.61418 2.21701,-5.54312 2.3038,-8.73099 z m 37.04902,-15.50711 c 0.52478,-28.166723 0.36646,-30.190599 -2.36153,-30.190599 -2.14248,0 -2.44081,-0.483182 -1.11627,-1.807754 1.1312,-1.131189 6.6923,-1.585919 14.85911,-1.215046 11.09743,0.503965 13.67953,1.182831 17.2473,4.534598 7.10076,6.670799 4.76133,18.041261 -5.48597,26.663761 l -4.91301,4.13404 12.36775,11.55014 c 10.35297,9.66853 12.03993,11.94514 10.35534,13.97496 -1.10682,1.33368 -2.94591,2.42486 -4.08679,2.42486 -2.29468,0 -26.84229,-25.44353 -26.84229,-27.82199 0,-0.8214 1.15573,-1.49348 2.56825,-1.49348 1.41253,0 4.80227,-2.23405 7.53275,-4.96453 4.34193,-4.34193 4.85416,-5.78751 4.08435,-11.526853 -0.94687,-7.059641 -4.51841,-12.120955 -9.71755,-13.771106 -4.94623,-1.56986 -6.02453,1.81204 -6.27379,19.676359 -0.12494,8.9575 -0.68585,21.41658 -1.2464,27.68682 -0.87154,9.74895 -1.49104,11.46825 -4.27644,11.86844 -3.17408,0.45602 -3.24294,-0.30329 -2.69481,-29.72262 z m 46.70716,26.18458 c -4.75618,-4.75618 -7.99613,-16.04373 -6.77142,-23.5907 1.18485,-7.30142 8.42292,-14.86949 14.22105,-14.86949 4.71845,0 13.71425,8.71547 11.94711,11.57481 -0.51913,0.83995 -5.26514,3.70856 -10.54669,6.37469 -10.15949,5.12849 -10.45441,5.94106 -5.15922,14.21611 2.40342,3.75594 9.09424,5.00241 10.92773,2.03577 0.5536,-0.89575 1.83331,-1.62861 2.84379,-1.62861 1.01045,0 -0.26924,2.19865 -2.84379,4.8859 -5.6517,5.89909 -9.46008,6.15999 -14.61856,1.00152 z m 13.80423,-28.60326 c 0,-2.32376 -8.57121,-8.46618 -9.84259,-7.05354 -0.62776,0.69751 -1.61355,4.404 -2.19066,8.23664 l -1.04926,6.96845 6.54127,-3.33712 c 3.59769,-1.83541 6.54124,-4.0019 6.54124,-4.81443 z m 45.94135,30.30063 c -3.6507,-2.02643 -3.66467,-2.13259 -0.64068,-4.86932 2.75734,-2.49534 3.3142,-2.52923 5.15301,-0.31362 2.6391,3.17989 7.5529,3.20294 8.76622,0.041 1.40657,-3.66545 -0.14626,-6.00841 -7.63322,-11.51768 -5.95981,-4.3855 -6.77579,-5.74728 -6.61002,-11.0313 0.10416,-3.31552 1.50017,-7.47687 3.10253,-9.24746 5.73526,-6.337379 20.75006,-2.29146 15.40354,4.15069 -1.79443,2.16218 -2.40057,2.18125 -4.67815,0.14715 -1.43914,-1.28537 -4.08237,-2.58643 -5.87387,-2.89121 -2.49954,-0.42523 -3.37515,0.46703 -3.76404,3.83561 -0.41543,3.59889 0.71436,5.19781 6.27122,8.87516 7.7253,5.11237 10.31583,10.16718 8.14145,15.8862 -1.67195,4.39758 -7.66026,9.15134 -11.41816,9.06414 -1.36829,-0.0316 -4.16719,-0.98992 -6.21983,-2.12928 z m 63.54985,-29.30767 0.44181,-31.207835 3.89676,-0.550886 c 3.58742,-0.507141 3.81365,-0.135503 2.85011,4.682332 -0.57566,2.878272 -1.04663,16.782309 -1.04663,30.897859 0,24.38508 -0.16415,25.70759 -3.29195,26.52554 -3.22999,0.84465 -3.28362,0.27361 -2.8501,-30.34701 z m 17.27719,12.49546 c 0.38019,-12.87927 -0.0566,-19.32804 -1.42088,-20.97175 -1.65394,-1.99286 -1.15421,-2.3736 3.11542,-2.3736 3.51683,0 5.08531,0.78196 5.08531,2.53529 0,2.29467 0.34356,2.29467 3.61966,0 4.98017,-3.48822 11.58198,-3.17604 15.10259,0.71415 2.59021,2.86216 2.81344,5.19145 1.87287,19.54366 -0.95467,14.56757 -0.77932,16.29419 1.65474,16.29419 4.61693,0 1.08687,1.91602 -4.20506,2.28238 l -4.99079,0.34552 1.02445,-15.63274 c 0.88176,-13.45484 0.63692,-16.02032 -1.75742,-18.41465 -3.26636,-3.26636 -8.31857,-3.63629 -10.18911,-0.74609 -0.72468,1.11968 -1.68406,8.91734 -2.13193,17.3281 -0.71342,13.39761 -1.2179,15.44105 -4.07159,16.49299 -3.15635,1.16348 -3.24027,0.62444 -2.70826,-17.39745 z m 41.92565,14.9141 c -4.87284,-5.2579 -8.15242,-17.03708 -6.91221,-24.82643 1.74068,-10.93247 13.52973,-17.008639 21.53572,-11.09969 2.43911,1.80021 2.72128,2.77985 1.23508,4.28783 -1.95687,1.98552 -3.87883,1.53832 -9.16238,-2.13205 -4.82141,-3.34929 -8.05293,2.50538 -7.22304,13.0863 0.88176,11.24224 5.42809,17.53222 12.43212,17.20016 6.37947,-0.30246 6.34667,0.32108 -0.2278,4.32958 -6.72084,4.09778 -7.12303,4.06866 -11.67749,-0.8457 z m 23.81087,2.13076 c -4.63914,-4.63912 0.43048,-13.54928 5.37447,-9.4461 1.34365,1.11511 2.44299,3.25693 2.44299,4.75959 0,2.66254 -2.92702,6.64087 -4.88592,6.64087 -0.53746,0 -1.85664,-0.87945 -2.93154,-1.95436 z"
     id="path4206"
     inkscape:connector-curvature="0"
     sodipodi:nodetypes="sscssssssssssssssssssssscscsssscssscsssssscsssssssssssscssscsssssssssssscssssssssssssscssssssssssssssssscssssssssssssssssssssssssscssssssssssssssssssscsssssscssssccsssssscssssssssssssssssssssssssscsscsssscsscsssscccscsssssscssssssscssssssssssssssssssss"
     clip-path="url(#clipPath4879)"
     transform="matrix(0.98214121,0,0,0.98214121,-77.678436,-7.4540867)" />
  <path
     inkscape:connector-curvature="0"
     id="path4206-9"
     d="m 111.17217,85.883866 c -0.20107,-0.32534 0.0606,-0.59153 0.58139,-0.59153 1.37815,0 1.86598,-2.80149 1.36794,-7.85578 -0.36979,-3.75282 -0.64703,-4.49156 -1.79862,-4.79271 -1.4583,-0.38135 -2.59387,0.23653 -1.29193,0.70296 1.03139,0.36952 0.31762,2.1533 -0.86163,2.1533 -0.65729,0 -0.80427,-0.46832 -0.5122,-1.63203 0.35851,-1.42842 0.19716,-1.63205 -1.29319,-1.63205 -1.03407,0 -1.70281,0.3633 -1.70281,0.92504 0,0.6584 -0.66576,0.87221 -2.3097,0.74177 -1.69756,-0.13469 -2.99039,0.30983 -4.87801,1.6772 l -2.568303,1.86047 0.740754,-1.62576 c 0.914036,-2.00609 0.415874,-2.60802 -1.368207,-1.65322 -1.203307,0.64399 -1.341573,0.5528 -1.22875,-0.81041 0.09648,-1.16569 0.449284,-1.47612 1.463172,-1.28744 0.734823,0.13674 1.923575,-0.18821 2.641672,-0.72212 1.408341,-1.04709 1.514115,-0.93783 -1.958445,-2.02271 -1.792558,-0.56001 -1.009635,-1.5434 0.979222,-1.22997 1.386701,0.21856 1.958445,0.0431 1.958445,-0.60095 0,-1.30505 -0.743161,-1.86406 -1.571973,-1.18244 -0.843899,0.69402 -5.371282,1.16335 -5.920855,0.61376 -0.644082,-0.64407 -0.963129,-3.22793 -0.351935,-2.85018 0.315471,0.19496 0.758102,0.0559 0.983626,-0.30899 0.225523,-0.3649 0.850693,-0.66345 1.389265,-0.66345 0.538571,0 0.807155,0.2784 0.596851,0.61869 -0.21937,0.35494 0.251212,0.46795 1.103899,0.2651 0.817448,-0.19448 1.999819,-0.34431 2.62749,-0.33294 0.62767,0.0114 1.445865,-0.5486 1.81821,-1.24433 0.555422,-1.03781 0.461862,-1.26496 -0.521045,-1.26496 -0.65892,0 -1.477115,-0.26902 -1.81821,-0.59781 -0.872871,-0.84139 -4.347351,-1.09858 -5.516679,-0.40835 -0.565299,0.33368 -0.427235,-0.0615 0.3268,-0.93546 0.931971,-1.08014 1.072093,-1.59489 0.489611,-1.79865 -0.44881,-0.15698 -0.816019,-0.55472 -0.816019,-0.88385 0,-0.95311 1.956875,-0.69323 3.05594,0.40583 0.903772,0.90378 1.148391,0.85479 2.445203,-0.48961 0.792532,-0.82162 1.302437,-1.75956 1.133122,-2.08432 -0.169316,-0.32476 -0.0019,-0.40145 0.371866,-0.17039 0.373841,0.23104 1.027063,9.9e-4 1.451603,-0.50999 0.42454,-0.51155 1.64845,-1.1226 2.71981,-1.35791 2.65059,-0.58217 2.02105,-1.86818 -1.10994,-2.26735 -2.128466,-0.27136 -2.597078,-0.60164 -2.778712,-1.95845 -0.176595,-1.31913 -0.05769,-1.475583 0.620173,-0.81601 1.218179,1.1853 5.900259,0.99959 7.767229,-0.308079 l 1.60487,-1.124101 -2.60204,-0.756103 c -1.43113,-0.415857 -2.52861,-1.085084 -2.43884,-1.487165 0.0898,-0.402082 -0.29479,-0.731055 -0.85455,-0.731055 -0.55976,0 -0.83323,-0.298558 -0.60771,-0.663462 0.22553,-0.36491 0.66878,-0.503563 0.985,-0.308128 0.80537,0.497751 2.12722,-2.18449 1.66726,-3.38313 -0.24369,-0.635032 0.0886,-1.110992 0.92895,-1.330755 1.41831,-0.370898 1.82671,-2.150367 0.49231,-2.145066 -0.44882,0.0019 -1.69732,0.725636 -2.77447,1.608562 -1.50282,1.231848 -1.69266,1.610781 -0.81602,1.628793 1.14553,0.02356 1.6754,1.981926 0.53624,1.981926 -0.3334,0 -1.04683,-0.44065 -1.5854,-0.979223 -0.53858,-0.538571 -1.42352,-0.979222 -1.96655,-0.979222 -0.543029,0 -1.168883,-0.293766 -1.390787,-0.652814 -0.221904,-0.359049 0.06399,-0.652816 0.635325,-0.652816 1.575682,0 2.365682,-2.743233 1.069362,-3.713295 -0.848266,-0.634772 -0.20469,-0.745451 3.32484,-0.571781 3.72577,0.183323 4.24244,0.08108 3.47391,-0.687453 -0.49654,-0.496545 -1.18421,-0.902805 -1.52816,-0.902805 -0.34394,0 -0.77586,-0.954741 -0.95982,-2.121649 -0.25854,-1.639969 -0.016,-2.377721 1.06833,-3.249562 0.77154,-0.620351 1.9169,-1.134443 2.54523,-1.142427 0.62834,-0.008 1.14243,-0.29094 1.14243,-0.628804 0,-0.944702 -1.16461,-1.447663 -1.62546,-0.701985 -0.22552,0.364903 -0.73768,0.663462 -1.13812,0.663462 -0.40045,0 -0.0236,-0.749888 0.83744,-1.666421 1.32007,-1.405152 1.41467,-1.761816 0.6034,-2.274857 -0.86702,-0.5483 -0.44326,-0.90727 0.83313,-0.705733 0.26928,0.0425 0.48961,-0.363344 0.48961,-0.901918 0,-0.538572 -0.36721,-0.990984 -0.81602,-1.005359 -0.44881,-0.01437 -0.0106,-0.463134 0.97382,-0.997241 1.52359,-0.826645 1.77471,-1.357115 1.68815,-3.56606 -0.0559,-1.42723 0.0934,-2.790033 0.33182,-3.0284548 0.23842,-0.23842 0.44326,0.2764438 0.45521,1.1441428 0.026,1.890306 1.89142,4.281286 3.99909,5.125845 1.5107,0.605352 1.50765,0.612803 -0.26713,0.65371 -1.10645,0.02551 -1.79524,0.401332 -1.79524,0.979559 0,0.714219 0.56635,0.846274 2.37247,0.553182 1.79155,-0.290728 2.30238,-0.174759 2.08626,0.473616 -0.15741,0.472237 -0.81129,0.935677 -1.45306,1.029872 -2.51041,0.368448 -1.99016,2.227672 0.62334,2.227672 1.67093,0 2.17699,0.9781 0.7775,1.502721 -0.56895,0.213282 -0.4345,0.599042 0.44405,1.2741 1.23603,0.949721 1.23291,0.982742 -0.1632,1.729921 -1.70614,0.913097 -1.88095,2.150032 -0.28085,1.987265 2.68587,-0.273208 3.56751,0.0327 3.15937,1.096305 -0.24096,0.627924 0.0473,1.394772 0.70501,1.875721 1.02177,0.747141 0.99349,0.851356 -0.3464,1.276625 -0.85263,0.270611 -1.85294,0.136118 -2.40689,-0.32362 -1.26863,-1.052872 -1.20375,0.02298 0.11492,1.905678 0.7471,1.066634 1.20723,1.283683 1.54901,0.730669 0.34723,-0.561825 0.84132,-0.596652 1.72852,-0.121841 0.76808,0.411065 1.64804,0.437797 2.30521,0.07002 0.93268,-0.52195 0.9706,-0.395808 0.30955,1.029484 -0.48607,1.048022 -1.29379,1.626123 -2.27659,1.629412 -3.06487,0.01025 -0.95164,1.640414 2.55314,1.969523 2.87117,0.269614 3.25426,0.434631 2.02812,0.873611 -2.62053,0.938207 -5.94912,0.942346 -6.72425,0.0084 -0.77647,-0.935589 -4.49397,-1.250129 -4.49397,-0.380233 0,0.926313 2.60551,2.756341 3.92435,2.756341 1.4232,0 1.78818,1.650813 0.48215,2.180749 -0.61409,0.249179 -0.57371,0.502517 0.16321,1.023803 1.01831,0.720341 2.73962,0.628301 4.78353,-0.255786 0.79063,-0.341984 1.55345,-0.155644 2.26153,0.552445 0.71878,0.718769 0.80173,1.068499 0.25346,1.068499 -0.48911,0 -0.72896,0.64276 -0.59978,1.60735 0.28132,2.10069 0.90193,2.66286 1.96536,1.78029 0.47404,-0.39341 1.49942,-0.66728 2.27862,-0.60858 1.15998,0.0874 1.35169,0.4072 1.05782,1.7647 -0.65367,3.01953 -0.84964,3.29001 -2.38367,3.29001 -0.83708,0 -1.85814,0.33617 -2.26902,0.74706 -0.54258,0.54258 -1.24838,0.5571 -2.57862,0.0531 -2.989,-1.13255 -5.42205,-1.52045 -5.42205,-0.86441 0,0.33735 0.95474,0.81629 2.12165,1.06431 1.16691,0.248 2.58488,0.85838 3.15105,1.35638 0.87995,0.77399 1.474,0.75396 4.0918,-0.13802 3.3039,-1.12575 4.99743,-0.88893 4.99743,0.6988 0,0.69062 -0.65597,1.00281 -2.12164,1.00971 -1.60999,0.008 -1.8855,0.16261 -1.14243,0.64282 0.53857,0.34805 1.81156,0.63732 2.82886,0.64281 2.17616,0.0118 2.08972,1.52763 -0.10553,1.85065 -0.77973,0.11473 -1.41828,0.4085 -1.419,0.65281 -10e-4,0.41046 -1.03495,0.60317 -5.15515,0.96102 -0.86128,0.0748 -1.70576,-0.26762 -1.87661,-0.76093 -0.23623,-0.68205 0.25177,-0.83128 2.03687,-0.62288 1.53266,0.17892 2.46021,-0.0196 2.67214,-0.5719 0.22749,-0.59281 -0.35487,-0.84595 -1.94613,-0.84595 -1.43977,0 -2.66772,-0.46364 -3.35552,-1.26692 -0.79614,-0.92982 -1.61952,-1.17575 -3.09448,-0.92426 -1.49947,0.25566 -1.7659,0.17197 -1.0494,-0.32962 0.52818,-0.36975 0.7556,-0.87701 0.50539,-1.12722 -0.58294,-0.58293 -2.44493,0.94262 -2.44493,2.00317 0,0.44359 1.23038,1.06859 2.73417,1.38889 2.34594,0.49968 2.81206,0.88363 3.28274,2.70401 0.3061,1.18384 0.97316,2.12165 1.50914,2.12165 0.5283,0 0.96055,0.44066 0.96055,0.97923 0,1.12221 1.02498,1.30865 1.64845,0.29985 0.23093,-0.37366 0.94121,-0.51391 1.5784,-0.31167 0.64026,0.20321 1.52755,-0.0769 1.98344,-0.62626 0.89065,-1.07316 3.92912,-1.37827 3.92912,-0.39453 0,1.45947 -0.88536,2.66465 -1.95752,2.66465 -1.36721,0 -2.17519,2.50332 -1.57709,4.8863 0.33584,1.3381 0.10138,1.73848 -1.33868,2.28598 -1.3491,0.51294 -1.96863,0.44099 -2.72621,-0.3166 -1.47672,-1.47671 -2.68234,-1.18381 -2.68234,0.65169 0,1.16057 0.35361,1.63203 1.22403,1.63203 1.3636,0 1.51077,0.50459 0.57122,1.95845 -0.54081,0.83685 -0.63428,0.81311 -0.64282,-0.16321 -0.006,-0.7076 -0.5118,-1.14242 -1.3284,-1.14242 -1.04938,0 -1.25811,-0.33244 -1.02297,-1.62916 0.36115,-1.99165 -1.09332,-3.59336 -3.26304,-3.59336 -0.87686,0 -2.10438,-0.27232 -2.72784,-0.60515 -0.62346,-0.33285 -1.64766,-0.76428 -2.276,-0.95875 -2.25851,-0.69899 -1.20066,-1.84286 1.46884,-1.58828 2.75042,0.26229 3.65705,-0.54359 1.14243,-1.01547 -4.54865,-0.85358 -4.52419,-0.88457 -4.22277,5.34724 0.15097,3.12123 0.4087,6.18743 0.57273,6.81376 0.48043,1.83442 3.17095,5.1335 3.8462,4.71617 0.34092,-0.21069 0.61985,-0.0543 0.61985,0.34766 0,0.44424 -0.94974,0.65131 -2.42227,0.52814 -1.94241,-0.16248 -2.51286,-0.52592 -2.87955,-1.83465 -0.44619,-1.59248 -0.46805,-1.5979 -0.90215,-0.22356 -0.46978,1.48729 -2.68006,2.47054 -3.29972,1.46791 z m -5.83746,-15.60627 c 1.25878,-0.54092 1.25431,-0.5627 -0.12467,-0.60693 -0.78667,-0.0253 -1.61187,0.24788 -1.83377,0.60693 -0.47721,0.77213 0.16158,0.77213 1.95844,0 z m 21.86421,0.1632 c -0.003,-0.26928 -0.73721,-0.82918 -1.63204,-1.24421 -1.73092,-0.80283 -2.13809,-0.34409 -0.84357,0.95045 0.86785,0.86783 2.48358,1.05956 2.47561,0.29376 z m 3.26917,-0.1632 c 0,-0.35905 -0.29377,-0.65282 -0.65282,-0.65282 -0.35904,0 -0.65281,0.29377 -0.65281,0.65282 0,0.35905 0.29377,0.6528 0.65281,0.6528 0.35905,0 0.65282,-0.29375 0.65282,-0.6528 z m -28.07105,-5.2455 c 0,-1.1263 -0.19879,-1.22221 -1.30562,-0.62984 -0.7181,0.38431 -1.305634,0.98218 -1.305634,1.3286 0,0.34641 0.587534,0.62984 1.305634,0.62984 0.87794,0 1.30562,-0.43521 1.30562,-1.3286 z m 22.19571,0.45818 c 0,-0.47872 -0.19329,-1.06371 -0.42954,-1.29996 -0.59036,-0.59037 -2.25387,0.87268 -1.80959,1.59154 0.55627,0.90005 2.23913,0.68092 2.23913,-0.29158 z m -3.91689,-2.02872 c 0,-0.15833 -0.29376,-0.46943 -0.65281,-0.69134 -0.35905,-0.2219 -0.65282,-0.0923 -0.65282,0.28788 0,0.38024 0.29377,0.69134 0.65282,0.69134 0.35905,0 0.65281,-0.12955 0.65281,-0.28788 z m -9.46581,-1.01774 c 0.2219,-0.35905 0.0924,-0.65282 -0.28788,-0.65282 -0.38024,0 -0.69135,0.29377 -0.69135,0.65282 0,0.35905 0.12955,0.65281 0.28788,0.65281 0.15834,0 0.46944,-0.29376 0.69135,-0.65281 z m -5.05519,-0.81603 c -0.31815,-0.96913 -4.41063,-1.51228 -4.41063,-0.58536 0,0.78956 1.15116,1.28204 3.15527,1.34985 0.94164,0.0318 1.42096,-0.26004 1.25536,-0.76449 z m -1.3976,-4.34914 1.58692,-1.24827 -2.78958,0.18477 c -1.53428,0.10163 -3.30368,0.22269 -3.932018,0.26905 -1.963764,0.14486 -1.247138,1.29418 0.979218,1.57048 1.16691,0.14482 2.2222,0.31031 2.34509,0.36777 0.12289,0.0574 0.93756,-0.45726 1.81037,-1.1438 z m 4.82075,-4.62706 c 0,-0.35905 -0.12955,-0.65281 -0.28788,-0.65281 -0.15834,0 -0.46944,0.29376 -0.69134,0.65281 -0.22191,0.35905 -0.0924,0.65281 0.28788,0.65281 0.38023,0 0.69134,-0.29376 0.69134,-0.65281 z m 15.46201,-1.55249 c -0.18988,-0.49482 -0.0488,-1.19609 0.31344,-1.55836 1.0558,-1.05579 -0.42307,-1.52326 -1.74982,-0.55313 -1.37907,1.0084 -0.90546,3.01117 0.71206,3.01117 0.64048,0 0.93106,-0.36093 0.72432,-0.89968 z m -3.71134,-0.36743 c 0,-1.01285 -1.30732,-1.50247 -2.15025,-0.8053 -0.43308,0.35817 -1.66872,0.78011 -2.74586,0.9376 -1.26481,0.18494 -0.74458,0.321 1.46883,0.38418 1.885,0.0538 3.42728,-0.17862 3.42728,-0.51648 z m -4.56971,-4.608229 c 0,-0.359048 -0.12954,-0.652815 -0.28788,-0.652815 -0.15833,0 -0.46943,0.293767 -0.69134,0.652815 -0.2219,0.359048 -0.0924,0.652819 0.28788,0.652819 0.38024,0 0.69134,-0.293771 0.69134,-0.652819 z m 1.30563,-9.139409 c 0,-0.359048 -0.45798,-0.652814 -1.01775,-0.652814 -0.55976,0 -0.83619,0.293766 -0.61428,0.652814 0.2219,0.359049 0.67989,0.652816 1.01775,0.652816 0.33785,0 0.61428,-0.293767 0.61428,-0.652816 z m 16.97319,37.210458 c 0,-0.35906 0.458,-0.65282 1.01775,-0.65282 0.55976,0 0.8362,0.29376 0.6143,0.65282 -0.22191,0.35905 -0.6799,0.65281 -1.01776,0.65281 -0.33785,0 -0.61429,-0.29376 -0.61429,-0.65281 z m 1.30563,-2.28486 c 0,-0.53857 0.28455,-0.97923 0.63233,-0.97923 0.34778,0 0.46323,0.44066 0.25656,0.97923 -0.20667,0.53857 -0.49121,0.97923 -0.63232,0.97923 -0.14112,0 -0.25657,-0.44066 -0.25657,-0.97923 z M 96.973749,49.805906 c -0.198901,-0.51833 -0.01478,-0.8915 0.409181,-0.82928 0.977508,0.14346 1.397946,1.28987 0.573803,1.56458 -0.341739,0.11392 -0.784082,-0.21697 -0.982984,-0.7353 z m 4.148831,-4.955021 c -0.52143,-0.32986 -1.17045,-0.46229 -1.442275,-0.294295 -0.54682,0.33795 -3.158594,-1.121066 -3.158594,-1.764493 0,-0.911506 3.554969,0.06803 4.813159,1.326214 1.43448,1.434475 1.35126,1.721681 -0.21229,0.732574 z"
     style="opacity:0.9;fill:#a51c1c;fill-opacity:1;stroke:#000000;stroke-opacity:1;filter:url(#filter4767)"
     sodipodi:nodetypes="ssssssssssscssssssssssscssssssssccssssccssssscsssscsscscssssssssssscssssscssssssssssssssssssssssssssssssssssssssssssssssssssssscssscssssssssssssssssssssscsssssssssssssssscsscsscssssssssssssssssssssssssssssscssscsssssssssssssssssssssssssssssssssssssscssssss"
     clip-path="url(#clipPath4875)"
     transform="matrix(0.96152221,0,0,0.96152221,-75.898514,-7.2977657)" />
  <path
     sodipodi:nodetypes="ssssssssssscssssssssssscssssssssccssssccssssscsssscsscscssssssssssscssssscssssssssssssssssssssssssssssssssssssssssssssssssssssscssscssssssssssssssssssssscsssssssssssssssscsscsscssssssssssssssssssssssssssssscssscsssssssssssssssssssssssssssssssssssssscssssss"
     style="opacity:0.9;fill:#a51c1c;fill-opacity:1;stroke:#000000;stroke-opacity:1;filter:url(#filter4779)"
     d="m 159.68868,85.883896 c -0.20106,-0.32533 0.0606,-0.59152 0.5814,-0.59152 1.37815,0 1.86597,-2.80151 1.36794,-7.8558 -0.36979,-3.75281 -0.64703,-4.49156 -1.79863,-4.79269 -1.4583,-0.38136 -2.59387,0.23652 -1.29193,0.70295 1.0314,0.36951 0.31763,2.15331 -0.86162,2.15331 -0.6573,0 -0.80428,-0.46834 -0.51221,-1.63204 0.35851,-1.42842 0.19716,-1.63205 -1.29318,-1.63205 -1.03407,0 -1.70281,0.3633 -1.70281,0.92504 0,0.6584 -0.66576,0.87221 -2.30971,0.74177 -1.69756,-0.13468 -2.99039,0.30982 -4.87801,1.6772 l -2.5683,1.86048 0.74075,-1.62577 c 0.91404,-2.00609 0.41587,-2.60803 -1.36821,-1.65322 -1.2033,0.64399 -1.34157,0.5528 -1.22875,-0.81042 0.0965,-1.16568 0.44929,-1.47611 1.46317,-1.28743 0.73483,0.13674 1.92358,-0.18821 2.64168,-0.72212 1.40834,-1.04709 1.51411,-0.93783 -1.95845,-2.02271 -1.79256,-0.56001 -1.00963,-1.54342 0.97923,-1.22997 1.3867,0.21855 1.95844,0.0431 1.95844,-0.60096 0,-1.30505 -0.74316,-1.86405 -1.57197,-1.18243 -0.8439,0.69401 -5.37129,1.16333 -5.92086,0.61376 -0.64408,-0.64407 -0.96313,-3.22793 -0.35193,-2.85019 0.31547,0.19496 0.7581,0.0559 0.98362,-0.30898 0.22552,-0.3649 0.85069,-0.66346 1.38927,-0.66346 0.53857,0 0.80715,0.2784 0.59685,0.61868 -0.21937,0.35495 0.25121,0.46796 1.1039,0.26511 0.81745,-0.19447 1.99982,-0.34431 2.62749,-0.33294 0.62767,0.0114 1.44586,-0.5486 1.81821,-1.24433 0.55542,-1.03781 0.46186,-1.26496 -0.52104,-1.26496 -0.65893,0 -1.47712,-0.26902 -1.81822,-0.59781 -0.87287,-0.84139 -4.34735,-1.09857 -5.51668,-0.40835 -0.5653,0.33368 -0.42723,-0.0615 0.3268,-0.93546 0.93197,-1.08014 1.0721,-1.59489 0.48961,-1.79865 -0.44881,-0.15698 -0.81602,-0.55472 -0.81602,-0.88385 0,-0.9531 1.95688,-0.69324 3.05594,0.40583 0.90378,0.90377 1.1484,0.85479 2.44521,-0.48962 0.79253,-0.82161 1.30244,-1.75955 1.13312,-2.08432 -0.16931,-0.32476 -0.002,-0.40144 0.37187,-0.17038 0.37384,0.23103 1.02706,9.9e-4 1.4516,-0.50999 0.42454,-0.51155 1.64845,-1.1226 2.71981,-1.35791 2.6506,-0.58218 2.02105,-1.86818 -1.10994,-2.26735 -2.12846,-0.27137 -2.59708,-0.60164 -2.77871,-1.95845 -0.1766,-1.31914 -0.0577,-1.475589 0.62017,-0.81602 1.21819,1.1853 5.90027,0.99959 7.76724,-0.308079 l 1.60486,-1.124097 -2.60204,-0.756104 c -1.43113,-0.415856 -2.5286,-1.085083 -2.43884,-1.487166 0.0897,-0.402081 -0.29478,-0.731054 -0.85455,-0.731054 -0.55976,0 -0.83323,-0.298559 -0.6077,-0.663463 0.22552,-0.36491 0.66877,-0.503563 0.985,-0.308129 0.80537,0.497752 2.12721,-2.184489 1.66726,-3.38313 -0.24369,-0.635032 0.0885,-1.110993 0.92895,-1.330756 1.4183,-0.370897 1.8267,-2.150368 0.4923,-2.145066 -0.44881,0.002 -1.69732,0.725637 -2.77446,1.608562 -1.50282,1.231849 -1.69267,1.610782 -0.81602,1.628794 1.14553,0.02357 1.67539,1.981927 0.53624,1.981927 -0.3334,0 -1.04684,-0.44065 -1.58541,-0.979223 -0.53857,-0.538572 -1.42352,-0.979222 -1.96655,-0.979222 -0.54303,0 -1.16888,-0.293767 -1.39079,-0.652816 -0.2219,-0.359049 0.064,-0.652815 0.63533,-0.652815 1.57568,0 2.36569,-2.743234 1.06937,-3.713298 -0.84828,-0.634772 -0.2047,-0.745449 3.32483,-0.57178 3.72578,0.183323 4.24245,0.08108 3.47391,-0.687454 -0.49654,-0.496545 -1.18421,-0.902805 -1.52815,-0.902805 -0.34394,0 -0.77587,-0.954742 -0.95983,-2.121649 -0.25854,-1.63997 -0.016,-2.377723 1.06833,-3.249565 0.77155,-0.62035 1.91691,-1.134443 2.54524,-1.142426 0.62833,-0.008 1.14242,-0.29094 1.14242,-0.628804 0,-0.944703 -1.1646,-1.447664 -1.62545,-0.701985 -0.22552,0.364903 -0.73768,0.663462 -1.13813,0.663462 -0.40045,0 -0.0236,-0.749889 0.83745,-1.666422 1.32006,-1.405152 1.41467,-1.761818 0.60339,-2.274858 -0.86702,-0.548301 -0.44326,-0.90727 0.83314,-0.705733 0.26928,0.0425 0.4896,-0.363344 0.4896,-0.901918 0,-0.538573 -0.3672,-0.990985 -0.81602,-1.00536 -0.4488,-0.01437 -0.0106,-0.463134 0.97382,-0.997241 1.5236,-0.826646 1.77471,-1.357115 1.68816,-3.566062 -0.0559,-1.42723 0.0934,-2.790033 0.33181,-3.0284548 0.23843,-0.238421 0.44327,0.2764438 0.45521,1.1441428 0.026,1.890307 1.89143,4.281287 3.99909,5.125847 1.51071,0.605352 1.50766,0.612802 -0.26711,0.65371 -1.10646,0.02551 -1.79525,0.401333 -1.79525,0.979559 0,0.71422 0.56634,0.846275 2.37247,0.553182 1.79154,-0.290727 2.30238,-0.174759 2.08626,0.473616 -0.15741,0.472238 -0.81129,0.935679 -1.45306,1.029873 -2.51041,0.368449 -1.99016,2.227673 0.62334,2.227673 1.67092,0 2.17698,0.9781 0.77749,1.502722 -0.56894,0.213281 -0.4345,0.599043 0.44406,1.2741 1.23603,0.949722 1.23292,0.982741 -0.1632,1.729921 -1.70615,0.913099 -1.88096,2.150033 -0.28086,1.987267 2.68588,-0.27321 3.56752,0.03271 3.15938,1.096305 -0.24095,0.627923 0.0472,1.394772 0.70501,1.875721 1.02177,0.747141 0.9935,0.851357 -0.34639,1.276626 -0.85264,0.270612 -1.85295,0.136118 -2.40689,-0.32362 -1.26864,-1.052873 -1.20376,0.02298 0.1149,1.905678 0.74711,1.066635 1.20724,1.283683 1.54903,0.73067 0.34722,-0.561826 0.84131,-0.596653 1.72851,-0.121842 0.76808,0.411066 1.64805,0.437798 2.30521,0.07003 0.93268,-0.521951 0.97061,-0.395808 0.30955,1.029484 -0.48607,1.048023 -1.29379,1.626123 -2.27659,1.629414 -3.06487,0.01025 -0.95164,1.640412 2.55314,1.969523 2.87117,0.269613 3.25426,0.434631 2.02813,0.87361 -2.62054,0.938207 -5.94913,0.942345 -6.72426,0.0084 -0.77647,-0.935589 -4.49397,-1.250128 -4.49397,-0.380233 0,0.926313 2.60551,2.756343 3.92435,2.756343 1.4232,0 1.78818,1.650813 0.48215,2.180749 -0.61408,0.24918 -0.5737,0.502517 0.16321,1.023804 1.01832,0.720338 2.73962,0.628298 4.78353,-0.255787 0.79064,-0.341983 1.55345,-0.155644 2.26153,0.552445 0.71877,0.718767 0.80173,1.068497 0.25346,1.068497 -0.48911,0 -0.72896,0.64277 -0.59979,1.60735 0.28133,2.1007 0.90195,2.66287 1.96538,1.7803 0.47403,-0.39342 1.49941,-0.66728 2.2786,-0.60858 1.15999,0.0874 1.3517,0.4072 1.05783,1.7647 -0.65366,3.01954 -0.84964,3.29001 -2.38366,3.29001 -0.83708,0 -1.85815,0.33617 -2.26903,0.74706 -0.54258,0.54258 -1.24838,0.5571 -2.57862,0.0531 -2.989,-1.13255 -5.42205,-1.52045 -5.42205,-0.86442 0,0.33736 0.95475,0.81629 2.12165,1.06432 1.16691,0.248 2.58488,0.85838 3.15106,1.35638 0.87994,0.774 1.474,0.75396 4.09179,-0.13801 3.3039,-1.12575 4.99743,-0.88895 4.99743,0.6988 0,0.69061 -0.65596,1.00279 -2.12164,1.0097 -1.60998,0.008 -1.8855,0.16261 -1.14243,0.64282 0.53857,0.34805 1.81157,0.63732 2.82887,0.64282 2.17615,0.0118 2.08971,1.52763 -0.10554,1.85064 -0.77973,0.11473 -1.41828,0.4085 -1.419,0.65281 -9.8e-4,0.41046 -1.03495,0.60317 -5.15515,0.96102 -0.86128,0.0748 -1.70575,-0.26762 -1.87661,-0.76094 -0.23622,-0.68204 0.25178,-0.83127 2.03687,-0.62288 1.53266,0.17893 2.46021,-0.0196 2.67215,-0.57189 0.22748,-0.5928 -0.35488,-0.84596 -1.94613,-0.84596 -1.43978,0 -2.66773,-0.46362 -3.35553,-1.26692 -0.79614,-0.92982 -1.61951,-1.17575 -3.09448,-0.92425 -1.49947,0.25565 -1.7659,0.17197 -1.04939,-0.32962 0.52816,-0.36976 0.75559,-0.87701 0.50538,-1.12722 -0.58295,-0.58293 -2.44493,0.94261 -2.44493,2.00316 0,0.4436 1.23038,1.06861 2.73417,1.38891 2.34593,0.49967 2.81207,0.88362 3.28274,2.70401 0.3061,1.18383 0.97316,2.12165 1.50914,2.12165 0.5283,0 0.96055,0.44066 0.96055,0.97923 0,1.1222 1.02498,1.30865 1.64845,0.29985 0.23093,-0.37366 0.94121,-0.51391 1.5784,-0.31167 0.64026,0.20321 1.52755,-0.0769 1.98344,-0.62627 0.89065,-1.07316 3.92913,-1.37826 3.92913,-0.39454 0,1.45949 -0.88536,2.66467 -1.95753,2.66467 -1.36721,0 -2.17519,2.50332 -1.5771,4.8863 0.33585,1.33809 0.10139,1.73847 -1.33867,2.28599 -1.3491,0.51293 -1.96863,0.44098 -2.72621,-0.3166 -1.47671,-1.47673 -2.68234,-1.18382 -2.68234,0.65168 0,1.16056 0.35361,1.63203 1.22403,1.63203 1.3636,0 1.51077,0.5046 0.57121,1.95846 -0.5408,0.83684 -0.63427,0.81311 -0.64281,-0.16321 -0.006,-0.7076 -0.5118,-1.14243 -1.3284,-1.14243 -1.04937,0 -1.25811,-0.33243 -1.02297,-1.62916 0.36115,-1.99165 -1.09332,-3.59336 -3.26304,-3.59336 -0.87685,0 -2.10438,-0.27232 -2.72785,-0.60516 -0.62346,-0.33284 -1.64765,-0.76427 -2.27599,-0.95874 -2.25851,-0.69899 -1.20067,-1.84287 1.46884,-1.58829 2.75042,0.2623 3.65706,-0.54358 1.14242,-1.01546 -4.54864,-0.85358 -4.52417,-0.88457 -4.22276,5.34723 0.15097,3.12124 0.4087,6.18743 0.57274,6.81377 0.48042,1.83442 3.17093,5.1335 3.84619,4.71617 0.34092,-0.21069 0.61985,-0.0542 0.61985,0.34767 0,0.44424 -0.94973,0.65131 -2.42227,0.52813 -1.94241,-0.16247 -2.51286,-0.52592 -2.87955,-1.83464 -0.44619,-1.59248 -0.46806,-1.5979 -0.90216,-0.22356 -0.46978,1.48728 -2.68005,2.47054 -3.29972,1.4679 z m -5.83745,-15.60628 c 1.25878,-0.54091 1.2543,-0.5627 -0.12468,-0.60692 -0.78667,-0.0253 -1.61186,0.24787 -1.83377,0.60692 -0.4772,0.77214 0.16158,0.77214 1.95845,0 z m 21.86421,0.16321 c -0.003,-0.26929 -0.73721,-0.82918 -1.63203,-1.24422 -1.73093,-0.80283 -2.13809,-0.34408 -0.84358,0.95045 0.86785,0.86783 2.48358,1.05957 2.47561,0.29377 z m 3.26917,-0.16321 c 0,-0.35905 -0.29376,-0.65281 -0.65281,-0.65281 -0.35905,0 -0.65282,0.29376 -0.65282,0.65281 0,0.35905 0.29377,0.65281 0.65282,0.65281 0.35905,0 0.65281,-0.29376 0.65281,-0.65281 z m -28.07105,-5.2455 c 0,-1.1263 -0.1988,-1.22221 -1.30563,-0.62984 -0.7181,0.38431 -1.30563,0.98218 -1.30563,1.3286 0,0.34641 0.58753,0.62984 1.30563,0.62984 0.87794,0 1.30563,-0.4352 1.30563,-1.3286 z m 22.19572,0.45818 c 0,-0.47873 -0.1933,-1.06371 -0.42955,-1.29996 -0.59036,-0.59036 -2.25386,0.87269 -1.80959,1.59154 0.55627,0.90006 2.23914,0.68093 2.23914,-0.29158 z m -3.9169,-2.02872 c 0,-0.15834 -0.29376,-0.46943 -0.65281,-0.69134 -0.35905,-0.2219 -0.65282,-0.0923 -0.65282,0.28788 0,0.38023 0.29377,0.69135 0.65282,0.69135 0.35905,0 0.65281,-0.12955 0.65281,-0.28789 z m -9.46581,-1.01774 c 0.22189,-0.35905 0.0924,-0.65282 -0.28789,-0.65282 -0.38024,0 -0.69134,0.29377 -0.69134,0.65282 0,0.35905 0.12955,0.65281 0.28787,0.65281 0.15834,0 0.46945,-0.29376 0.69136,-0.65281 z m -5.0552,-0.81602 c -0.31814,-0.96915 -4.41063,-1.51229 -4.41063,-0.58538 0,0.78957 1.15116,1.28204 3.15527,1.34986 0.94164,0.0319 1.42096,-0.26004 1.25536,-0.76448 z m -1.3976,-4.34916 1.58693,-1.24827 -2.78959,0.18478 c -1.53428,0.10163 -3.30369,0.2227 -3.93202,0.26905 -1.96376,0.14486 -1.24714,1.29418 0.97923,1.57048 1.1669,0.14481 2.22219,0.31031 2.34509,0.36777 0.12288,0.0574 0.93755,-0.45726 1.81036,-1.14381 z m 4.82075,-4.62705 c 0,-0.35906 -0.12954,-0.65282 -0.28788,-0.65282 -0.15833,0 -0.46943,0.29376 -0.69133,0.65282 -0.22191,0.35905 -0.0924,0.65281 0.28787,0.65281 0.38024,0 0.69134,-0.29376 0.69134,-0.65281 z m 15.46202,-1.5525 c -0.18988,-0.49482 -0.0488,-1.19608 0.31344,-1.55835 1.0558,-1.0558 -0.42307,-1.52327 -1.74982,-0.55313 -1.37906,1.0084 -0.90546,3.01116 0.71207,3.01116 0.64048,0 0.93105,-0.36093 0.72431,-0.89968 z m -3.71134,-0.36743 c 0,-1.01285 -1.30732,-1.50247 -2.15025,-0.8053 -0.43307,0.35818 -1.66872,0.78011 -2.74587,0.9376 -1.26481,0.18495 -0.74458,0.32101 1.46884,0.38419 1.885,0.0538 3.42728,-0.17862 3.42728,-0.51649 z m -4.56971,-4.608224 c 0,-0.359049 -0.12954,-0.652816 -0.28788,-0.652816 -0.15833,0 -0.46944,0.293767 -0.69134,0.652816 -0.22191,0.359047 -0.0924,0.652814 0.28788,0.652814 0.38024,0 0.69134,-0.293767 0.69134,-0.652814 z m 1.30564,-9.139413 c 0,-0.359049 -0.458,-0.652815 -1.01775,-0.652815 -0.55978,0 -0.8362,0.293766 -0.6143,0.652815 0.22191,0.359048 0.6799,0.652815 1.01775,0.652815 0.33786,0 0.6143,-0.293767 0.6143,-0.652815 z m 16.97318,37.210477 c 0,-0.35905 0.458,-0.65282 1.01775,-0.65282 0.55977,0 0.83619,0.29377 0.6143,0.65282 -0.22191,0.35905 -0.6799,0.65281 -1.01775,0.65281 -0.33786,0 -0.6143,-0.29376 -0.6143,-0.65281 z m 1.30563,-2.28486 c 0,-0.53857 0.28456,-0.97923 0.63233,-0.97923 0.34778,0 0.46323,0.44066 0.25656,0.97923 -0.20667,0.53857 -0.4912,0.97923 -0.63232,0.97923 -0.14111,0 -0.25657,-0.44066 -0.25657,-0.97923 z m -39.36968,-22.10374 c -0.1989,-0.51832 -0.0148,-0.8915 0.40918,-0.82928 0.97751,0.14347 1.39794,1.28988 0.5738,1.56459 -0.34174,0.11391 -0.78408,-0.21698 -0.98298,-0.73531 z m 4.14884,-4.955017 c -0.52143,-0.32986 -1.17046,-0.462291 -1.44228,-0.294295 -0.54682,0.337949 -3.1586,-1.121067 -3.1586,-1.764495 0,-0.911505 3.55498,0.06803 4.81316,1.326214 1.43448,1.434476 1.35126,1.721682 -0.21228,0.732576 z"
     id="path4439"
     inkscape:connector-curvature="0"
     clip-path="url(#clipPath4871)"
     transform="matrix(0.96152221,0,0,0.96152221,-75.898514,-7.2977657)" />
  <path
     inkscape:connector-curvature="0"
     id="path4441"
     d="m 207.30673,85.883896 c -0.20106,-0.32533 0.0606,-0.59152 0.5814,-0.59152 1.37815,0 1.86598,-2.80151 1.36794,-7.8558 -0.36979,-3.75281 -0.64703,-4.49156 -1.79862,-4.79269 -1.45831,-0.38136 -2.59387,0.23652 -1.29194,0.70295 1.0314,0.36951 0.31763,2.15331 -0.86162,2.15331 -0.65729,0 -0.80427,-0.46834 -0.5122,-1.63204 0.3585,-1.42842 0.19715,-1.63205 -1.29319,-1.63205 -1.03407,0 -1.70281,0.3633 -1.70281,0.92504 0,0.6584 -0.66576,0.87221 -2.30971,0.74177 -1.69756,-0.13468 -2.99039,0.30982 -4.878,1.6772 l -2.56832,1.86048 0.74076,-1.62577 c 0.91404,-2.00609 0.41588,-2.60803 -1.36821,-1.65322 -1.2033,0.64399 -1.34157,0.5528 -1.22875,-0.81042 0.0965,-1.16568 0.44929,-1.47611 1.46318,-1.28743 0.73482,0.13674 1.92357,-0.18821 2.64167,-0.72212 1.40834,-1.04709 1.51411,-0.93783 -1.95844,-2.02271 -1.79257,-0.56001 -1.00964,-1.54342 0.97921,-1.22997 1.38671,0.21855 1.95846,0.0431 1.95846,-0.60096 0,-1.30505 -0.74317,-1.86405 -1.57198,-1.18243 -0.8439,0.69401 -5.37129,1.16333 -5.92086,0.61376 -0.64408,-0.64407 -0.96313,-3.22793 -0.35194,-2.85019 0.31548,0.19496 0.75811,0.0559 0.98363,-0.30898 0.22553,-0.3649 0.8507,-0.66346 1.38927,-0.66346 0.53857,0 0.80715,0.2784 0.59684,0.61868 -0.21936,0.35495 0.25122,0.46796 1.1039,0.26511 0.81746,-0.19447 1.99983,-0.34431 2.6275,-0.33294 0.62768,0.0114 1.44587,-0.5486 1.81821,-1.24433 0.55542,-1.03781 0.46186,-1.26496 -0.52104,-1.26496 -0.65893,0 -1.47712,-0.26902 -1.81821,-0.59781 -0.87288,-0.84139 -4.34736,-1.09857 -5.51669,-0.40835 -0.5653,0.33368 -0.42723,-0.0615 0.3268,-0.93546 0.93198,-1.08014 1.0721,-1.59489 0.48961,-1.79865 -0.4488,-0.15698 -0.81602,-0.55472 -0.81602,-0.88385 0,-0.9531 1.95688,-0.69324 3.05594,0.40583 0.90377,0.90377 1.1484,0.85479 2.4452,-0.48962 0.79254,-0.82161 1.30244,-1.75955 1.13313,-2.08432 -0.16932,-0.32476 -0.002,-0.40144 0.37187,-0.17038 0.37384,0.23103 1.02706,9.9e-4 1.4516,-0.50999 0.42454,-0.51155 1.64845,-1.1226 2.71981,-1.35791 2.6506,-0.58218 2.02105,-1.86818 -1.10994,-2.26735 -2.12846,-0.27137 -2.59708,-0.60164 -2.77871,-1.95845 -0.1766,-1.31914 -0.0577,-1.475589 0.62017,-0.81602 1.21818,1.1853 5.90027,0.99959 7.76724,-0.308079 l 1.60487,-1.124097 -2.60205,-0.756104 c -1.43112,-0.415856 -2.5286,-1.085083 -2.43884,-1.487166 0.0897,-0.402081 -0.29478,-0.731054 -0.85455,-0.731054 -0.55976,0 -0.83323,-0.298559 -0.6077,-0.663463 0.22552,-0.36491 0.66877,-0.503563 0.985,-0.308129 0.80537,0.497752 2.12721,-2.184489 1.66726,-3.38313 -0.24369,-0.635032 0.0885,-1.110993 0.92895,-1.330756 1.4183,-0.370897 1.8267,-2.150368 0.4923,-2.145066 -0.4488,0.002 -1.69731,0.725637 -2.77446,1.608562 -1.50282,1.231849 -1.69267,1.610782 -0.81602,1.628794 1.14553,0.02357 1.6754,1.981927 0.53624,1.981927 -0.3334,0 -1.04683,-0.44065 -1.58541,-0.979223 -0.53857,-0.538572 -1.42352,-0.979222 -1.96655,-0.979222 -0.54303,0 -1.16888,-0.293767 -1.39079,-0.652816 -0.2219,-0.359049 0.064,-0.652815 0.63533,-0.652815 1.57568,0 2.36568,-2.743234 1.06937,-3.713298 -0.84828,-0.634772 -0.2047,-0.745449 3.32483,-0.57178 3.72578,0.183323 4.24246,0.08108 3.47392,-0.687454 -0.49655,-0.496545 -1.18421,-0.902805 -1.52816,-0.902805 -0.34394,0 -0.77587,-0.954742 -0.95983,-2.121649 -0.25854,-1.63997 -0.016,-2.377723 1.06833,-3.249565 0.77155,-0.62035 1.91691,-1.134443 2.54524,-1.142426 0.62833,-0.008 1.14242,-0.29094 1.14242,-0.628804 0,-0.944703 -1.1646,-1.447664 -1.62545,-0.701985 -0.22552,0.364903 -0.73768,0.663462 -1.13813,0.663462 -0.40045,0 -0.0236,-0.749889 0.83745,-1.666422 1.32006,-1.405152 1.41467,-1.761818 0.60339,-2.274858 -0.86702,-0.548301 -0.44326,-0.90727 0.83314,-0.705733 0.26928,0.0425 0.4896,-0.363344 0.4896,-0.901918 0,-0.538573 -0.3672,-0.990985 -0.81601,-1.00536 -0.44881,-0.01437 -0.0106,-0.463134 0.97382,-0.997241 1.52359,-0.826646 1.77471,-1.357115 1.68815,-3.566062 -0.0559,-1.42723 0.0934,-2.790033 0.33181,-3.0284548 0.23843,-0.238421 0.44327,0.2764438 0.45521,1.1441428 0.026,1.890307 1.89143,4.281287 3.9991,5.125847 1.5107,0.605352 1.50766,0.612802 -0.26712,0.65371 -1.10646,0.02551 -1.79525,0.401333 -1.79525,0.979559 0,0.71422 0.56635,0.846275 2.37247,0.553182 1.79154,-0.290727 2.30239,-0.174759 2.08626,0.473616 -0.15741,0.472238 -0.81129,0.935679 -1.45306,1.029873 -2.51041,0.368449 -1.99016,2.227673 0.62334,2.227673 1.67093,0 2.17698,0.9781 0.77749,1.502722 -0.56894,0.213281 -0.43449,0.599043 0.44407,1.2741 1.23602,0.949722 1.23291,0.982741 -0.16321,1.729921 -1.70614,0.913099 -1.88095,2.150033 -0.28086,1.987267 2.68588,-0.27321 3.56753,0.03271 3.15938,1.096305 -0.24095,0.627923 0.0472,1.394772 0.70501,1.875721 1.02177,0.747141 0.9935,0.851357 -0.34639,1.276626 -0.85263,0.270612 -1.85295,0.136118 -2.40689,-0.32362 -1.26864,-1.052873 -1.20376,0.02298 0.11491,1.905678 0.7471,1.066635 1.20723,1.283683 1.54902,0.73067 0.34723,-0.561826 0.84131,-0.596653 1.72851,-0.121842 0.76808,0.411066 1.64805,0.437798 2.30521,0.07003 0.93268,-0.521951 0.97061,-0.395808 0.30956,1.029484 -0.48608,1.048023 -1.2938,1.626123 -2.2766,1.629414 -3.06486,0.01025 -0.95163,1.640412 2.55314,1.969523 2.87117,0.269613 3.25426,0.434631 2.02813,0.87361 -2.62053,0.938207 -5.94913,0.942345 -6.72426,0.0084 -0.77647,-0.935589 -4.49396,-1.250128 -4.49396,-0.380233 0,0.926313 2.6055,2.756343 3.92435,2.756343 1.4232,0 1.78817,1.650813 0.48215,2.180749 -0.61409,0.24918 -0.57371,0.502517 0.1632,1.023804 1.01832,0.720338 2.73962,0.628298 4.78353,-0.255787 0.79064,-0.341983 1.55345,-0.155644 2.26154,0.552445 0.71877,0.718767 0.80172,1.068497 0.25346,1.068497 -0.48911,0 -0.72896,0.64277 -0.59979,1.60735 0.28133,2.1007 0.90194,2.66287 1.96537,1.7803 0.47404,-0.39342 1.49942,-0.66728 2.27861,-0.60858 1.15999,0.0874 1.3517,0.4072 1.05783,1.7647 -0.65366,3.01954 -0.84964,3.29001 -2.38367,3.29001 -0.83708,0 -1.85814,0.33617 -2.26903,0.74706 -0.54257,0.54258 -1.24838,0.5571 -2.57862,0.0531 -2.989,-1.13255 -5.42205,-1.52045 -5.42205,-0.86442 0,0.33736 0.95475,0.81629 2.12166,1.06432 1.1669,0.248 2.58487,0.85838 3.15105,1.35638 0.87994,0.774 1.474,0.75396 4.09179,-0.13801 3.30391,-1.12575 4.99744,-0.88895 4.99744,0.6988 0,0.69061 -0.65597,1.00279 -2.12164,1.0097 -1.60999,0.008 -1.88551,0.16261 -1.14244,0.64282 0.53858,0.34805 1.81158,0.63732 2.82887,0.64282 2.17616,0.0118 2.08972,1.52763 -0.10553,1.85064 -0.77974,0.11473 -1.41829,0.4085 -1.419,0.65281 -9.9e-4,0.41046 -1.03496,0.60317 -5.15516,0.96102 -0.86128,0.0748 -1.70575,-0.26762 -1.87661,-0.76094 -0.23622,-0.68204 0.25178,-0.83127 2.03688,-0.62288 1.53265,0.17893 2.4602,-0.0196 2.67214,-0.57189 0.22749,-0.5928 -0.35488,-0.84596 -1.94613,-0.84596 -1.43977,0 -2.66772,-0.46362 -3.35553,-1.26692 -0.79614,-0.92982 -1.61951,-1.17575 -3.09448,-0.92425 -1.49946,0.25565 -1.7659,0.17197 -1.04939,-0.32962 0.52817,-0.36976 0.75559,-0.87701 0.50539,-1.12722 -0.58295,-0.58293 -2.44494,0.94261 -2.44494,2.00316 0,0.4436 1.23038,1.06861 2.73417,1.38891 2.34594,0.49967 2.81207,0.88362 3.28275,2.70401 0.30609,1.18383 0.97315,2.12165 1.50913,2.12165 0.5283,0 0.96056,0.44066 0.96056,0.97923 0,1.1222 1.02497,1.30865 1.64844,0.29985 0.23094,-0.37366 0.94122,-0.51391 1.5784,-0.31167 0.64026,0.20321 1.52756,-0.0769 1.98345,-0.62627 0.89065,-1.07316 3.92912,-1.37826 3.92912,-0.39454 0,1.45949 -0.88536,2.66467 -1.95752,2.66467 -1.36722,0 -2.17519,2.50332 -1.5771,4.8863 0.33584,1.33809 0.10139,1.73847 -1.33868,2.28599 -1.3491,0.51293 -1.96862,0.44098 -2.72621,-0.3166 -1.47671,-1.47673 -2.68234,-1.18382 -2.68234,0.65168 0,1.16056 0.35362,1.63203 1.22403,1.63203 1.36361,0 1.51077,0.5046 0.57122,1.95846 -0.54081,0.83684 -0.63427,0.81311 -0.64282,-0.16321 -0.006,-0.7076 -0.51179,-1.14243 -1.32839,-1.14243 -1.04938,0 -1.25812,-0.33243 -1.02297,-1.62916 0.36114,-1.99165 -1.09333,-3.59336 -3.26305,-3.59336 -0.87685,0 -2.10438,-0.27232 -2.72785,-0.60516 -0.62345,-0.33284 -1.64765,-0.76427 -2.27599,-0.95874 -2.25851,-0.69899 -1.20066,-1.84287 1.46884,-1.58829 2.75043,0.2623 3.65706,-0.54358 1.14242,-1.01546 -4.54864,-0.85358 -4.52417,-0.88457 -4.22276,5.34723 0.15097,3.12124 0.4087,6.18743 0.57274,6.81377 0.48042,1.83442 3.17094,5.1335 3.84619,4.71617 0.34093,-0.21069 0.61985,-0.0542 0.61985,0.34767 0,0.44424 -0.94973,0.65131 -2.42227,0.52813 -1.94241,-0.16247 -2.51286,-0.52592 -2.87955,-1.83464 -0.44618,-1.59248 -0.46805,-1.5979 -0.90216,-0.22356 -0.46977,1.48728 -2.68005,2.47054 -3.29972,1.4679 z m -5.83745,-15.60628 c 1.25878,-0.54091 1.2543,-0.5627 -0.12468,-0.60692 -0.78667,-0.0253 -1.61186,0.24787 -1.83377,0.60692 -0.4772,0.77214 0.16159,0.77214 1.95845,0 z m 21.86422,0.16321 c -0.003,-0.26929 -0.73722,-0.82918 -1.63204,-1.24422 -1.73093,-0.80283 -2.13809,-0.34408 -0.84358,0.95045 0.86785,0.86783 2.48358,1.05957 2.47562,0.29377 z m 3.26916,-0.16321 c 0,-0.35905 -0.29376,-0.65281 -0.65281,-0.65281 -0.35905,0 -0.65282,0.29376 -0.65282,0.65281 0,0.35905 0.29377,0.65281 0.65282,0.65281 0.35905,0 0.65281,-0.29376 0.65281,-0.65281 z m -28.07105,-5.2455 c 0,-1.1263 -0.19879,-1.22221 -1.30563,-0.62984 -0.7181,0.38431 -1.30563,0.98218 -1.30563,1.3286 0,0.34641 0.58753,0.62984 1.30563,0.62984 0.87794,0 1.30563,-0.4352 1.30563,-1.3286 z m 22.19572,0.45818 c 0,-0.47873 -0.1933,-1.06371 -0.42954,-1.29996 -0.59036,-0.59036 -2.25387,0.87269 -1.8096,1.59154 0.55627,0.90006 2.23914,0.68093 2.23914,-0.29158 z m -3.9169,-2.02872 c 0,-0.15834 -0.29376,-0.46943 -0.65281,-0.69134 -0.35905,-0.2219 -0.65282,-0.0923 -0.65282,0.28788 0,0.38023 0.29377,0.69135 0.65282,0.69135 0.35905,0 0.65281,-0.12955 0.65281,-0.28789 z m -9.46581,-1.01774 c 0.2219,-0.35905 0.0924,-0.65282 -0.28789,-0.65282 -0.38024,0 -0.69133,0.29377 -0.69133,0.65282 0,0.35905 0.12954,0.65281 0.28787,0.65281 0.15833,0 0.46944,-0.29376 0.69135,-0.65281 z m -5.0552,-0.81602 c -0.31814,-0.96915 -4.41063,-1.51229 -4.41063,-0.58538 0,0.78957 1.15116,1.28204 3.15527,1.34986 0.94165,0.0319 1.42096,-0.26004 1.25536,-0.76448 z m -1.3976,-4.34916 1.58693,-1.24827 -2.78959,0.18478 c -1.53428,0.10163 -3.30369,0.2227 -3.93202,0.26905 -1.96376,0.14486 -1.24713,1.29418 0.97923,1.57048 1.1669,0.14481 2.2222,0.31031 2.34509,0.36777 0.12289,0.0574 0.93755,-0.45726 1.81036,-1.14381 z m 4.82075,-4.62705 c 0,-0.35906 -0.12954,-0.65282 -0.28788,-0.65282 -0.15832,0 -0.46943,0.29376 -0.69133,0.65282 -0.2219,0.35905 -0.0924,0.65281 0.28787,0.65281 0.38024,0 0.69134,-0.29376 0.69134,-0.65281 z m 15.46203,-1.5525 c -0.18989,-0.49482 -0.0488,-1.19608 0.31343,-1.55835 1.0558,-1.0558 -0.42307,-1.52327 -1.74982,-0.55313 -1.37906,1.0084 -0.90546,3.01116 0.71207,3.01116 0.64048,0 0.93105,-0.36093 0.72432,-0.89968 z m -3.71135,-0.36743 c 0,-1.01285 -1.30732,-1.50246 -2.15025,-0.8053 -0.43307,0.35818 -1.66872,0.78011 -2.74587,0.9376 -1.2648,0.18495 -0.74457,0.32101 1.46884,0.38419 1.885,0.0538 3.42728,-0.17862 3.42728,-0.51649 z m -4.5697,-4.608224 c 0,-0.359049 -0.12955,-0.652816 -0.28788,-0.652816 -0.15834,0 -0.46945,0.293767 -0.69135,0.652816 -0.2219,0.359047 -0.0924,0.652814 0.28788,0.652814 0.38024,0 0.69135,-0.293767 0.69135,-0.652814 z m 1.30563,-9.139413 c 0,-0.359049 -0.458,-0.652815 -1.01775,-0.652815 -0.55977,0 -0.8362,0.293766 -0.6143,0.652815 0.22191,0.359048 0.6799,0.652815 1.01775,0.652815 0.33786,0 0.6143,-0.293767 0.6143,-0.652815 z m 16.97319,37.210477 c 0,-0.35905 0.458,-0.65282 1.01775,-0.65282 0.55976,0 0.83619,0.29377 0.6143,0.65282 -0.22192,0.35905 -0.6799,0.65281 -1.01775,0.65281 -0.33786,0 -0.6143,-0.29376 -0.6143,-0.65281 z m 1.30563,-2.28486 c 0,-0.53857 0.28455,-0.97923 0.63232,-0.97923 0.34779,0 0.46324,0.44066 0.25657,0.97923 -0.20668,0.53857 -0.49121,0.97923 -0.63233,0.97923 -0.14111,0 -0.25656,-0.44066 -0.25656,-0.97923 z m -39.36969,-22.10374 c -0.1989,-0.51832 -0.0147,-0.8915 0.40918,-0.82928 0.97751,0.14347 1.39795,1.28988 0.5738,1.56459 -0.34173,0.11391 -0.78407,-0.21698 -0.98298,-0.73531 z m 4.14884,-4.955017 c -0.52144,-0.32986 -1.17046,-0.462291 -1.44228,-0.294295 -0.54682,0.337949 -3.1586,-1.121067 -3.1586,-1.764495 0,-0.911505 3.55497,0.06803 4.81317,1.326214 1.43447,1.434476 1.35125,1.721682 -0.21229,0.732576 z"
     style="opacity:0.9;fill:#a51c1c;fill-opacity:1;stroke:#000000;stroke-opacity:1;filter:url(#filter4791)"
     sodipodi:nodetypes="ssssssssssscssssssssssscssssssssccssssccssssscsssscsscscssssssssssscssssscssssssssssssssssssssssssssssssssssssssssssssssssssssscssscssssssssssssssssssssscsssssssssssssssscsscsscssssssssssssssssssssssssssssscssscsssssssssssssssssssssssssssssssssssssscssssss"
     clip-path="url(#clipPath4867)"
     transform="matrix(0.96152221,0,0,0.96152221,-75.898514,-7.2977657)" />
</svg>
