<?xml version="1.0" encoding="UTF-8" standalone="no"?>
<!-- Created with Inkscape (http://www.inkscape.org/) -->

<svg
   xmlns:dc="http://purl.org/dc/elements/1.1/"
   xmlns:cc="http://creativecommons.org/ns#"
   xmlns:rdf="http://www.w3.org/1999/02/22-rdf-syntax-ns#"
   xmlns:svg="http://www.w3.org/2000/svg"
   xmlns="http://www.w3.org/2000/svg"
   xmlns:sodipodi="http://sodipodi.sourceforge.net/DTD/sodipodi-0.dtd"
   xmlns:inkscape="http://www.inkscape.org/namespaces/inkscape"
   id="svg4196"
   version="1.1"
   inkscape:version="0.91 r13725"
   width="232.51086"
   height="98.691597"
   viewBox="0 0 232.51086 98.691597"
   sodipodi:docname="navbarlogo.svg">
  <metadata
     id="metadata4202">
    <rdf:RDF>
      <cc:Work
         rdf:about="">
        <dc:format>image/svg+xml</dc:format>
        <dc:type
           rdf:resource="http://purl.org/dc/dcmitype/StillImage" />
        <dc:title />
      </cc:Work>
    </rdf:RDF>
  </metadata>
  <defs
     id="defs4200">
    <filter
       style="color-interpolation-filters:sRGB"
       inkscape:label="Drop Shadow"
       id="filter4683">
      <feFlood
         flood-opacity="0.498039"
         flood-color="rgb(66,66,66)"
         result="flood"
         id="feFlood4685" />
      <feComposite
         in="flood"
         in2="SourceGraphic"
         operator="out"
         result="composite1"
         id="feComposite4687" />
      <feGaussianBlur
         in="composite1"
         stdDeviation="0"
         result="blur"
         id="feGaussianBlur4689" />
      <feOffset
         dx="-3.5"
         dy="6"
         result="offset"
         id="feOffset4691" />
      <feComposite
         in="offset"
         in2="SourceGraphic"
         operator="atop"
         result="composite2"
         id="feComposite4693" />
    </filter>
    <filter
       style="color-interpolation-filters:sRGB"
       inkscape:label="Drop Shadow"
       id="filter4767">
      <feFlood
         flood-opacity="0.498039"
         flood-color="rgb(66,66,66)"
         result="flood"
         id="feFlood4769" />
      <feComposite
         in="flood"
         in2="SourceGraphic"
         operator="out"
         result="composite1"
         id="feComposite4771" />
      <feGaussianBlur
         in="composite1"
         stdDeviation="0"
         result="blur"
         id="feGaussianBlur4773" />
      <feOffset
         dx="-4.4"
         dy="6"
         result="offset"
         id="feOffset4775" />
      <feComposite
         in="offset"
         in2="SourceGraphic"
         operator="atop"
         result="composite2"
         id="feComposite4777" />
    </filter>
    <filter
       style="color-interpolation-filters:sRGB"
       inkscape:label="Drop Shadow"
       id="filter4779">
      <feFlood
         flood-opacity="0.498039"
         flood-color="rgb(66,66,66)"
         result="flood"
         id="feFlood4781" />
      <feComposite
         in="flood"
         in2="SourceGraphic"
         operator="out"
         result="composite1"
         id="feComposite4783" />
      <feGaussianBlur
         in="composite1"
         stdDeviation="0"
         result="blur"
         id="feGaussianBlur4785" />
      <feOffset
         dx="-4.4"
         dy="6"
         result="offset"
         id="feOffset4787" />
      <feComposite
         in="offset"
         in2="SourceGraphic"
         operator="atop"
         result="composite2"
         id="feComposite4789" />
    </filter>
    <filter
       style="color-interpolation-filters:sRGB"
       inkscape:label="Drop Shadow"
       id="filter4791">
      <feFlood
         flood-opacity="0.498039"
         flood-color="rgb(66,66,66)"
         result="flood"
         id="feFlood4793" />
      <feComposite
         in="flood"
         in2="SourceGraphic"
         operator="out"
         result="composite1"
         id="feComposite4795" />
      <feGaussianBlur
         in="composite1"
         stdDeviation="0"
         result="blur"
         id="feGaussianBlur4797" />
      <feOffset
         dx="-4.4"
         dy="6"
         result="offset"
         id="feOffset4799" />
      <feComposite
         in="offset"
         in2="SourceGraphic"
         operator="atop"
         result="composite2"
         id="feComposite4801" />
    </filter>
    <clipPath
       clipPathUnits="userSpaceOnUse"
       id="clipPath4805">
      <rect
         style="opacity:1;fill:#aeaeae;fill-opacity:1;stroke:#000000;stroke-width:0.69999999;stroke-linejoin:miter;stroke-miterlimit:4;stroke-dasharray:none;stroke-opacity:1"
         id="rect4807"
         width="813.63635"
         height="180"
         x="80"
         y="-6.046555" />
    </clipPath>
    <clipPath
       clipPathUnits="userSpaceOnUse"
       id="clipPath4809">
      <rect
         style="opacity:1;fill:#aeaeae;fill-opacity:1;stroke:#000000;stroke-width:0.69999999;stroke-linejoin:miter;stroke-miterlimit:4;stroke-dasharray:none;stroke-opacity:1"
         id="rect4811"
         width="813.63635"
         height="180"
         x="80"
         y="-6.046555" />
    </clipPath>
    <clipPath
       clipPathUnits="userSpaceOnUse"
       id="clipPath4813">
      <rect
         style="opacity:1;fill:#aeaeae;fill-opacity:1;stroke:#000000;stroke-width:0.69999999;stroke-linejoin:miter;stroke-miterlimit:4;stroke-dasharray:none;stroke-opacity:1"
         id="rect4815"
         width="813.63635"
         height="180"
         x="80"
         y="-6.046555" />
    </clipPath>
    <clipPath
       clipPathUnits="userSpaceOnUse"
       id="clipPath4817">
      <rect
         style="opacity:1;fill:#aeaeae;fill-opacity:1;stroke:#000000;stroke-width:0.69999999;stroke-linejoin:miter;stroke-miterlimit:4;stroke-dasharray:none;stroke-opacity:1"
         id="rect4819"
         width="813.63635"
         height="180"
         x="80"
         y="-6.046555" />
    </clipPath>
    <clipPath
       clipPathUnits="userSpaceOnUse"
       id="clipPath4823">
      <rect
         style="opacity:1;fill:#aeaeae;fill-opacity:1;stroke:#000000;stroke-width:0.69999999;stroke-linejoin:miter;stroke-miterlimit:4;stroke-dasharray:none;stroke-opacity:1"
         id="rect4825"
         width="817.27271"
         height="100.90909"
         x="70.909088"
         y="6.6807165" />
    </clipPath>
    <clipPath
       clipPathUnits="userSpaceOnUse"
       id="clipPath4827">
      <rect
         style="opacity:1;fill:#aeaeae;fill-opacity:1;stroke:#000000;stroke-width:0.69999999;stroke-linejoin:miter;stroke-miterlimit:4;stroke-dasharray:none;stroke-opacity:1"
         id="rect4829"
         width="817.27271"
         height="100.90909"
         x="70.909088"
         y="6.6807165" />
    </clipPath>
    <clipPath
       clipPathUnits="userSpaceOnUse"
       id="clipPath4831">
      <rect
         style="opacity:1;fill:#aeaeae;fill-opacity:1;stroke:#000000;stroke-width:0.69999999;stroke-linejoin:miter;stroke-miterlimit:4;stroke-dasharray:none;stroke-opacity:1"
         id="rect4833"
         width="817.27271"
         height="100.90909"
         x="70.909088"
         y="6.6807165" />
    </clipPath>
    <clipPath
       clipPathUnits="userSpaceOnUse"
       id="clipPath4835">
      <rect
         style="opacity:1;fill:#aeaeae;fill-opacity:1;stroke:#000000;stroke-width:0.69999999;stroke-linejoin:miter;stroke-miterlimit:4;stroke-dasharray:none;stroke-opacity:1"
         id="rect4837"
         width="817.27271"
         height="100.90909"
         x="70.909088"
         y="6.6807165" />
    </clipPath>
    <clipPath
       clipPathUnits="userSpaceOnUse"
       id="clipPath4867">
      <rect
         style="opacity:1;fill:#aeaeae;fill-opacity:1;stroke:#000000;stroke-width:0.69999999;stroke-linejoin:miter;stroke-miterlimit:4;stroke-dasharray:none;stroke-opacity:1"
         id="rect4869"
         width="809.09088"
         height="101.81818"
         x="79.090904"
         y="7.5898046" />
    </clipPath>
    <clipPath
       clipPathUnits="userSpaceOnUse"
       id="clipPath4871">
      <rect
         style="opacity:1;fill:#aeaeae;fill-opacity:1;stroke:#000000;stroke-width:0.69999999;stroke-linejoin:miter;stroke-miterlimit:4;stroke-dasharray:none;stroke-opacity:1"
         id="rect4873"
         width="809.09088"
         height="101.81818"
         x="79.090904"
         y="7.5898046" />
    </clipPath>
    <clipPath
       clipPathUnits="userSpaceOnUse"
       id="clipPath4875">
      <rect
         style="opacity:1;fill:#aeaeae;fill-opacity:1;stroke:#000000;stroke-width:0.69999999;stroke-linejoin:miter;stroke-miterlimit:4;stroke-dasharray:none;stroke-opacity:1"
         id="rect4877"
         width="809.09088"
         height="101.81818"
         x="79.090904"
         y="7.5898046" />
    </clipPath>
    <clipPath
       clipPathUnits="userSpaceOnUse"
       id="clipPath4879">
      <rect
         style="opacity:1;fill:#aeaeae;fill-opacity:1;stroke:#000000;stroke-width:0.69999999;stroke-linejoin:miter;stroke-miterlimit:4;stroke-dasharray:none;stroke-opacity:1"
         id="rect4881"
         width="809.09088"
         height="101.81818"
         x="79.090904"
         y="7.5898046" />
    </clipPath>
    <clipPath
       clipPathUnits="userSpaceOnUse"
       id="clipPath4212">
      <g
         id="g4214"
         transform="matrix(1.0400176,0,0,1.0400176,78.935789,7.5898046)">
        <rect
           y="-84.545456"
           x="-46.363636"
           height="95.454544"
           width="872.72729"
           id="rect4216"
           style="opacity:0.9;fill:#000000;fill-opacity:1;stroke:#000000;stroke-width:1.8009311;stroke-linejoin:miter;stroke-miterlimit:4;stroke-dasharray:none;stroke-opacity:1" />
        <rect
           y="-147.27272"
           x="-63.636364"
           height="297.27274"
           width="279.09091"
           id="rect4218"
           style="opacity:0.9;fill:#000000;fill-opacity:1;stroke:#000000;stroke-width:1.8009311;stroke-linejoin:miter;stroke-miterlimit:4;stroke-dasharray:none;stroke-opacity:1" />
      </g>
    </clipPath>
    <clipPath
       clipPathUnits="userSpaceOnUse"
       id="clipPath4220">
      <g
         id="g4222"
         transform="matrix(1.0181835,0,0,1.0181835,79.090904,7.5896283)">
        <rect
           y="-84.545456"
           x="-46.363636"
           height="95.454544"
           width="872.72729"
           id="rect4224"
           style="opacity:0.9;fill:#000000;fill-opacity:1;stroke:#000000;stroke-width:1.8395505;stroke-linejoin:miter;stroke-miterlimit:4;stroke-dasharray:none;stroke-opacity:1" />
        <rect
           y="-147.27272"
           x="-63.636364"
           height="297.27274"
           width="279.09091"
           id="rect4226"
           style="opacity:0.9;fill:#000000;fill-opacity:1;stroke:#000000;stroke-width:1.8395505;stroke-linejoin:miter;stroke-miterlimit:4;stroke-dasharray:none;stroke-opacity:1" />
      </g>
    </clipPath>
    <filter
       id="filter4683-0"
       inkscape:label="Drop Shadow"
       style="color-interpolation-filters:sRGB">
      <feFlood
         id="feFlood4685-1"
         result="flood"
         flood-color="rgb(66,66,66)"
         flood-opacity="0.498039" />
      <feComposite
         id="feComposite4687-5"
         result="composite1"
         operator="out"
         in2="SourceGraphic"
         in="flood" />
      <feGaussianBlur
         id="feGaussianBlur4689-1"
         result="blur"
         stdDeviation="0"
         in="composite1" />
      <feOffset
         id="feOffset4691-4"
         result="offset"
         dy="6"
         dx="-3.5" />
      <feComposite
         id="feComposite4693-3"
         result="composite2"
         operator="atop"
         in2="SourceGraphic"
         in="offset" />
    </filter>
    <filter
       id="filter4767-6"
       inkscape:label="Drop Shadow"
       style="color-interpolation-filters:sRGB">
      <feFlood
         id="feFlood4769-6"
         result="flood"
         flood-color="rgb(66,66,66)"
         flood-opacity="0.498039" />
      <feComposite
         id="feComposite4771-5"
         result="composite1"
         operator="out"
         in2="SourceGraphic"
         in="flood" />
      <feGaussianBlur
         id="feGaussianBlur4773-3"
         result="blur"
         stdDeviation="0"
         in="composite1" />
      <feOffset
         id="feOffset4775-1"
         result="offset"
         dy="6"
         dx="-4.4" />
      <feComposite
         id="feComposite4777-2"
         result="composite2"
         operator="atop"
         in2="SourceGraphic"
         in="offset" />
    </filter>
    <filter
       id="filter4779-6"
       inkscape:label="Drop Shadow"
       style="color-interpolation-filters:sRGB">
      <feFlood
         id="feFlood4781-8"
         result="flood"
         flood-color="rgb(66,66,66)"
         flood-opacity="0.498039" />
      <feComposite
         id="feComposite4783-6"
         result="composite1"
         operator="out"
         in2="SourceGraphic"
         in="flood" />
      <feGaussianBlur
         id="feGaussianBlur4785-7"
         result="blur"
         stdDeviation="0"
         in="composite1" />
      <feOffset
         id="feOffset4787-4"
         result="offset"
         dy="6"
         dx="-4.4" />
      <feComposite
         id="feComposite4789-4"
         result="composite2"
         operator="atop"
         in2="SourceGraphic"
         in="offset" />
    </filter>
    <filter
       id="filter4791-0"
       inkscape:label="Drop Shadow"
       style="color-interpolation-filters:sRGB">
      <feFlood
         id="feFlood4793-5"
         result="flood"
         flood-color="rgb(66,66,66)"
         flood-opacity="0.498039" />
      <feComposite
         id="feComposite4795-8"
         result="composite1"
         operator="out"
         in2="SourceGraphic"
         in="flood" />
      <feGaussianBlur
         id="feGaussianBlur4797-0"
         result="blur"
         stdDeviation="0"
         in="composite1" />
      <feOffset
         id="feOffset4799-8"
         result="offset"
         dy="6"
         dx="-4.4" />
      <feComposite
         id="feComposite4801-5"
         result="composite2"
         operator="atop"
         in2="SourceGraphic"
         in="offset" />
    </filter>
    <clipPath
       id="clipPath4805-4"
       clipPathUnits="userSpaceOnUse">
      <rect
         y="-6.046555"
         x="80"
         height="180"
         width="813.63635"
         id="rect4807-6"
         style="opacity:1;fill:#aeaeae;fill-opacity:1;stroke:#000000;stroke-width:0.69999999;stroke-linejoin:miter;stroke-miterlimit:4;stroke-dasharray:none;stroke-opacity:1" />
    </clipPath>
    <clipPath
       id="clipPath4809-2"
       clipPathUnits="userSpaceOnUse">
      <rect
         y="-6.046555"
         x="80"
         height="180"
         width="813.63635"
         id="rect4811-2"
         style="opacity:1;fill:#aeaeae;fill-opacity:1;stroke:#000000;stroke-width:0.69999999;stroke-linejoin:miter;stroke-miterlimit:4;stroke-dasharray:none;stroke-opacity:1" />
    </clipPath>
    <clipPath
       id="clipPath4813-2"
       clipPathUnits="userSpaceOnUse">
      <rect
         y="-6.046555"
         x="80"
         height="180"
         width="813.63635"
         id="rect4815-4"
         style="opacity:1;fill:#aeaeae;fill-opacity:1;stroke:#000000;stroke-width:0.69999999;stroke-linejoin:miter;stroke-miterlimit:4;stroke-dasharray:none;stroke-opacity:1" />
    </clipPath>
    <clipPath
       id="clipPath4817-8"
       clipPathUnits="userSpaceOnUse">
      <rect
         y="-6.046555"
         x="80"
         height="180"
         width="813.63635"
         id="rect4819-1"
         style="opacity:1;fill:#aeaeae;fill-opacity:1;stroke:#000000;stroke-width:0.69999999;stroke-linejoin:miter;stroke-miterlimit:4;stroke-dasharray:none;stroke-opacity:1" />
    </clipPath>
    <clipPath
       id="clipPath4823-4"
       clipPathUnits="userSpaceOnUse">
      <rect
         y="6.6807165"
         x="70.909088"
         height="100.90909"
         width="817.27271"
         id="rect4825-0"
         style="opacity:1;fill:#aeaeae;fill-opacity:1;stroke:#000000;stroke-width:0.69999999;stroke-linejoin:miter;stroke-miterlimit:4;stroke-dasharray:none;stroke-opacity:1" />
    </clipPath>
    <clipPath
       id="clipPath4827-5"
       clipPathUnits="userSpaceOnUse">
      <rect
         y="6.6807165"
         x="70.909088"
         height="100.90909"
         width="817.27271"
         id="rect4829-5"
         style="opacity:1;fill:#aeaeae;fill-opacity:1;stroke:#000000;stroke-width:0.69999999;stroke-linejoin:miter;stroke-miterlimit:4;stroke-dasharray:none;stroke-opacity:1" />
    </clipPath>
    <clipPath
       id="clipPath4831-7"
       clipPathUnits="userSpaceOnUse">
      <rect
         y="6.6807165"
         x="70.909088"
         height="100.90909"
         width="817.27271"
         id="rect4833-3"
         style="opacity:1;fill:#aeaeae;fill-opacity:1;stroke:#000000;stroke-width:0.69999999;stroke-linejoin:miter;stroke-miterlimit:4;stroke-dasharray:none;stroke-opacity:1" />
    </clipPath>
    <clipPath
       id="clipPath4835-7"
       clipPathUnits="userSpaceOnUse">
      <rect
         y="6.6807165"
         x="70.909088"
         height="100.90909"
         width="817.27271"
         id="rect4837-7"
         style="opacity:1;fill:#aeaeae;fill-opacity:1;stroke:#000000;stroke-width:0.69999999;stroke-linejoin:miter;stroke-miterlimit:4;stroke-dasharray:none;stroke-opacity:1" />
    </clipPath>
    <clipPath
       id="clipPath4867-7"
       clipPathUnits="userSpaceOnUse">
      <rect
         y="7.5898046"
         x="79.090904"
         height="101.81818"
         width="809.09088"
         id="rect4869-2"
         style="opacity:1;fill:#aeaeae;fill-opacity:1;stroke:#000000;stroke-width:0.69999999;stroke-linejoin:miter;stroke-miterlimit:4;stroke-dasharray:none;stroke-opacity:1" />
    </clipPath>
    <clipPath
       id="clipPath4871-6"
       clipPathUnits="userSpaceOnUse">
      <rect
         y="7.5898046"
         x="79.090904"
         height="101.81818"
         width="809.09088"
         id="rect4873-8"
         style="opacity:1;fill:#aeaeae;fill-opacity:1;stroke:#000000;stroke-width:0.69999999;stroke-linejoin:miter;stroke-miterlimit:4;stroke-dasharray:none;stroke-opacity:1" />
    </clipPath>
    <clipPath
       id="clipPath4875-6"
       clipPathUnits="userSpaceOnUse">
      <rect
         y="7.5898046"
         x="79.090904"
         height="101.81818"
         width="809.09088"
         id="rect4877-9"
         style="opacity:1;fill:#aeaeae;fill-opacity:1;stroke:#000000;stroke-width:0.69999999;stroke-linejoin:miter;stroke-miterlimit:4;stroke-dasharray:none;stroke-opacity:1" />
    </clipPath>
    <clipPath
       id="clipPath4879-8"
       clipPathUnits="userSpaceOnUse">
      <rect
         y="7.5898046"
         x="79.090904"
         height="101.81818"
         width="809.09088"
         id="rect4881-1"
         style="opacity:1;fill:#aeaeae;fill-opacity:1;stroke:#000000;stroke-width:0.69999999;stroke-linejoin:miter;stroke-miterlimit:4;stroke-dasharray:none;stroke-opacity:1" />
    </clipPath>
    <clipPath
       clipPathUnits="userSpaceOnUse"
       id="clipPath4311">
      <rect
         style="opacity:1;fill:none;fill-opacity:1;stroke:#a51c1c;stroke-width:1.87300014;stroke-linejoin:miter;stroke-miterlimit:4;stroke-dasharray:none;stroke-opacity:1"
         id="rect4313"
         width="179.68468"
         height="77.034309"
         x="446.20511"
         y="19.93885" />
    </clipPath>
    <clipPath
       clipPathUnits="userSpaceOnUse"
       id="clipPath4315">
      <rect
         style="opacity:1;fill:none;fill-opacity:1;stroke:#a51c1c;stroke-width:1.87300003;stroke-linejoin:miter;stroke-miterlimit:4;stroke-dasharray:none;stroke-opacity:1"
         id="rect4317"
         width="242.04047"
         height="102.11082"
         x="158.96985"
         y="1.337728" />
    </clipPath>
  </defs>
  <sodipodi:namedview
     pagecolor="#ffffff"
     bordercolor="#666666"
     borderopacity="1"
     objecttolerance="10"
     gridtolerance="10"
     guidetolerance="10"
     inkscape:pageopacity="0"
     inkscape:pageshadow="2"
     inkscape:window-width="1440"
     inkscape:window-height="856"
     id="namedview4198"
     showgrid="false"
     inkscape:zoom="2.2"
     inkscape:cx="157.70477"
     inkscape:cy="27.738956"
     inkscape:window-x="0"
     inkscape:window-y="0"
     inkscape:window-maximized="0"
     inkscape:current-layer="g4304"
     fit-margin-top="0"
     fit-margin-left="0"
     fit-margin-right="0"
     fit-margin-bottom="0"
     showguides="false" />
  <g
     id="g4407"
     transform="translate(-52.275278,180.79402)">
    <g
       id="g4250">
      <g
         id="g4282">
        <g
           id="g4304">
          <path
             transform="matrix(0.96152221,0,0,0.96152221,-100.57776,-182.02504)"
             clip-path="url(#clipPath4315)"
             sodipodi:nodetypes="ssssssssssscssssssssssscssssssssccssssccssssscsssscsscscssssssssssscssssscssssssssssssssssssssssssssssssssssssssssssssssssssssscssscssssssssssssssssssssscsssssssssssssssscsscsscssssssssssssssssssssssssssssscssscsssssssssssssssssssssssssssssssssssssscssssss"
             style="opacity:1;fill:#a51c1c;fill-opacity:1;stroke:#a51c1c;stroke-opacity:1;filter:url(#filter4791)"
             d="m 207.30673,85.883896 c -0.20106,-0.32533 0.0606,-0.59152 0.5814,-0.59152 1.37815,0 1.86598,-2.80151 1.36794,-7.8558 -0.36979,-3.75281 -0.64703,-4.49156 -1.79862,-4.79269 -1.45831,-0.38136 -2.59387,0.23652 -1.29194,0.70295 1.0314,0.36951 0.31763,2.15331 -0.86162,2.15331 -0.65729,0 -0.80427,-0.46834 -0.5122,-1.63204 0.3585,-1.42842 0.19715,-1.63205 -1.29319,-1.63205 -1.03407,0 -1.70281,0.3633 -1.70281,0.92504 0,0.6584 -0.66576,0.87221 -2.30971,0.74177 -1.69756,-0.13468 -2.99039,0.30982 -4.878,1.6772 l -2.56832,1.86048 0.74076,-1.62577 c 0.91404,-2.00609 0.41588,-2.60803 -1.36821,-1.65322 -1.2033,0.64399 -1.34157,0.5528 -1.22875,-0.81042 0.0965,-1.16568 0.44929,-1.47611 1.46318,-1.28743 0.73482,0.13674 1.92357,-0.18821 2.64167,-0.72212 1.40834,-1.04709 1.51411,-0.93783 -1.95844,-2.02271 -1.79257,-0.56001 -1.00964,-1.54342 0.97921,-1.22997 1.38671,0.21855 1.95846,0.0431 1.95846,-0.60096 0,-1.30505 -0.74317,-1.86405 -1.57198,-1.18243 -0.8439,0.69401 -5.37129,1.16333 -5.92086,0.61376 -0.64408,-0.64407 -0.96313,-3.22793 -0.35194,-2.85019 0.31548,0.19496 0.75811,0.0559 0.98363,-0.30898 0.22553,-0.3649 0.8507,-0.66346 1.38927,-0.66346 0.53857,0 0.80715,0.2784 0.59684,0.61868 -0.21936,0.35495 0.25122,0.46796 1.1039,0.26511 0.81746,-0.19447 1.99983,-0.34431 2.6275,-0.33294 0.62768,0.0114 1.44587,-0.5486 1.81821,-1.24433 0.55542,-1.03781 0.46186,-1.26496 -0.52104,-1.26496 -0.65893,0 -1.47712,-0.26902 -1.81821,-0.59781 -0.87288,-0.84139 -4.34736,-1.09857 -5.51669,-0.40835 -0.5653,0.33368 -0.42723,-0.0615 0.3268,-0.93546 0.93198,-1.08014 1.0721,-1.59489 0.48961,-1.79865 -0.4488,-0.15698 -0.81602,-0.55472 -0.81602,-0.88385 0,-0.9531 1.95688,-0.69324 3.05594,0.40583 0.90377,0.90377 1.1484,0.85479 2.4452,-0.48962 0.79254,-0.82161 1.30244,-1.75955 1.13313,-2.08432 -0.16932,-0.32476 -0.002,-0.40144 0.37187,-0.17038 0.37384,0.23103 1.02706,9.9e-4 1.4516,-0.50999 0.42454,-0.51155 1.64845,-1.1226 2.71981,-1.35791 2.6506,-0.58218 2.02105,-1.86818 -1.10994,-2.26735 -2.12846,-0.27137 -2.59708,-0.60164 -2.77871,-1.95845 -0.1766,-1.31914 -0.0577,-1.475589 0.62017,-0.81602 1.21818,1.1853 5.90027,0.99959 7.76724,-0.308079 l 1.60487,-1.124097 -2.60205,-0.756104 c -1.43112,-0.415856 -2.5286,-1.085083 -2.43884,-1.487166 0.0897,-0.402081 -0.29478,-0.731054 -0.85455,-0.731054 -0.55976,0 -0.83323,-0.298559 -0.6077,-0.663463 0.22552,-0.36491 0.66877,-0.503563 0.985,-0.308129 0.80537,0.497752 2.12721,-2.184489 1.66726,-3.38313 -0.24369,-0.635032 0.0885,-1.110993 0.92895,-1.330756 1.4183,-0.370897 1.8267,-2.150368 0.4923,-2.145066 -0.4488,0.002 -1.69731,0.725637 -2.77446,1.608562 -1.50282,1.231849 -1.69267,1.610782 -0.81602,1.628794 1.14553,0.02357 1.6754,1.981927 0.53624,1.981927 -0.3334,0 -1.04683,-0.44065 -1.58541,-0.979223 -0.53857,-0.538572 -1.42352,-0.979222 -1.96655,-0.979222 -0.54303,0 -1.16888,-0.293767 -1.39079,-0.652816 -0.2219,-0.359049 0.064,-0.652815 0.63533,-0.652815 1.57568,0 2.36568,-2.743234 1.06937,-3.713298 -0.84828,-0.634772 -0.2047,-0.745449 3.32483,-0.57178 3.72578,0.183323 4.24246,0.08108 3.47392,-0.687454 -0.49655,-0.496545 -1.18421,-0.902805 -1.52816,-0.902805 -0.34394,0 -0.77587,-0.954742 -0.95983,-2.121649 -0.25854,-1.63997 -0.016,-2.377723 1.06833,-3.249565 0.77155,-0.62035 1.91691,-1.134443 2.54524,-1.142426 0.62833,-0.008 1.14242,-0.29094 1.14242,-0.628804 0,-0.944703 -1.1646,-1.447664 -1.62545,-0.701985 -0.22552,0.364903 -0.73768,0.663462 -1.13813,0.663462 -0.40045,0 -0.0236,-0.749889 0.83745,-1.666422 1.32006,-1.405152 1.41467,-1.761818 0.60339,-2.274858 -0.86702,-0.548301 -0.44326,-0.90727 0.83314,-0.705733 0.26928,0.0425 0.4896,-0.363344 0.4896,-0.901918 0,-0.538573 -0.3672,-0.990985 -0.81601,-1.00536 -0.44881,-0.01437 -0.0106,-0.463134 0.97382,-0.997241 1.52359,-0.826646 1.77471,-1.357115 1.68815,-3.566062 -0.0559,-1.42723 0.0934,-2.790033 0.33181,-3.0284548 0.23843,-0.238421 0.44327,0.2764438 0.45521,1.1441428 0.026,1.890307 1.89143,4.281287 3.9991,5.125847 1.5107,0.605352 1.50766,0.612802 -0.26712,0.65371 -1.10646,0.02551 -1.79525,0.401333 -1.79525,0.979559 0,0.71422 0.56635,0.846275 2.37247,0.553182 1.79154,-0.290727 2.30239,-0.174759 2.08626,0.473616 -0.15741,0.472238 -0.81129,0.935679 -1.45306,1.029873 -2.51041,0.368449 -1.99016,2.227673 0.62334,2.227673 1.67093,0 2.17698,0.9781 0.77749,1.502722 -0.56894,0.213281 -0.43449,0.599043 0.44407,1.2741 1.23602,0.949722 1.23291,0.982741 -0.16321,1.729921 -1.70614,0.913099 -1.88095,2.150033 -0.28086,1.987267 2.68588,-0.27321 3.56753,0.03271 3.15938,1.096305 -0.24095,0.627923 0.0472,1.394772 0.70501,1.875721 1.02177,0.747141 0.9935,0.851357 -0.34639,1.276626 -0.85263,0.270612 -1.85295,0.136118 -2.40689,-0.32362 -1.26864,-1.052873 -1.20376,0.02298 0.11491,1.905678 0.7471,1.066635 1.20723,1.283683 1.54902,0.73067 0.34723,-0.561826 0.84131,-0.596653 1.72851,-0.121842 0.76808,0.411066 1.64805,0.437798 2.30521,0.07003 0.93268,-0.521951 0.97061,-0.395808 0.30956,1.029484 -0.48608,1.048023 -1.2938,1.626123 -2.2766,1.629414 -3.06486,0.01025 -0.95163,1.640412 2.55314,1.969523 2.87117,0.269613 3.25426,0.434631 2.02813,0.87361 -2.62053,0.938207 -5.94913,0.942345 -6.72426,0.0084 -0.77647,-0.935589 -4.49396,-1.250128 -4.49396,-0.380233 0,0.926313 2.6055,2.756343 3.92435,2.756343 1.4232,0 1.78817,1.650813 0.48215,2.180749 -0.61409,0.24918 -0.57371,0.502517 0.1632,1.023804 1.01832,0.720338 2.73962,0.628298 4.78353,-0.255787 0.79064,-0.341983 1.55345,-0.155644 2.26154,0.552445 0.71877,0.718767 0.80172,1.068497 0.25346,1.068497 -0.48911,0 -0.72896,0.64277 -0.59979,1.60735 0.28133,2.1007 0.90194,2.66287 1.96537,1.7803 0.47404,-0.39342 1.49942,-0.66728 2.27861,-0.60858 1.15999,0.0874 1.3517,0.4072 1.05783,1.7647 -0.65366,3.01954 -0.84964,3.29001 -2.38367,3.29001 -0.83708,0 -1.85814,0.33617 -2.26903,0.74706 -0.54257,0.54258 -1.24838,0.5571 -2.57862,0.0531 -2.989,-1.13255 -5.42205,-1.52045 -5.42205,-0.86442 0,0.33736 0.95475,0.81629 2.12166,1.06432 1.1669,0.248 2.58487,0.85838 3.15105,1.35638 0.87994,0.774 1.474,0.75396 4.09179,-0.13801 3.30391,-1.12575 4.99744,-0.88895 4.99744,0.6988 0,0.69061 -0.65597,1.00279 -2.12164,1.0097 -1.60999,0.008 -1.88551,0.16261 -1.14244,0.64282 0.53858,0.34805 1.81158,0.63732 2.82887,0.64282 2.17616,0.0118 2.08972,1.52763 -0.10553,1.85064 -0.77974,0.11473 -1.41829,0.4085 -1.419,0.65281 -9.9e-4,0.41046 -1.03496,0.60317 -5.15516,0.96102 -0.86128,0.0748 -1.70575,-0.26762 -1.87661,-0.76094 -0.23622,-0.68204 0.25178,-0.83127 2.03688,-0.62288 1.53265,0.17893 2.4602,-0.0196 2.67214,-0.57189 0.22749,-0.5928 -0.35488,-0.84596 -1.94613,-0.84596 -1.43977,0 -2.66772,-0.46362 -3.35553,-1.26692 -0.79614,-0.92982 -1.61951,-1.17575 -3.09448,-0.92425 -1.49946,0.25565 -1.7659,0.17197 -1.04939,-0.32962 0.52817,-0.36976 0.75559,-0.87701 0.50539,-1.12722 -0.58295,-0.58293 -2.44494,0.94261 -2.44494,2.00316 0,0.4436 1.23038,1.06861 2.73417,1.38891 2.34594,0.49967 2.81207,0.88362 3.28275,2.70401 0.30609,1.18383 0.97315,2.12165 1.50913,2.12165 0.5283,0 0.96056,0.44066 0.96056,0.97923 0,1.1222 1.02497,1.30865 1.64844,0.29985 0.23094,-0.37366 0.94122,-0.51391 1.5784,-0.31167 0.64026,0.20321 1.52756,-0.0769 1.98345,-0.62627 0.89065,-1.07316 3.92912,-1.37826 3.92912,-0.39454 0,1.45949 -0.88536,2.66467 -1.95752,2.66467 -1.36722,0 -2.17519,2.50332 -1.5771,4.8863 0.33584,1.33809 0.10139,1.73847 -1.33868,2.28599 -1.3491,0.51293 -1.96862,0.44098 -2.72621,-0.3166 -1.47671,-1.47673 -2.68234,-1.18382 -2.68234,0.65168 0,1.16056 0.35362,1.63203 1.22403,1.63203 1.36361,0 1.51077,0.5046 0.57122,1.95846 -0.54081,0.83684 -0.63427,0.81311 -0.64282,-0.16321 -0.006,-0.7076 -0.51179,-1.14243 -1.32839,-1.14243 -1.04938,0 -1.25812,-0.33243 -1.02297,-1.62916 0.36114,-1.99165 -1.09333,-3.59336 -3.26305,-3.59336 -0.87685,0 -2.10438,-0.27232 -2.72785,-0.60516 -0.62345,-0.33284 -1.64765,-0.76427 -2.27599,-0.95874 -2.25851,-0.69899 -1.20066,-1.84287 1.46884,-1.58829 2.75043,0.2623 3.65706,-0.54358 1.14242,-1.01546 -4.54864,-0.85358 -4.52417,-0.88457 -4.22276,5.34723 0.15097,3.12124 0.4087,6.18743 0.57274,6.81377 0.48042,1.83442 3.17094,5.1335 3.84619,4.71617 0.34093,-0.21069 0.61985,-0.0542 0.61985,0.34767 0,0.44424 -0.94973,0.65131 -2.42227,0.52813 -1.94241,-0.16247 -2.51286,-0.52592 -2.87955,-1.83464 -0.44618,-1.59248 -0.46805,-1.5979 -0.90216,-0.22356 -0.46977,1.48728 -2.68005,2.47054 -3.29972,1.4679 z m -5.83745,-15.60628 c 1.25878,-0.54091 1.2543,-0.5627 -0.12468,-0.60692 -0.78667,-0.0253 -1.61186,0.24787 -1.83377,0.60692 -0.4772,0.77214 0.16159,0.77214 1.95845,0 z m 21.86422,0.16321 c -0.003,-0.26929 -0.73722,-0.82918 -1.63204,-1.24422 -1.73093,-0.80283 -2.13809,-0.34408 -0.84358,0.95045 0.86785,0.86783 2.48358,1.05957 2.47562,0.29377 z m 3.26916,-0.16321 c 0,-0.35905 -0.29376,-0.65281 -0.65281,-0.65281 -0.35905,0 -0.65282,0.29376 -0.65282,0.65281 0,0.35905 0.29377,0.65281 0.65282,0.65281 0.35905,0 0.65281,-0.29376 0.65281,-0.65281 z m -28.07105,-5.2455 c 0,-1.1263 -0.19879,-1.22221 -1.30563,-0.62984 -0.7181,0.38431 -1.30563,0.98218 -1.30563,1.3286 0,0.34641 0.58753,0.62984 1.30563,0.62984 0.87794,0 1.30563,-0.4352 1.30563,-1.3286 z m 22.19572,0.45818 c 0,-0.47873 -0.1933,-1.06371 -0.42954,-1.29996 -0.59036,-0.59036 -2.25387,0.87269 -1.8096,1.59154 0.55627,0.90006 2.23914,0.68093 2.23914,-0.29158 z m -3.9169,-2.02872 c 0,-0.15834 -0.29376,-0.46943 -0.65281,-0.69134 -0.35905,-0.2219 -0.65282,-0.0923 -0.65282,0.28788 0,0.38023 0.29377,0.69135 0.65282,0.69135 0.35905,0 0.65281,-0.12955 0.65281,-0.28789 z m -9.46581,-1.01774 c 0.2219,-0.35905 0.0924,-0.65282 -0.28789,-0.65282 -0.38024,0 -0.69133,0.29377 -0.69133,0.65282 0,0.35905 0.12954,0.65281 0.28787,0.65281 0.15833,0 0.46944,-0.29376 0.69135,-0.65281 z m -5.0552,-0.81602 c -0.31814,-0.96915 -4.41063,-1.51229 -4.41063,-0.58538 0,0.78957 1.15116,1.28204 3.15527,1.34986 0.94165,0.0319 1.42096,-0.26004 1.25536,-0.76448 z m -1.3976,-4.34916 1.58693,-1.24827 -2.78959,0.18478 c -1.53428,0.10163 -3.30369,0.2227 -3.93202,0.26905 -1.96376,0.14486 -1.24713,1.29418 0.97923,1.57048 1.1669,0.14481 2.2222,0.31031 2.34509,0.36777 0.12289,0.0574 0.93755,-0.45726 1.81036,-1.14381 z m 4.82075,-4.62705 c 0,-0.35906 -0.12954,-0.65282 -0.28788,-0.65282 -0.15832,0 -0.46943,0.29376 -0.69133,0.65282 -0.2219,0.35905 -0.0924,0.65281 0.28787,0.65281 0.38024,0 0.69134,-0.29376 0.69134,-0.65281 z m 15.46203,-1.5525 c -0.18989,-0.49482 -0.0488,-1.19608 0.31343,-1.55835 1.0558,-1.0558 -0.42307,-1.52327 -1.74982,-0.55313 -1.37906,1.0084 -0.90546,3.01116 0.71207,3.01116 0.64048,0 0.93105,-0.36093 0.72432,-0.89968 z m -3.71135,-0.36743 c 0,-1.01285 -1.30732,-1.50246 -2.15025,-0.8053 -0.43307,0.35818 -1.66872,0.78011 -2.74587,0.9376 -1.2648,0.18495 -0.74457,0.32101 1.46884,0.38419 1.885,0.0538 3.42728,-0.17862 3.42728,-0.51649 z m -4.5697,-4.608224 c 0,-0.359049 -0.12955,-0.652816 -0.28788,-0.652816 -0.15834,0 -0.46945,0.293767 -0.69135,0.652816 -0.2219,0.359047 -0.0924,0.652814 0.28788,0.652814 0.38024,0 0.69135,-0.293767 0.69135,-0.652814 z m 1.30563,-9.139413 c 0,-0.359049 -0.458,-0.652815 -1.01775,-0.652815 -0.55977,0 -0.8362,0.293766 -0.6143,0.652815 0.22191,0.359048 0.6799,0.652815 1.01775,0.652815 0.33786,0 0.6143,-0.293767 0.6143,-0.652815 z m 16.97319,37.210477 c 0,-0.35905 0.458,-0.65282 1.01775,-0.65282 0.55976,0 0.83619,0.29377 0.6143,0.65282 -0.22192,0.35905 -0.6799,0.65281 -1.01775,0.65281 -0.33786,0 -0.6143,-0.29376 -0.6143,-0.65281 z m 1.30563,-2.28486 c 0,-0.53857 0.28455,-0.97923 0.63232,-0.97923 0.34779,0 0.46324,0.44066 0.25657,0.97923 -0.20668,0.53857 -0.49121,0.97923 -0.63233,0.97923 -0.14111,0 -0.25656,-0.44066 -0.25656,-0.97923 z m -39.36969,-22.10374 c -0.1989,-0.51832 -0.0147,-0.8915 0.40918,-0.82928 0.97751,0.14347 1.39795,1.28988 0.5738,1.56459 -0.34173,0.11391 -0.78407,-0.21698 -0.98298,-0.73531 z m 4.14884,-4.955017 c -0.52144,-0.32986 -1.17046,-0.462291 -1.44228,-0.294295 -0.54682,0.337949 -3.1586,-1.121067 -3.1586,-1.764495 0,-0.911505 3.55497,0.06803 4.81317,1.326214 1.43447,1.434476 1.35125,1.721682 -0.21229,0.732576 z"
             id="path4441"
             inkscape:connector-curvature="0" />
          <path
             id="path4206-1"
             transform="matrix(1.2951982,0,0,1.2745206,-525.64879,-206.15126)"
             style="fill:#193c47;fill-opacity:1;stroke:#193c47;stroke-width:1.45779419;stroke-miterlimit:4;stroke-dasharray:none;stroke-opacity:1;filter:url(#filter4683-0)"
             d="m 562.48299,60.919936 c 0.52478,-28.166723 2.10356,-31.19933 -0.62443,-31.19933 -2.14248,0 -4.17791,0.525549 -2.85337,-0.799023 1.1312,-1.131189 6.6923,-1.585919 14.85911,-1.215046 11.09743,0.503965 13.67953,1.182831 17.2473,4.534598 7.10076,6.670799 4.76133,18.041261 -5.48597,26.663761 l -4.91301,4.13404 12.36775,11.55014 c 10.35297,9.66853 12.03993,11.94514 10.35534,13.97496 -1.10682,1.33368 -2.94591,2.42486 -4.08679,2.42486 -2.29468,0 -26.84229,-25.44353 -26.84229,-27.82199 0,-0.8214 1.15573,-1.49348 2.56825,-1.49348 1.41253,0 4.80227,-2.23405 7.53275,-4.96453 4.34193,-4.34193 4.85416,-5.78751 4.08435,-11.526853 -0.94687,-7.059641 -4.51841,-12.120955 -9.71755,-13.771106 -4.94623,-1.56986 -6.02453,1.81204 -6.27379,19.676359 -0.12494,8.9575 -0.68585,21.41658 -1.2464,27.68682 -0.87154,9.74895 -1.49104,11.46825 -4.27644,11.86844 -3.17408,0.45602 -3.24294,-0.30329 -2.69481,-29.72262 z m -98.04807,28.45625 c -8.70383,0.192284 2.59405,-1.136474 3.7348,-1.033828 0.75318,0.06777 4.61196,-0.74289 13.92949,-1.038081 l 28.14281,-0.891601 0.16393,-19.766596 c 0.0902,-10.871615 0.0403,-23.937642 -0.11079,-29.035603 -0.19643,-6.627597 0.19677,-9.572706 1.3798,-10.334718 2.95551,-1.90368 4.24705,-1.184766 6.47144,3.602202 3.15368,6.786833 25.73333,41.729477 26.96525,41.729477 0.57098,0 0.87825,-10.306875 0.68281,-22.904148 l -0.35536,-22.904151 19.4696,0 c 54.71627,0 45.62939,1.255022 44.7865,1.255022 -8.95735,0 2.0635,1.044656 -36.65629,1.572154 l -11.066,0.685551 -12.21136,-0.368432 0,28.080942 c 0,22.309487 -0.34937,28.375639 -1.69988,29.514642 -1.37632,1.160758 -4.31525,-2.613894 -15.43965,-19.830239 -7.55689,-11.695121 -14.07603,-22.154428 -14.48707,-23.24287 -1.84816,-4.894398 -2.953,-1.011435 -2.953,10.378432 0,6.796552 -0.36368,17.564121 -0.80819,23.927893 l -0.80817,11.5705 -41.17251,-1.46617 c -7.64789,-0.272344 6.77411,0.174159 4.14948,0.232142 z"
             clip-path="url(#clipPath4311)" />
        </g>
      </g>
    </g>
  </g>
</svg>
