<?xml version="1.0" encoding="UTF-8" standalone="no"?>
<!-- Svg Vector Icons : http://www.onlinewebfonts.com/icon -->

<svg
   xmlns:dc="http://purl.org/dc/elements/1.1/"
   xmlns:cc="http://creativecommons.org/ns#"
   xmlns:rdf="http://www.w3.org/1999/02/22-rdf-syntax-ns#"
   xmlns:svg="http://www.w3.org/2000/svg"
   xmlns="http://www.w3.org/2000/svg"
   xmlns:sodipodi="http://sodipodi.sourceforge.net/DTD/sodipodi-0.dtd"
   xmlns:inkscape="http://www.inkscape.org/namespaces/inkscape"
   version="1.1"
   x="0px"
   y="0px"
   viewBox="0 0 798.15144 635.60046"
   enable-background="new 0 0 1000 1000"
   xml:space="preserve"
   id="svg4218"
   inkscape:version="0.91 r13725"
   sodipodi:docname="paperairplane.svg"
   width="798.15143"
   height="635.60046"><defs
     id="defs4230" /><sodipodi:namedview
     pagecolor="#ffffff"
     bordercolor="#666666"
     borderopacity="1"
     objecttolerance="10"
     gridtolerance="10"
     guidetolerance="10"
     inkscape:pageopacity="0"
     inkscape:pageshadow="2"
     inkscape:window-width="1443"
     inkscape:window-height="865"
     id="namedview4228"
     showgrid="false"
     inkscape:zoom="0.65"
     inkscape:cx="500"
     inkscape:cy="187.60044"
     inkscape:window-x="0"
     inkscape:window-y="0"
     inkscape:window-maximized="0"
     inkscape:current-layer="svg4218"
     fit-margin-top="0"
     fit-margin-left="0"
     fit-margin-right="0"
     fit-margin-bottom="0" /><metadata
     id="metadata4220"> Svg Vector Icons : http://www.onlinewebfonts.com/icon <rdf:RDF><cc:Work
     rdf:about=""><dc:format>image/svg+xml</dc:format><dc:type
       rdf:resource="http://purl.org/dc/dcmitype/StillImage" /><dc:title></dc:title></cc:Work></rdf:RDF></metadata><path
     style="opacity:0.053;fill:#000000"
     d="M 8.5559925,613.06657 C 14.113024,600.0742 41.645809,535.00535 69.739977,468.4692 119.58564,350.41832 121.11167,347.43501 132.8774,345.038 c 6.63143,-1.35103 112.92597,-7.62829 236.21012,-13.94948 123.28404,-6.32119 224.15295,-12.39011 224.15295,-13.48645 0,-1.09634 -100.86891,-7.15781 -224.15295,-13.46995 C 245.80337,297.82002 139.50812,291.55226 132.8758,290.20378 121.06204,287.80179 119.58313,284.83715 60.077188,144.27008 26.670284,65.355011 -0.36281015,0.43543562 0.00368293,0.0043456 1.1578113,-1.3531918 798.14691,315.80499 798.15141,317.62354 798.1543,318.90196 21.443625,629.00665 1.7894441,635.574 c -1.83542461,0.61331 1.2094852,-9.51503 6.7665484,-22.50743 z"
     id="path4362"
     inkscape:connector-curvature="0" /></svg>