<?xml version="1.0" encoding="UTF-8" standalone="no"?>
<!-- Created with Inkscape (http://www.inkscape.org/) -->

<svg
   xmlns:dc="http://purl.org/dc/elements/1.1/"
   xmlns:cc="http://creativecommons.org/ns#"
   xmlns:rdf="http://www.w3.org/1999/02/22-rdf-syntax-ns#"
   xmlns:svg="http://www.w3.org/2000/svg"
   xmlns="http://www.w3.org/2000/svg"
   xmlns:sodipodi="http://sodipodi.sourceforge.net/DTD/sodipodi-0.dtd"
   xmlns:inkscape="http://www.inkscape.org/namespaces/inkscape"
   width="919.00006"
   height="792.18854"
   viewBox="0 0 919.00006 792.18854"
   id="svg2"
   version="1.1"
   inkscape:version="0.91 r13725"
   sodipodi:docname="pipe.svg">
  <defs
     id="defs4" />
  <sodipodi:namedview
     id="base"
     pagecolor="#ffffff"
     bordercolor="#666666"
     borderopacity="1.0"
     inkscape:pageopacity="0.0"
     inkscape:pageshadow="2"
     inkscape:zoom="0.49497475"
     inkscape:cx="619.22224"
     inkscape:cy="292.7694"
     inkscape:document-units="px"
     inkscape:current-layer="layer1"
     showgrid="false"
     fit-margin-top="0"
     fit-margin-left="0"
     fit-margin-right="0"
     fit-margin-bottom="0"
     inkscape:window-width="1440"
     inkscape:window-height="852"
     inkscape:window-x="0"
     inkscape:window-y="0"
     inkscape:window-maximized="1"
     units="px" />
  <metadata
     id="metadata7">
    <rdf:RDF>
      <cc:Work
         rdf:about="">
        <dc:format>image/svg+xml</dc:format>
        <dc:type
           rdf:resource="http://purl.org/dc/dcmitype/StillImage" />
        <dc:title></dc:title>
      </cc:Work>
    </rdf:RDF>
  </metadata>
  <g
     inkscape:label="Layer 1"
     inkscape:groupmode="layer"
     id="layer1"
     transform="translate(54.374994,112.9264)">
    <path
       style="opacity:0.072;fill:#000000;fill-opacity:1"
       d="M 171.69384,677.78535 C 60.661078,667.07579 -40.265586,593.95505 -70.643982,502.21252 -81.653183,468.96486 -80.974944,481.25688 -81.60107,303.6231 l -0.568313,-161.23688 -9.083873,0 c -11.837284,0 -21.222884,-4.54889 -27.209544,-13.18801 -4.19883,-6.05876 -4.60257,-7.86304 -4.60257,-20.56737 0,-12.416571 0.46788,-14.632711 4.31681,-20.449121 5.68174,-8.58563 15.50987,-13.346045 27.553765,-13.346045 l 9.142301,0 0,-69.7585181 0,-69.7584859 -8.002208,-0.768983 c -16.944468,-1.628143 -27.381348,-14.271805 -27.381348,-33.170918 0,-15.710969 5.00226,-25.146299 16.42137,-30.974519 5.675937,-2.89678 11.116106,-3.04553 111.442189,-3.04553 101.803381,0 105.691261,0.11036 111.692421,3.17183 12.00305,6.12344 16.87872,16.46895 15.90249,33.742729 -1.15967,20.525034 -12.65127,30.636112 -34.81846,30.636112 l -11.55491,0 0,69.9631149 0,69.9631681 8.91018,0 c 10.96473,0 19.7591,4.171515 25.97824,12.322195 3.93788,5.16119 4.5878,7.6046 5.07342,19.075571 0.45361,10.71411 -0.0335,14.31951 -2.64349,19.42708 -5.73009,11.22707 -15.28961,16.7257 -29.0788,16.7257 l -7.947079,0 -0.579081,143.54511 c -0.318581,78.94971 -0.08964,149.33512 0.505823,156.41151 2.820528,33.4587 20.407697,52.55243 54.736607,59.42597 17.87067,3.57849 50.53045,4.79447 72.97963,2.71742 42.96556,-3.97588 67.38773,-15.03811 78.57469,-35.59127 6.84873,-12.58366 8.85889,-22.48721 10.04163,-49.47083 l 1.0747,-24.52715 -4.16577,0 c -9.67485,0 -20.55343,-7.59881 -24.6779,-17.23814 -3.09628,-7.23697 -2.86609,-26.66789 0.39198,-33.10284 5.86962,-11.59086 12.43278,-15.53426 28.28904,-16.99716 l 11.02193,-1.01692 7.03924,-21.04451 C 362.09061,201.11349 443.37317,136.23925 562.0909,118.00298 c 17.87591,-2.7459 28.60652,-3.19567 73.98415,-3.10114 l 53.07535,0.11116 27.3094,-43.409501 27.30929,-43.409671 24.55993,0 24.55969,0 0,44.229554 0,44.229648 31.36282,0 37.05695,1.03517 2.09199,14.6462 c 0.0206,15.87786 4.22403,83.50548 -0.023,131.36698 l -2.55063,26.65321 -33.81322,0 -33.81317,0 0.24461,55.89018 0.24489,55.88989 -21.03147,0.44719 -21.03201,0.44639 -30.83735,-46.31246 -30.83778,-46.31286 0,-10.57679 0,-10.57777 -24.381,-1.05528 c -33.98453,-1.47093 -59.53161,-1.297 -85.61008,0.58335 -32.5155,2.34458 -49.1426,6.81416 -64.31077,17.2889 -5.99619,4.1404 -17.09147,17.06162 -17.09147,19.90405 0,0.75766 2.3524,1.39297 5.2271,1.41262 12.50186,0.0827 25.25893,10.29415 28.68468,22.95691 2.64786,9.78604 0.71535,24.61723 -4.16991,31.99899 -6.24324,9.43396 -14.02786,12.55937 -31.286,12.55937 -12.74673,0 -14.54849,0.34695 -14.6123,2.81453 -0.74054,28.59356 -3.40242,65.0618 -5.4575,74.77196 -8.86104,41.86709 -28.66109,78.33509 -60.32406,111.10872 -51.37797,53.17869 -124.35381,87.6649 -199.60131,94.32488 -20.58197,1.82162 -25.21609,1.80811 -45.32791,-0.13168 z m 72.82566,-74.29954 c 24.28693,-5.7458 39.95054,-11.43469 61.03988,-22.16922 48.24649,-24.55903 81.01543,-61.26747 95.34385,-106.80627 5.42654,-17.2455 7.58578,-32.82082 8.02668,-57.90102 l 0.36795,-20.90801 -17.69135,-0.40602 c -9.7311,-0.22305 -18.49714,0.13864 -19.48193,0.80397 -1.02973,0.69588 -2.57057,11.46111 -3.62716,25.33565 -1.01029,13.26871 -2.93434,28.82948 -4.2758,34.57933 -11.31524,48.49943 -46.10607,83.55731 -100.5876,101.36126 C 211.18355,574.5154 143.67148,571.52183 98.33396,550.04493 58.12862,530.99954 34.741785,503.40209 23.727915,462.00678 20.243341,448.90988 20.202521,447.23219 19.679408,295.58144 l -0.528454,-153.19522 -19.81388018,0 -19.81387582,0 -1.12888,130.67832 c -1.466525,169.76684 -0.354823,186.92973 14.3690145,221.84143 22.3918865,53.09339 78.2861495,95.1022 144.9158575,108.91513 23.03913,4.77664 22.61051,4.74528 57.70842,4.18831 27.52365,-0.43653 34.61549,-1.08974 49.13189,-4.5236 z M 518.12001,379.04818 c 4.216,-4.71816 4.56625,-6.10549 4.56625,-18.07557 0,-12.18561 -0.28263,-13.24798 -4.70127,-17.66663 l -4.70109,-4.70125 -107.05363,0 -107.05339,0 -5.0075,4.47423 c -4.37661,3.91024 -5.11272,5.78561 -5.84289,14.88042 -1.04308,12.99628 2.10739,21.66933 8.90927,24.52512 3.5167,1.47655 30.68953,1.92315 110.49094,1.81617 l 105.82705,-0.14196 4.56626,-5.11057 z m -89.98775,-63.00014 c 9.33815,-24.08555 28.12126,-48.96208 47.97039,-63.53274 10.9636,-8.04785 30.80293,-17.53824 46.58361,-22.2832 28.08913,-8.44605 36.73731,-9.29715 103.29503,-10.16754 l 62.28224,-0.81464 0.93143,-5.05876 c 0.51222,-2.78197 0.71164,-11.52785 0.44319,-19.4353 l -0.48775,-14.37681 -5.62915,-1.48531 c -8.8805,-2.34224 -103.90834,-0.20234 -123.8428,2.78958 -78.62331,11.79824 -131.53706,47.02566 -162.02337,107.86672 -5.33627,10.64968 -14.89503,34.45017 -14.89503,37.08736 0,0.39024 9.22804,0.69654 20.50623,0.68187 l 20.5068,-0.0229 4.35918,-11.24399 z m 329.77509,-83.04733 25.33151,-1.05047 0,-32.17254 0,-32.17276 -40.52291,1.07363 c -29.55105,0.78251 -40.86711,1.61447 -41.7927,3.07174 -0.69812,1.0994 -1.28047,15.56923 -1.29395,32.15535 l -0.0202,30.15636 16.48584,-0.004 c 9.06672,-0.002 27.88451,-0.47783 41.81737,-1.05574 z m 74.84312,-16.43872 c 12.56443,-6.4365 14.81235,-18.52796 5.12707,-27.57577 -5.86264,-5.47637 -15.64046,-7.99971 -31.00067,-7.99971 l -11.9297,0 -0.92558,8.96698 c -0.50877,4.93186 -0.49751,14.07012 0.0205,20.30732 l 0.95103,11.34025 15.43086,-0.75447 c 11.63993,-0.56951 17.12406,-1.62208 22.32168,-4.2846 z M 116.15112,126.435 c 5.03822,-4.50156 5.25265,-5.18024 5.25265,-16.63509 0,-12.563041 -2.00749,-18.457931 -7.44083,-21.851061 -2.49566,-1.55879 -26.377373,-2.00996 -105.6513922,-1.99722 -56.3346458,0.007 -104.4726658,0.0438 -106.9733228,0.0781 -2.821575,0.038 -6.330375,1.8466 -9.248055,4.76421 -4.4273,4.42752 -4.70123,5.46538 -4.70123,17.815391 0,12.3504 0.27393,13.38831 4.70123,17.81568 l 4.70137,4.70148 107.0534998,0 107.0536002,0 5.25248,-4.69321 z M 19.278334,32.616495 c 0.002,-23.2206271 0.478515,-54.703841 1.057343,-69.963137 l 1.052424,-27.743967 -21.16170398,0 -21.16166302,0 0,69.9631149 0,69.9631681 20.10435582,0 20.10433218,0 0.004,-42.219179 z M 122.33149,-81.050408 c 4.41842,-4.418582 4.70132,-5.48104 4.70132,-17.666451 0,-11.932721 -0.35914,-13.367171 -4.51097,-18.013611 l -4.51083,-5.04858 -107.67136,0.14335 -107.671469,0.14309 -4.422931,4.90528 c -4.05355,4.49571 -4.42293,5.98809 -4.42293,17.870471 0,12.185411 0.28266,13.247869 4.70129,17.666451 l 4.701303,4.70129 107.202596,0 107.202491,0 z"
       id="path4201"
       inkscape:connector-curvature="0"
       sodipodi:nodetypes="csscssscscccssssssscccscscscscccsscscccccssccccccccccccccccccccccsscsccsscssscccccccccccsssscccsscsccssccccscsccccssscccccccsccccccccsccccccccsccccccccscccsssccccccsccccccccccsccccssscccc" />
    <path
       style="opacity:0.072;fill:#000000;fill-opacity:1;stroke:none;stroke-width:1.87300003;stroke-linejoin:miter;stroke-miterlimit:4;stroke-dasharray:none;stroke-opacity:1"
       d="m 33.309527,117.8309 0,-70.000002 21.25,0 21.25,0 -7.15e-4,0.580357 c -3.57e-4,0.319197 -0.238634,6.808036 -0.529494,14.419643 -1.189288,31.122831 -1.604577,57.550682 -1.60999,102.455362 l -0.0027,22.54464 -20.178572,0 -20.178571,0 0,-70 z"
       id="path4246"
       inkscape:connector-curvature="0"
       transform="translate(-54.374994,-112.9264)" />
    <path
       style="opacity:0.072;fill:#000000;fill-opacity:1;stroke:none;stroke-width:1.87300003;stroke-linejoin:miter;stroke-miterlimit:4;stroke-dasharray:none;stroke-opacity:1"
       d="m 101.93422,676.30452 c -4.967589,-3.82332 -10.279586,-8.24896 -13.749996,-11.4557 -2.5107,-2.31993 -9.270106,-9.09678 -11.520515,-11.55024 -11.740114,-12.79942 -21.751498,-27.79084 -28.202943,-42.23215 -9.635639,-21.569 -13.09761,-37.10305 -14.824391,-66.51785 -0.74595,-12.70688 -1.338767,-35.30555 -1.343239,-51.20536 l -0.0018,-6.29464 21.049843,0 21.049843,0 0.114091,13.52678 c 0.450959,53.46607 0.863461,63.13144 3.069415,71.91964 4.193267,16.70538 10.447237,31.32676 18.768157,43.87876 6.297615,9.49989 14.809545,18.85187 24.073655,26.44956 10.62219,8.71147 24.98498,17.18109 39.11051,23.06313 12.12884,5.05061 26.36005,9.07843 41.6348,11.78382 l 3.36183,0.59541 -50,0.0159 -50,0.0159 -2.58929,-1.99286 0,-9e-5 z"
       id="path4248"
       inkscape:connector-curvature="0"
       transform="translate(-54.374994,-112.9264)" />
    <path
       style="opacity:0.072;fill:#000000;fill-opacity:1;stroke:none;stroke-width:1.87300003;stroke-linejoin:miter;stroke-miterlimit:4;stroke-dasharray:none;stroke-opacity:1"
       d="m 212.12441,720.75977 c -16.05754,-2.08859 -42.18979,-8.78213 -57.02367,-14.60611 -16.07412,-6.3109 -35.35825,-16.65683 -47.24687,-25.34789 l -3.41978,-2.5 49.64286,-0.19394 c 42.57529,-0.16633 50.86316,-0.0288 58.21429,0.96592 11.63483,1.57438 40.48765,2.14608 53.39481,1.05798 85.24022,-7.18597 144.43347,-53.50979 154.04942,-120.55696 0.77654,-5.41444 2.07635,-16.91586 2.88845,-25.55871 2.03735,-21.6824 2.58502,-24.56546 4.82857,-25.41845 1.00051,-0.3804 9.35183,-0.59414 19.02532,-0.48693 l 17.242,0.19109 -0.20838,16.78571 c -0.48803,39.31331 -4.67443,59.76022 -17.62266,86.07143 -18.33599,37.25929 -49.79575,66.52719 -93.8406,87.30257 -20.21997,9.53748 -44.26803,17.18248 -64.75693,20.58655 -12.16907,2.02179 -63.7437,3.19353 -75.16683,1.70774 z"
       id="path4250"
       inkscape:connector-curvature="0"
       transform="translate(-54.374994,-112.9264)" />
    <path
       style="opacity:0.072;fill:#000000;fill-opacity:1;stroke:none;stroke-width:1.87300003;stroke-linejoin:miter;stroke-miterlimit:4;stroke-dasharray:none;stroke-opacity:1"
       d="m 32.17786,423.48434 c 0.261802,-35.0625 0.687726,-87.29464 0.946498,-116.07143 l 0.470494,-52.32143 20.24105,0 20.241049,0 0,67.73929 c 0,37.2566 0.213501,89.48874 0.474447,116.07142 l 0.474447,48.33215 -21.661994,0 -21.661994,0 0.476003,-63.75 z"
       id="path4252"
       inkscape:connector-curvature="0"
       transform="translate(-54.374994,-112.9264)" />
    <path
       style="opacity:0.072;fill:#000000;fill-opacity:1;stroke:none;stroke-width:1.87300003;stroke-linejoin:miter;stroke-miterlimit:4;stroke-dasharray:none;stroke-opacity:1"
       d="m 446.52842,440.21139 c -5.52105,-0.11682 -8.32831,-0.26116 -9.0625,-0.46595 -0.19974,-0.0557 -0.3125,-0.26257 -0.3125,-0.57331 0,-2.03466 7.17147,-20.29324 12.66993,-32.25765 6.47816,-14.09621 15.9241,-29.19541 25.79385,-41.23111 29.0232,-35.39243 69.64926,-57.93294 123.58979,-68.57118 4.7023,-0.9274 11.34844,-2.07612 15,-2.5926 12.86397,-1.81951 51.62006,-3.42317 89.59822,-3.70741 l 15.49107,-0.11594 0,20.90146 0,20.90146 -4.50893,0.10712 c -2.47991,0.0589 -8.32589,0.15018 -12.99107,0.2028 -67.96604,0.76659 -83.75007,1.4198 -99.44423,4.11543 -9.80385,1.68392 -24.07222,5.59086 -34.21649,9.36911 -6.71764,2.502 -12.48196,5.02391 -19.4138,8.4936 -14.4025,7.20909 -22.43888,13.01367 -33.26477,24.02672 -9.92179,10.09332 -18.52105,21.73659 -25.63374,34.70769 -3.30166,6.0211 -5.03216,9.86612 -8.84046,19.64285 l -2.71278,6.96429 -0.69222,0.12364 c -0.86955,0.1553 -23.1627,0.12585 -31.04937,-0.041 z"
       id="path4256"
       inkscape:connector-curvature="0"
       transform="translate(-54.374994,-112.9264)" />
    <path
       style="opacity:0.072;fill:#000000;fill-opacity:1;stroke:none;stroke-width:1.87300003;stroke-linejoin:miter;stroke-miterlimit:4;stroke-dasharray:none;stroke-opacity:1"
       d="m 719.17129,311.74405 c 0,-11.44511 0.0686,-20.85167 0.15235,-20.90345 0.22891,-0.14147 12.45072,0.21959 15.11551,0.44655 1.68689,0.14367 3.23927,0.43143 5.67933,1.05277 1.84685,0.47028 3.38554,0.88417 3.41932,0.91976 0.0338,0.0356 0.19109,3.80132 0.3496,8.36828 0.332,9.5655 0.36773,18.06377 0.0924,21.98276 -0.18458,2.62761 -1.09446,8.31539 -1.37058,8.56766 -0.0739,0.0675 -5.3777,0.17953 -11.78619,0.24888 l -11.65178,0.12608 0,-20.80929 z"
       id="path4258"
       inkscape:connector-curvature="0"
       transform="translate(-54.374994,-112.9264)" />
    <path
       style="opacity:0.072;fill:#000000;fill-opacity:1;stroke:none;stroke-width:1.87300003;stroke-linejoin:miter;stroke-miterlimit:4;stroke-dasharray:none;stroke-opacity:1"
       d="m 753.93151,329.53976 c 10e-4,-17.016 0.11056,-26.72984 0.37867,-33.63617 0.26272,-6.76717 0.59484,-10.65672 0.95718,-11.20972 0.66913,-1.02121 5.21344,-1.64009 16.40372,-2.23397 7.32255,-0.38862 16.37197,-0.67737 43.62596,-1.392 9.20186,-0.24128 17.99493,-0.47669 19.54014,-0.52312 l 2.80949,-0.0844 0,32.21008 0,32.21007 -0.53664,0.0645 c -0.29516,0.0355 -4.23002,0.21134 -8.74414,0.39085 -4.51412,0.17952 -11.64516,0.46435 -15.84677,0.63296 -7.33107,0.2942 -14.98749,0.54737 -25.12754,0.83089 -2.6043,0.0728 -11.19849,0.16491 -19.0982,0.20467 l -14.3631,0.0723 10e-4,-17.53686 z"
       id="path4260"
       inkscape:connector-curvature="0"
       transform="translate(-54.374994,-112.9264)" />
  </g>
</svg>
