<?xml version="1.0" encoding="UTF-8" standalone="no"?>
<!-- Created with Inkscape (http://www.inkscape.org/) -->

<svg
   xmlns:dc="http://purl.org/dc/elements/1.1/"
   xmlns:cc="http://creativecommons.org/ns#"
   xmlns:rdf="http://www.w3.org/1999/02/22-rdf-syntax-ns#"
   xmlns:svg="http://www.w3.org/2000/svg"
   xmlns="http://www.w3.org/2000/svg"
   xmlns:sodipodi="http://sodipodi.sourceforge.net/DTD/sodipodi-0.dtd"
   xmlns:inkscape="http://www.inkscape.org/namespaces/inkscape"
   id="svg6031"
   version="1.1"
   inkscape:version="0.91 r13725"
   width="400"
   height="198.284"
   viewBox="0 0 400.00001 198.28399"
   sodipodi:docname="libertypumps.svg">
  <metadata
     id="metadata6037">
    <rdf:RDF>
      <cc:Work
         rdf:about="">
        <dc:format>image/svg+xml</dc:format>
        <dc:type
           rdf:resource="http://purl.org/dc/dcmitype/StillImage" />
        <dc:title></dc:title>
      </cc:Work>
    </rdf:RDF>
  </metadata>
  <defs
     id="defs6035" />
  <sodipodi:namedview
     pagecolor="#ffffff"
     bordercolor="#666666"
     borderopacity="1"
     objecttolerance="10"
     gridtolerance="10"
     guidetolerance="10"
     inkscape:pageopacity="0"
     inkscape:pageshadow="2"
     inkscape:window-width="1147"
     inkscape:window-height="909"
     id="namedview6033"
     showgrid="false"
     fit-margin-top="0"
     fit-margin-left="0"
     fit-margin-right="0"
     fit-margin-bottom="0"
     inkscape:zoom="1.0378935"
     inkscape:cx="168.31741"
     inkscape:cy="107.97198"
     inkscape:window-x="2"
     inkscape:window-y="20"
     inkscape:window-maximized="0"
     inkscape:current-layer="svg6031" />
  <g
     id="g6936"
     transform="translate(0,100.858)">
    <g
       transform="matrix(0.91142519,0,0,0.91142519,17.714961,-184.00104)"
       id="g4854">
      <path
         style="fill:#000000"
         d="m 244.71898,301.79032 0,-6.98689 3.22472,0 3.22471,0 0,-23.91664 0,-23.91664 -2.41854,0 -2.41853,0 0,-8.06179 0,-8.06178 12.87204,0 12.87204,0 0.16124,3.04696 0.16123,3.04698 3.48949,-3.04698 3.48948,-3.04696 5.64721,0.003 c 3.10598,0.002 6.6118,0.27079 7.79073,0.59808 2.71045,0.75248 5.44049,3.6135 6.22376,6.52235 0.7695,2.85768 1.15092,36.74371 0.45492,40.4138 -0.66265,3.49406 -2.3945,5.97216 -5.09536,7.29091 -1.86236,0.90905 -3.29608,1.06671 -9.70319,1.06671 l -7.51793,0 -1.82322,-1.88109 c -1.00277,-1.03459 -2.01763,-1.88109 -2.25525,-1.88109 -0.23761,0 -0.43202,2.6604 -0.43202,5.91198 l 0,5.91199 2.14982,0 2.14981,0 0,6.98687 0,6.98689 -16.12358,0 -16.12358,0 0,-6.98689 z m 34.93442,-42.72749 0,-12.09268 -3.22472,0 -3.22472,0 0,12.09268 0,12.09269 3.22472,0 3.22472,0 0,-12.09269 z m -244.540932,18.54211 0,-9.13669 2.418536,0 2.418537,0 0,-23.91664 0,-23.91664 -2.418537,0 -2.418536,0 0,-10.25199 0,-10.252 26.200814,0.20262 c 30.080646,0.23265 30.068613,0.231 34.57583,4.71905 4.299428,4.28113 5.624088,10.99073 5.192418,26.30044 -0.287,10.17872 -0.64513,11.83945 -3.388453,15.71294 -3.571598,5.04297 -9.797003,6.86748 -23.480933,6.88167 l -9.002331,0.009 0,7.25562 0,7.25561 2.418537,0 2.418537,0 0,9.13669 0,9.1367 -17.46721,0 -17.467209,0 0,-9.1367 z m 40.846397,-49.1769 0,-8.33052 -5.643252,0 -5.643253,0 0,8.33052 0,8.33052 5.643253,0 5.643252,0 0,-8.33052 z m 33.993875,54.81419 -2.28417,-3.47704 0,-16.93498 0,-16.93497 -2.14981,0 -2.14981,0 0,-7.52433 0,-7.52433 12.63013,0 12.63014,0 0,20.15446 0,20.15448 2.37952,0 c 1.93051,0 2.58973,-0.26723 3.49345,-1.41611 1.07854,-1.37114 1.11392,-2.0112 1.11392,-20.15448 l 0,-18.73835 10.20506,0 10.20506,0 0.14081,20.0201 0.14082,20.02011 2.55289,0.16374 2.55291,0.16374 0,7.76363 0,7.76362 -12.89887,0 -12.89886,0 0,-2.74044 0,-2.74045 -3.16334,2.74045 -3.16334,2.74044 -8.52625,-0.0107 -8.52627,-0.0107 -2.28417,-3.47705 z m 55.22326,-16.38634 0,-19.88574 -2.95599,0 -2.95598,0 0,-8.06179 0,-8.06178 13.40685,0 13.40686,0 0.16375,2.5001 0.16374,2.50013 2.92387,-2.50013 2.92387,-2.5001 6.51836,0 c 7.53677,0 11.26077,0.86781 13.55074,3.15778 l 1.52111,1.52112 2.65861,-2.33944 2.65861,-2.33946 6.50097,0 c 7.76324,0 11.09614,0.82347 13.536,3.34435 3.46544,3.58054 3.61655,4.43402 3.80889,21.51283 l 0.17395,15.45176 2.11291,0 2.11293,0 0,7.79306 0,7.79306 -12.89886,0 -12.89887,0 0,-19.88575 0,-19.88574 -3.76217,0 -3.76217,0 0,19.88574 0,19.88575 -10.2116,0 -10.2116,0 0,-19.88575 0,-19.88574 -3.76216,0 -3.76217,0 0,19.88574 0,19.88575 -10.48032,0 -10.48033,0 0,-19.88575 z m 137.0504,11.28651 0,-8.59924 10.2116,0 10.2116,0 0,1.88108 0,1.88109 4.0309,0 4.03089,0 0,-2.91976 c 0,-2.55523 -0.15102,-2.968 -1.20927,-3.30588 -0.66509,-0.21235 -6.89282,-1.88832 -13.8394,-3.72438 l -12.63013,-3.3383 -0.14476,-10.95742 c -0.1383,-10.48025 -0.0915,-11.06136 1.07491,-13.3448 0.83349,-1.6316 1.90018,-2.73755 3.36939,-3.49344 2.04371,-1.05146 3.17782,-1.11386 22.9761,-1.26408 l 20.82629,-0.15801 0,8.35417 0,8.35417 -9.67415,0 -9.67414,0 0,-1.61236 0,-1.61235 -4.56835,0 -4.56835,0 0,2.67703 c 0,2.33177 0.15604,2.71448 1.20927,2.96753 0.6651,0.1598 6.97862,1.60055 14.03006,3.20167 7.05143,1.60113 12.90149,2.99186 13.00013,3.0905 0.0987,0.0987 0.23136,5.76816 0.29495,12.59893 0.11359,12.19577 0.0934,12.45095 -1.123,14.15906 -0.68124,0.95672 -2.22996,2.18969 -3.44159,2.73996 -2.02699,0.92054 -3.88835,1.00141 -23.298,1.01227 l -21.09495,0.0125 0,-8.59924 z m 51.7207,-35.89234 c -2.85563,-2.66755 -2.76537,-7.05839 0.20239,-9.84646 1.97537,-1.85578 6.51921,-1.84341 8.50606,0.0231 3.0659,2.88026 2.95556,7.9723 -0.22175,10.23474 -2.37971,1.6945 -6.4432,1.49752 -8.4867,-0.41142 z m 6.59291,-0.65443 c 0.1827,-0.2956 -0.006,-0.53745 -0.41946,-0.53745 -0.4134,0 -1.08215,-0.6651 -1.48611,-1.478 l -0.7345,-1.47799 -0.19365,1.47799 c -0.10946,0.83497 -0.52887,1.478 -0.96415,1.478 -0.59065,0 -0.77047,-0.82229 -0.77047,-3.5229 l 0,-3.52289 2.55289,0.16374 c 2.33926,0.15013 2.56716,0.28776 2.72326,1.64488 0.10964,0.9527 -0.1229,1.59356 -0.65161,1.79647 -0.73453,0.28185 -0.73212,0.45255 0.0227,1.60467 1.00728,1.53732 1.5976,1.30325 2.06356,-0.81824 0.73911,-3.3652 -2.71147,-6.62166 -5.78014,-5.45496 -1.82435,0.69361 -3.28286,3.46246 -2.81574,5.34541 0.55578,2.24032 2.37348,3.83864 4.3655,3.83864 0.9656,0 1.90514,-0.24185 2.08784,-0.53744 z m -1.18087,-5.63589 c 0.0582,-0.29155 -0.31727,-0.6116 -0.83458,-0.71123 -0.58829,-0.11322 -0.94054,0.15031 -0.94054,0.70387 0,0.93504 1.58834,0.94163 1.77512,0.007 z M 190.77522,223.00975 C 173.42957,219.73489 163.47389,208.8166 163.61635,193.2249 l 0.0367,-4.03089 0.76256,3.15029 c 2.54896,10.53025 10.25126,18.52276 20.7316,21.51265 16.97938,4.84398 46.15258,-1.2554 72.7302,-15.20603 3.84775,-2.01969 8.32059,-4.55048 9.93965,-5.624 l 2.94375,-1.95184 13.95915,0 c 8.54739,0 13.7612,0.19247 13.44857,0.49643 -1.60895,1.56436 -14.05116,8.87166 -21.20251,12.45219 -17.59429,8.80909 -35.8148,14.96662 -54.01398,18.25374 -8.49062,1.53356 -25.84148,1.92845 -32.17693,0.73231 z m 115.75081,-19.81516 0,-7.76624 3.09035,-0.16124 3.09035,-0.16123 0.69419,-2.95599 c 0.68978,-2.9372 0.66223,-3.08248 -4.33214,-22.84174 l -5.02635,-19.88575 -5.74509,-0.15246 -5.74508,-0.15246 0,11.84215 0,11.84214 3.77693,0 3.77691,0 -0.14905,7.6587 -0.14905,7.6587 -14.37686,0.14314 -14.37686,0.14314 0,-19.6258 0,-19.62579 -2.68726,0 -2.68726,0 0,-8.86798 0,-8.86796 2.41853,0 2.41853,0 0,-8.33052 0,-8.33051 11.01779,0 11.01778,0 0,8.33051 0,8.33052 12.89886,0 c 7.09437,0 12.89886,0.0948 12.89886,0.21057 0,0.35661 4.8547,20.95055 5.20826,22.09371 0.21288,0.68834 0.88453,-1.34112 1.86764,-5.64325 0.84436,-3.69499 2.04605,-8.9553 2.67042,-11.6896 l 1.13523,-4.97143 10.41407,0 10.41408,0 0,8.59924 0,8.59924 -2.68726,0 c -1.47799,0 -2.68726,0.11627 -2.68726,0.25853 0,0.53745 -16.20719,61.24898 -16.45976,61.65766 -0.14565,0.23556 -5.08764,0.42831 -10.98218,0.42831 l -10.71732,0 0,-7.76624 z M 35.889827,187.70035 c -0.146815,-0.38262 -0.200391,-4.79827 -0.119064,-9.81259 l 0.147889,-9.11696 3.090352,-0.16124 3.090353,-0.16123 0,-22.51935 0,-22.51937 -3.090353,-0.16118 -3.090352,-0.16119 -0.147047,-9.27105 -0.147047,-9.27106 18.030044,0 18.030046,0 -0.147065,9.27106 -0.147047,9.27105 -2.015447,0.16681 -2.015448,0.16681 0,22.54057 0,22.54056 8.342914,0 8.34292,0 -0.14676,-9.53978 -0.146761,-9.53979 -3.090352,-0.16123 -3.090352,-0.16124 0,-8.84113 0,-8.84115 12.903613,0 12.903617,0 -0.13911,28.35062 -0.13912,28.35063 -33.471726,0.13848 c -26.991904,0.11162 -33.523403,0.003 -33.738664,-0.55717 z m 69.628933,-7.91177 0,-8.59925 2.14981,0 2.14981,0 0,-25.79771 0,-25.79774 -2.14981,0 -2.14981,0 0,-7.52433 0,-7.52434 12.89098,0 12.89098,0 0.14225,16.25794 0.14224,16.25794 2.13016,-2.82162 2.13018,-2.82163 8.08142,0.0118 c 9.05896,0.0133 11.25528,0.5943 13.8351,3.66023 2.73592,3.25145 2.84558,4.22841 2.84558,25.35041 0,19.4713 -0.009,19.63596 -1.25539,22.16617 -0.69047,1.40203 -1.92074,3.02291 -2.73392,3.60194 -1.90675,1.35773 -7.00594,2.17026 -13.65215,2.17536 l -5.28006,0.003 -3.18483,-3.03781 -3.18481,-3.03779 0,3.03779 0,3.03781 -12.89887,0 -12.89886,0 0,-8.59924 z m 33.59079,-19.3483 0,-11.55522 -3.76216,0 -3.76218,0 -0.14583,11.00326 c -0.0802,6.05179 -0.0231,11.32323 0.12703,11.71432 0.1979,0.51572 1.27141,0.66735 3.90803,0.55196 l 3.6352,-0.15908 0,-11.55524 z m 31.7097,27.46115 c -3.03942,-0.53681 -4.3074,-1.50515 -6.02353,-4.60009 l -1.5008,-2.70658 -0.16697,-20.15448 c -0.0919,-11.08496 -0.0194,-20.94567 0.16088,-21.91269 0.40834,-2.19011 3.18724,-5.42177 5.4893,-6.38363 1.33756,-0.55887 5.72599,-0.72612 19.05264,-0.72612 25.02879,0 23.56613,-1.19769 23.56613,19.29685 l 0,14.02522 -13.70504,0 -13.70504,0 0,4.03089 0,4.0309 4.56835,0 4.56835,0 0,-2.68727 0,-2.68726 9.13669,0 9.13669,0 0,7.55103 c 0,8.41504 -0.38244,9.77193 -3.35096,11.88926 -1.74026,1.24123 -1.89328,1.2523 -18.41587,1.33265 -9.16356,0.0446 -17.62844,-0.0899 -18.81083,-0.29868 z m 22.30428,-38.74765 0,-3.22471 -4.56835,0 -4.56835,0 0,2.86641 c 0,1.57652 0.16124,3.02765 0.3583,3.22471 0.19708,0.19707 2.25283,0.35831 4.56835,0.35831 l 4.21005,0 0,-3.22472 z m 20.96065,30.64245 0,-8.6069 3.49344,0 3.49344,0 0,-11.2865 0,-11.2865 -3.49344,0 -3.49344,0 0,-8.59924 0,-8.59925 12.91216,0 12.91217,0 0.5401,1.478 c 0.29705,0.81289 0.65697,1.80823 0.79982,2.21186 0.18143,0.51267 0.98297,0.0672 2.6593,-1.478 l 2.39958,-2.21186 6.46934,0 6.46933,0 2.00756,1.83872 2.00755,1.83871 0.16447,11.32888 0.16446,11.32887 -7.28578,0 -7.28578,0 0,-4.56834 0,-4.56835 -3.76217,0 -3.76217,0 0,11.82395 0,11.82396 3.23909,0 3.23908,0 -0.1487,7.92743 -0.14869,7.92743 -16.7954,0.14206 -16.79539,0.14207 0,-8.60689 z m 0.53745,-51.2872 c 0,-0.72534 12.92418,-9.26448 20.96066,-13.84893 27.34739,-15.600463 55.09218,-24.221753 75.24335,-23.380803 12.16059,0.50749 18.70463,2.86611 24.76364,8.925353 5.61753,5.61773 7.86164,11.51555 8.29785,21.80777 l 0.25056,5.91198 -0.75007,-3.49344 c -3.60262,-16.77914 -14.43769,-24.4054 -33.36815,-23.48617 -17.98848,0.8735 -44.96352,11.00401 -66.25952,24.88385 l -4.45249,2.90194 -12.34291,0 c -6.7886,0 -12.34292,-0.0997 -12.34292,-0.22155 z M 86.572237,126.00605 c -6.622894,-3.49629 -6.480001,-13.4454 0.243353,-16.94356 2.17349,-1.13086 6.642032,-0.95719 8.965074,0.34844 3.183133,1.78902 4.632296,4.40028 4.632296,8.34697 0,2.93122 -0.20572,3.60598 -1.650573,5.4139 -3.114097,3.89662 -8.017959,5.03678 -12.19015,2.83425 z"
         id="path6581"
         inkscape:connector-curvature="0" />
      <path
         inkscape:connector-curvature="0"
         id="path4851"
         d="m 190.77522,223.00975 c -17.34565,-3.27486 -27.30133,-14.19315 -27.15887,-29.78485 0.11905,-3.45034 -0.25377,-5.23088 0.79926,-0.8806 2.54896,10.53025 10.25126,18.52276 20.7316,21.51265 16.97938,4.84398 46.15258,-1.2554 72.7302,-15.20603 3.84775,-2.01969 8.32059,-4.55048 9.93965,-5.624 l 2.94375,-1.95184 13.95915,0 c 8.54739,0 13.7612,0.19247 13.44857,0.49643 -1.60895,1.56436 -14.05116,8.87166 -21.20251,12.45219 -17.59429,8.80909 -35.8148,14.96662 -54.01398,18.25374 -8.49062,1.53356 -25.84148,1.92845 -32.17693,0.73231 z m 23.84641,-94.50072 c 0,-0.72534 12.92418,-9.26448 20.96066,-13.84893 27.34739,-15.600462 55.09218,-24.221752 75.24335,-23.380802 12.16059,0.50749 18.70463,2.86611 24.76364,8.925352 5.61753,5.61773 7.86164,11.51555 8.29785,21.80777 -0.0758,3.39167 0.81412,8.53674 -0.49951,2.41854 -3.60262,-16.77914 -14.43769,-24.4054 -33.36815,-23.48617 -17.98848,0.8735 -44.96352,11.00401 -66.25952,24.88385 l -4.45249,2.90194 -12.34291,0 c -6.7886,0 -12.34292,-0.0997 -12.34292,-0.22155 z"
         style="fill:#ab3c08;fill-opacity:1"
         sodipodi:nodetypes="cccssscssssccssssccsscss" />
    </g>
  </g>
</svg>
