<?xml version="1.0" encoding="UTF-8" standalone="no"?>
<!-- Created with Inkscape (http://www.inkscape.org/) -->

<svg
   xmlns:dc="http://purl.org/dc/elements/1.1/"
   xmlns:cc="http://creativecommons.org/ns#"
   xmlns:rdf="http://www.w3.org/1999/02/22-rdf-syntax-ns#"
   xmlns:svg="http://www.w3.org/2000/svg"
   xmlns="http://www.w3.org/2000/svg"
   xmlns:sodipodi="http://sodipodi.sourceforge.net/DTD/sodipodi-0.dtd"
   xmlns:inkscape="http://www.inkscape.org/namespaces/inkscape"
   id="svg7910"
   version="1.1"
   inkscape:version="0.91 r13725"
   width="400"
   height="271.39401"
   viewBox="0 0 400 271.39401"
   sodipodi:docname="northernpipe.svg">
  <metadata
     id="metadata7916">
    <rdf:RDF>
      <cc:Work
         rdf:about="">
        <dc:format>image/svg+xml</dc:format>
        <dc:type
           rdf:resource="http://purl.org/dc/dcmitype/StillImage" />
        <dc:title></dc:title>
      </cc:Work>
    </rdf:RDF>
  </metadata>
  <defs
     id="defs7914" />
  <sodipodi:namedview
     pagecolor="#ffffff"
     bordercolor="#666666"
     borderopacity="1"
     objecttolerance="10"
     gridtolerance="10"
     guidetolerance="10"
     inkscape:pageopacity="0"
     inkscape:pageshadow="2"
     inkscape:window-width="1431"
     inkscape:window-height="834"
     id="namedview7912"
     showgrid="false"
     fit-margin-top="0"
     fit-margin-left="0"
     fit-margin-right="0"
     fit-margin-bottom="0"
     inkscape:zoom="0.834386"
     inkscape:cx="42.842"
     inkscape:cy="150.75987"
     inkscape:window-x="0"
     inkscape:window-y="0"
     inkscape:window-maximized="0"
     inkscape:current-layer="svg7910" />
  <g
     id="g4719"
     transform="translate(0,64.303006)">
    <path
       sodipodi:nodetypes="sssssssssscssssssccsssscssssssssssccscccccsssccsscscscccssssscccscssssscssssscssscccccssssccscsssssssscsscscccsssss"
       inkscape:connector-curvature="0"
       id="path8460"
       d="M 185.86871,206.55269 C 104.42764,198.43176 43.949902,122.7349 59.295007,48.1269 70.773845,-7.68325 112.82601,-49.135054 171.06661,-62.048949 c 17.69723,-3.92407 49.92277,-2.569932 68.07974,2.86075 52.13088,15.592142 89.02995,53.840339 101.25459,104.956719 2.67808,11.19823 3.07554,16.40387 2.41202,31.59025 -1.62641,37.22324 -14.69585,64.95588 -43.26857,91.81341 -12.29083,11.55304 -17.25745,15.03466 -31.2783,21.92618 -9.16707,4.50579 -22.1222,9.61468 -28.78918,11.35307 -14.60783,3.80895 -38.33531,5.62422 -53.6082,4.10126 z m 42.24406,-18.49974 c 11.21663,-2.11118 21.82689,-5.73604 30.81157,-10.52639 12.57655,-6.70543 28.99365,-18.35771 32.91202,-23.35982 1.7567,-2.24257 5.72467,-6.80479 8.81773,-10.13827 10.11274,-10.89883 20.27085,-31.43481 23.60936,-47.72945 1.031,-5.03204 0.968,-5.14146 -1.23188,-2.13945 -5.01187,6.83943 -12.47079,11.01018 -21.5758,12.06445 -4.92038,0.56972 -7.7672,1.30951 -9.8129,1.45224 -2.71284,0.11713 -4.69868,-0.33479 -7.34361,-0.43523 -5.28619,-0.1503 -6.01108,1.4279 -6.01238,13.08983 -5e-4,4.46707 -0.30771,8.42876 -0.68271,8.80375 -0.37498,0.37498 -3.3113,0.73926 -6.52516,0.80948 -12.12118,0.26481 -11.14662,2.42371 -11.14662,-24.69265 l 0,-24.38242 -6.80644,8.35562 c -3.74354,4.59558 -8.68695,9.3056 -10.98535,10.4667 -2.29839,1.16109 -5.5426,2.84115 -7.20934,3.7335 -1.66675,0.89233 -9.508,2.99841 -17.42503,4.68019 -7.91703,1.68175 -16.45146,1.87122 -17.70152,2.15889 -1.90228,0.43776 -0.89048,-0.87765 -1.09329,-14.70464 -0.27695,-18.87772 -0.2843,-20.46477 4.18352,-20.49616 3.59971,-0.0254 12.01988,-2.83186 17.24502,-5.74803 4.32963,-2.41636 5.79019,-8.22214 3.47472,-13.81214 -2.21059,-5.33682 -4.89679,-6.1286 -20.88185,-6.15505 l -12.50057,-0.0206 -0.11394,7.9549 c -0.0627,4.37519 -0.23315,26.0239 -0.37881,48.10824 l -0.26484,40.15333 -18.18264,0 -18.18264,0 -0.75762,-17.32971 -0.75761,-17.32971 -5.30327,-0.50562 c -9.35613,-0.892 -11.62735,-1.81996 -16.39837,-6.69988 -4.52758,-4.63092 -7.57675,-16.26416 -8.25406,-18.58751 -0.47394,-1.62577 -0.263,-0.77339 -0.6361,-3.34881 -0.25347,-2.92431 -0.19453,-1.60477 -0.30848,-3.80624 -0.024,-1.07008 -0.35602,-5.68502 -0.70964,-10.0757 -0.78955,-9.80325 -3.10563,-13.01874 -8.43097,-11.705 -2.14527,0.52923 -4.51701,1.56462 -5.27055,2.30083 -0.75351,0.73623 -1.43536,12.10895 -1.51522,25.27273 l -0.14515,23.93412 -8.712519,0.45441 c -8.175174,0.4264 -8.722246,0.23949 -8.870313,-3.03044 -0.08682,-1.91666 -0.192233,-12.51936 -0.234331,-23.56152 0.06031,-4.873 -0.928131,-19.3764 -0.977162,-19.97966 1.002712,-2.61302 -5.487842,-9.78845 -8.233573,-8.73482 -5.286263,2.02853 -4.369966,33.88393 1.490614,51.82158 8.138751,24.91044 25.983624,48.42161 47.507974,62.59322 4.58354,3.0178 8.67464,5.85141 9.09132,6.2969 2.71798,2.90595 25.6837,12.13099 34.85006,13.99885 17.2471,3.51448 40.58447,3.7298 57.57836,0.53124 z m -49.00829,-65.23757 c 0.13002,-7.50035 0.30048,-29.39155 0.37881,-48.64711 l 0.14243,-35.01012 12.50056,0.39992 c 6.87532,0.21997 16.39748,0.46246 21.16036,0.53887 7.4136,0.11895 9.42787,0.81332 13.99708,4.82514 5.87903,5.16187 9.34554,14.08903 7.82436,20.14988 -1.79332,7.14517 -9.70195,14.38086 -18.52032,16.94443 l -8.17286,2.37591 0,7.46858 c 0,8.89861 0.90419,9.14051 15.83958,4.23757 18.45253,-6.05753 28.03525,-18.16003 28.03525,-35.4071 0,-15.51559 -9.69889,-30.51976 -21.92185,-33.91309 -3.47447,-0.96456 -18.76322,-1.68127 -35.96876,-1.68613 l -29.9256,-0.009 -0.21625,11.74297 c -0.76496,41.53786 -0.8786,96.68527 -0.20286,98.44623 0.55844,1.45525 2.92319,1.95001 7.80739,1.6335 l 7.00631,-0.45402 0.23637,-13.63698 z m -24.88385,-67.8061 0.40396,-39.77453 35.60767,0.49547 c 26.03278,0.36225 37.51064,1.09726 42.68454,2.73341 9.09981,2.87765 19.73811,12.27531 24.23705,21.41051 3.33359,6.76893 3.56362,6.94154 4.01559,3.01338 l 0.47945,-4.16686 19.21842,0.009 c 23.35044,0.0106 28.89605,1.41528 37.79963,9.5767 l 6.89978,6.32463 -0.9747,-7.2421 c -1.8753,-13.93365 -13.64968,-36.61786 -26.79588,-51.62424 -10.99307,-12.54858 -20.97246,-20.57038 -35.0046,-28.137964 -39.4611,-21.281533 -81.74502,-22.0933 -121.87823,-2.339821 C 123.6901,-26.23592 109.92574,-14.9512 98.835296,-0.21546 90.642999,10.66957 79.621199,31.04616 79.621199,35.3067 c 0,1.08584 1.875087,2.64392 4.166857,3.46236 2.291772,0.81846 6.078686,2.56645 8.415366,3.88445 3.875311,2.18586 4.694011,2.18495 9.320318,-0.0106 11.89307,-5.64363 26.57421,-0.72412 33.51398,11.23025 0.72569,1.25006 2.09217,9.92537 3.03664,19.27848 0.94448,9.3531 2.5812,18.04667 3.63718,19.31905 1.05599,1.27245 4.21162,2.31347 7.01254,2.31347 l 5.09258,0 0.40397,-39.77451 z m 150.44348,34.35416 c 10.10945,-4.79724 12.92715,-22.46182 4.86839,-30.5206 -5.35728,-5.35725 -30.15785,-8.92281 -31.82603,-4.57558 -1.10171,2.87097 -1.39232,34.28282 -0.33305,35.99676 1.50537,2.43575 21.66162,1.77059 27.29069,-0.90058 z"
       style="fill:#13253e;fill-opacity:1" />
    <path
       sodipodi:nodetypes="cssssssccssssssscsscccsscsscsccsscccsscscssssssccc"
       inkscape:connector-curvature="0"
       id="path4184"
       d="m 181.83524,188.76088 c -9.75722,-1.13275 -16.17507,-2.7543 -26.66284,-6.73669 -12.34284,-4.68678 -16.36657,-6.85964 -28.27878,-15.27082 C 104.68458,151.0716 87.848436,129.04045 79.888378,105.24406 75.438386,91.94094 73.236003,66.32601 75.760576,57.23545 c 1.121806,-4.03943 2.614197,-4.77745 5.227706,-2.58522 4.312316,3.6172 6.212959,4.00529 5.490173,28.92137 -0.376006,12.96181 -0.155989,24.60779 -0.155989,24.60779 0,0 17.844184,0.88643 18.616824,0.11378 0.1742,-0.1742 0.0649,-11.41517 0.42735,-24.30965 0.40131,-14.27646 1.10114,-24.04914 1.7896,-24.99065 0.62181,-0.85038 2.83399,-1.82256 4.91595,-2.16042 3.4272,-0.55616 3.93605,-0.32294 5.37753,2.46457 0.89586,1.73239 1.87774,7.3251 2.24519,12.78844 1.0313,15.33326 5.12764,27.15123 11.49716,33.16934 3.61297,3.41363 6.40132,4.49089 14.05664,5.43067 l 5.94601,0.72995 0.13604,5.35456 c 0.0748,2.94501 0.42383,10.70597 0.77557,17.24658 l 0.63952,11.89203 18.216,0.28181 18.216,0.28182 0.64476,-3.90113 c 0.3546,-2.14562 0.64986,-23.79442 0.65612,-48.10844 l 0.0114,-44.20732 13.18464,0.0153 c 15.57225,0.018 17.77509,0.7923 19.72935,6.93489 1.14414,3.59628 1.14317,4.80174 -0.006,7.19899 -1.75687,3.66559 -8.01593,7.12011 -16.85077,9.30032 -5.72023,1.41161 -7.83774,0.63482 -7.83774,0.63482 l 0.0105,37.4274 c 0,0 6.01245,-0.38236 16.14444,-2.65882 23.82073,-5.35204 29.25072,-8.13966 38.95472,-19.99839 l 5.43755,-6.64495 0.27827,22.66271 -0.36801,24.34308 5.2319,-0.0309 c 2.61693,-0.0154 2.22095,0.10873 7.47129,0.16345 l 6.24649,0.0651 0.2421,-10.21735 c 0.13615,-5.74628 0.32564,-11.0105 0.32564,-11.0105 0,0 4.6501,-0.29161 8.29524,-0.31216 8.31713,-0.0469 21.13606,-2.35615 25.61755,-4.61491 1.94394,-0.97979 5.27946,-3.45329 7.41228,-5.49667 2.1328,-2.04338 3.87783,-3.10776 3.87783,-2.36529 0,3.00267 -6.54515,20.6075 -10.45676,28.12613 -17.96103,34.52413 -54.9371,60.21159 -93.46881,64.93352 -10.40765,1.27543 -27.37847,1.2976 -38.12642,0.0499 l 0,-1e-5 z"
       style="opacity:1;fill:#849cad;fill-opacity:1;stroke:#7e9db3;stroke-width:3.74600005;stroke-linejoin:miter;stroke-miterlimit:4;stroke-dasharray:none;stroke-opacity:1" />
  </g>
</svg>
