<?xml version="1.0" encoding="UTF-8" standalone="no"?>
<!-- Created with Inkscape (http://www.inkscape.org/) -->

<svg
   xmlns:dc="http://purl.org/dc/elements/1.1/"
   xmlns:cc="http://creativecommons.org/ns#"
   xmlns:rdf="http://www.w3.org/1999/02/22-rdf-syntax-ns#"
   xmlns:svg="http://www.w3.org/2000/svg"
   xmlns="http://www.w3.org/2000/svg"
   xmlns:xlink="http://www.w3.org/1999/xlink"
   xmlns:sodipodi="http://sodipodi.sourceforge.net/DTD/sodipodi-0.dtd"
   xmlns:inkscape="http://www.inkscape.org/namespaces/inkscape"
   id="svg7910"
   version="1.1"
   inkscape:version="0.91 r13725"
   width="400"
   height="400"
   viewBox="0 0 400 400"
   sodipodi:docname="northernpipe.svg.2017_08_10_13_29_59.0.svg">
  <metadata
     id="metadata7916">
    <rdf:RDF>
      <cc:Work
         rdf:about="">
        <dc:format>image/svg+xml</dc:format>
        <dc:type
           rdf:resource="http://purl.org/dc/dcmitype/StillImage" />
        <dc:title />
      </cc:Work>
    </rdf:RDF>
  </metadata>
  <defs
     id="defs7914">
    <linearGradient
       inkscape:collect="always"
       id="linearGradient4249">
      <stop
         style="stop-color:#000000;stop-opacity:1"
         offset="0"
         id="stop11380" />
      <stop
         id="stop4251"
         offset="0.60297096"
         style="stop-color:#92afc2;stop-opacity:1" />
      <stop
         style="stop-color:#ffffff;stop-opacity:1"
         offset="1"
         id="stop11382" />
    </linearGradient>
    <filter
       inkscape:label="Combined Lighting"
       inkscape:menu="Bevels"
       inkscape:menu-tooltip="Basic specular bevel to use for building textures"
       style="color-interpolation-filters:sRGB;"
       id="filter11323">
      <feGaussianBlur
         stdDeviation="6"
         in="SourceGraphic"
         result="result0"
         id="feGaussianBlur11325" />
      <feDiffuseLighting
         lighting-color="rgb(255,255,255)"
         diffuseConstant="1"
         surfaceScale="4"
         result="result5"
         id="feDiffuseLighting11327">
        <feDistantLight
           elevation="45"
           azimuth="235"
           id="feDistantLight11329" />
      </feDiffuseLighting>
      <feComposite
         k1="1.4"
         in2="SourceGraphic"
         in="result5"
         result="fbSourceGraphic"
         operator="arithmetic"
         id="feComposite11331" />
      <feGaussianBlur
         result="result0"
         in="fbSourceGraphic"
         stdDeviation="6"
         id="feGaussianBlur11333" />
      <feSpecularLighting
         specularExponent="25"
         specularConstant="1"
         surfaceScale="4"
         lighting-color="rgb(255,255,255)"
         result="result1"
         in="result0"
         id="feSpecularLighting11335">
        <feDistantLight
           azimuth="235"
           elevation="45"
           id="feDistantLight11337" />
      </feSpecularLighting>
      <feComposite
         k3="1"
         k2="1"
         operator="arithmetic"
         in="fbSourceGraphic"
         in2="result1"
         result="result4"
         id="feComposite11339" />
      <feComposite
         operator="in"
         result="result2"
         in2="SourceGraphic"
         in="result4"
         id="feComposite11341" />
    </filter>
    <linearGradient
       inkscape:collect="always"
       xlink:href="#linearGradient4249"
       id="linearGradient11384"
       x1="199.54793"
       y1="362.99411"
       x2="200.45206"
       y2="37.005894"
       gradientUnits="userSpaceOnUse"
       gradientTransform="translate(-345.56096,-79.901598)"
       spreadMethod="pad" />
  </defs>
  <sodipodi:namedview
     pagecolor="#ffffff"
     bordercolor="#666666"
     borderopacity="1"
     objecttolerance="10"
     gridtolerance="10"
     guidetolerance="10"
     inkscape:pageopacity="0"
     inkscape:pageshadow="2"
     inkscape:window-width="1169"
     inkscape:window-height="872"
     id="namedview7912"
     showgrid="false"
     fit-margin-top="0"
     fit-margin-left="0"
     fit-margin-right="0"
     fit-margin-bottom="0"
     inkscape:zoom="0.834386"
     inkscape:cx="-3.4986105"
     inkscape:cy="204.60435"
     inkscape:window-x="0"
     inkscape:window-y="0"
     inkscape:window-maximized="0"
     inkscape:current-layer="svg7910" />
  <g
     style="stroke:#000000;stroke-opacity:0;stroke-width:4.1;stroke-miterlimit:4;stroke-dasharray:none;fill:#000000;fill-opacity:1"
     id="g11386">
    <path
       d="m 157.89136,281.00314 c -0.41599,-8.29282 -3.86271,-43.43651 -2.52457,-76.4894 l 2.46907,-60.98783 42.99834,-0.0947 c 24.2361,-0.0534 33.63917,3.94217 36.59388,4.86068 7.85585,2.44214 17.95027,12.66033 22.53852,22.81488 3.57129,7.9038 1.87274,0.57237 1.85953,13.11709 -0.013,12.44206 -0.42545,14.82416 -3.65157,21.09513 -6.77236,13.1642 -20.02466,22.66699 -39.21385,28.119 -11.62098,3.30174 -12.70641,2.59964 -12.70641,-8.21897 l 0,-8.88479 9.78347,-6.04664 c 15.05202,-9.30285 23.66254,-13.66296 21.97308,-26.259 -1.07546,-8.01829 -0.85698,-9.21646 -7.19161,-14.15401 -4.49409,-3.50294 -6.39093,-3.94314 -20.90016,-4.85022 -8.7766,-0.54869 -12.77222,-0.62179 -19.75487,-0.68028 l -12.69569,-0.10639 0,55.19062 c 0,30.35483 -0.39944,60.01958 -0.88766,65.92161 l -0.46392,-3.67572 -8.52279,0 -8.5228,0 -1.18006,-0.67105 z m 25.73079,75.64273 C 89.233794,347.23389 19.141465,259.50294 36.926094,173.03396 50.229808,108.35125 98.967311,60.309551 166.46685,45.342639 c 20.51069,-4.547908 57.85937,-2.978493 78.90289,3.315544 60.41851,18.070941 103.18369,62.399737 117.35178,121.642467 3.10383,12.97849 3.56448,19.01171 2.79547,36.61238 -1.88497,43.1409 -17.03215,75.2824 -50.14729,106.40967 -14.2448,13.38971 -20.001,17.42483 -36.25084,25.41195 -10.62443,5.22211 -25.63914,11.14319 -33.36601,13.15795 -16.93015,4.41448 -44.42976,6.51834 -62.1307,4.75327 z m 48.95991,-21.44079 c 12.99983,-2.44681 25.29688,-6.64793 35.70992,-12.19984 14.57594,-7.77144 33.60298,-21.27617 38.14429,-27.07351 2.03597,-2.59908 6.63476,-7.88659 10.21955,-11.75002 11.72043,-12.6315 23.49345,-36.43223 27.36271,-55.31736 1.1949,-5.83202 1.12189,-5.95883 -1.42772,-2.47957 -5.80864,7.92675 -14.45336,12.76055 -25.00587,13.98242 -5.7026,0.6603 -9.002,1.5177 -11.37292,1.68312 -3.14412,0.13575 -5.44567,-0.38801 -8.51108,-0.50442 -6.12658,-0.1742 -6.96671,1.6549 -6.96822,15.17081 -5.8e-4,5.17724 -0.35663,9.76875 -0.79124,10.20335 -0.4346,0.4346 -3.83772,0.85679 -7.56251,0.93817 -14.04818,0.30691 -12.91869,2.80903 -12.91869,-28.61822 l 0,-28.25868 -7.88851,9.68398 c -4.33867,5.32617 -10.06797,10.78498 -12.73177,12.13067 -2.66378,1.34567 -6.42374,3.29283 -8.35546,4.32704 -1.93172,1.03419 -11.01955,3.47512 -20.19522,5.42423 -9.17565,1.94911 -21.01209,4.15003 -21.01209,4.15003 -0.0334,2.26208 -0.98504,-2.51529 -1.2201,-18.54046 -0.32097,-21.87885 -2.21057,-22.17309 2.96753,-22.20947 4.17198,-0.0294 16.26128,-4.97698 22.3171,-8.35676 5.01794,-2.80051 6.7107,-9.52927 4.02712,-16.00796 -2.56202,-6.18525 -5.67527,-7.10291 -24.20159,-7.13356 l -14.48788,-0.0239 -0.13205,9.21955 c -0.0727,5.07075 -0.27022,30.16111 -0.43903,55.75636 l -0.30695,46.5368 -21.07327,0 -21.07327,0 -0.87806,-20.08474 -0.87805,-20.08474 -6.14637,-0.586 c -10.84355,-1.03381 -13.47584,-2.10929 -19.00534,-7.76501 -5.24737,-5.36713 -8.78129,-18.84979 -9.56627,-21.54251 -0.54929,-1.88423 -0.30481,-0.89634 -0.73723,-3.88119 -0.29376,-3.38921 -0.22545,-1.85989 -0.35752,-4.41135 -0.0278,-1.2402 -0.41262,-6.58881 -0.82246,-11.67751 -0.91507,-11.36174 -3.59935,-15.08842 -9.771304,-13.56583 -2.486312,0.61337 -5.235113,1.81336 -6.108443,2.66661 -0.873305,0.85328 -1.663556,14.034 -1.756105,29.29053 l -0.168231,27.7391 -10.097609,0.52665 c -9.474842,0.49419 -10.108886,0.27757 -10.280492,-3.51221 -0.100625,-2.22137 -0.222794,-14.50965 -0.271585,-27.30727 0.0699,-5.64769 -1.075683,-22.45681 -1.132509,-23.15597 1.162121,-3.02844 -6.360284,-11.3446 -9.542524,-10.12346 -6.12666,2.35102 -5.064692,39.27071 1.727588,60.06004 9.432628,28.87063 30.114429,56.11955 55.060664,72.54412 5.31222,3.49757 10.05371,6.78166 10.53664,7.29797 3.15008,3.36793 29.76683,14.05954 40.39043,16.22435 19.989,4.0732 47.03648,4.32275 66.73202,0.61569 z m -56.79949,-75.60886 c 0.15068,-8.69274 0.34824,-34.06415 0.43903,-56.3809 l 0.16507,-40.57594 14.48787,0.4635 c 7.96834,0.25494 19.0043,0.53598 24.52437,0.62454 8.5922,0.13786 10.92669,0.94262 16.2223,5.59222 6.81367,5.98249 10.83127,16.32887 9.06826,23.35326 -2.07842,8.28109 -11.24434,16.66709 -21.46463,19.63821 l -9.47216,2.75362 0,8.65592 c 0,10.31329 1.04794,10.59364 18.35772,4.91125 21.38606,-7.02054 32.49222,-21.04707 32.49222,-41.03603 0,-17.98222 -11.2408,-35.37171 -25.40693,-39.3045 -4.02684,-1.11791 -21.74615,-1.94856 -41.68698,-1.95419 l -34.6831,-0.01 -0.25063,13.60983 c -0.88657,48.14144 -1.01827,112.05605 -0.23511,114.09696 0.64722,1.6866 3.38791,2.26002 9.04859,1.89319 l 8.12016,-0.5262 0.27395,-15.80495 z m -28.83982,-78.58574 0.46818,-46.09778 41.26848,0.57424 c 30.1714,0.41984 43.47398,1.2717 49.47042,3.16796 10.54647,3.33513 22.87602,14.2268 28.09019,24.81429 3.86356,7.84504 4.13015,8.04509 4.65398,3.49244 l 0.55567,-4.82929 22.27371,0.0105 c 27.06264,0.0123 33.48987,1.64027 43.80892,11.09918 l 7.99669,7.3301 -1.12965,-8.39343 C 342.2259,156.02991 328.57966,129.73942 313.34352,112.34736 300.6028,97.803839 289.03691,88.506759 272.77398,79.736099 227.03945,55.071283 178.03334,54.130463 131.51986,77.024299 c -19.96131,9.8249 -35.913891,22.90364 -48.767465,39.982031 -9.494686,12.6155 -22.268704,36.23151 -22.268704,41.16937 0,1.25847 2.173184,3.06425 4.829294,4.0128 2.656111,0.94858 7.045059,2.97446 9.753219,4.50199 4.491397,2.53336 5.440252,2.53231 10.802036,-0.0123 13.783796,-6.54084 30.79891,-0.83923 38.84195,13.01561 0.84105,1.44879 2.42478,11.50328 3.51939,22.34332 1.09464,10.84003 2.99156,20.91569 4.21541,22.39035 1.22387,1.47474 4.88118,2.68126 8.12738,2.68126 l 5.90218,0 0.4682,-46.09776 z m 174.36059,39.8157 c 11.71662,-5.5599 14.98227,-26.03275 5.64235,-35.37269 -6.20896,-6.20893 -34.95227,-10.34134 -36.88565,-5.303 -1.27685,3.3274 -1.61367,39.73302 -0.38599,41.71944 1.74468,2.82297 25.10532,2.05207 31.62929,-1.04375 z"
       style="opacity:1;fill:#000000;fill-opacity:1;stroke:#000000;stroke-width:4.1;stroke-linejoin:miter;stroke-miterlimit:4;stroke-dasharray:none;stroke-opacity:0"
       id="path11388" />
  </g>
  <g
     id="g11373"
     style="stroke:none;stroke-width:4.0999999;stroke-miterlimit:4;stroke-dasharray:none;stroke-opacity:0;fill-rule:nonzero"
     transform="translate(348.36247,75.901595)">
    <path
       id="path11363"
       style="opacity:1;fill:url(#linearGradient11384);fill-opacity:1;fill-rule:nonzero;stroke:none;stroke-width:4.0999999;stroke-linejoin:miter;stroke-miterlimit:4;stroke-dasharray:none;stroke-opacity:0"
       d="m -187.6696,201.10155 c -0.41599,-8.29282 -3.86271,-43.43651 -2.52457,-76.4894 l 2.46907,-60.987833 42.99834,-0.0947 c 24.2361,-0.0534 33.63917,3.94217 36.59388,4.86068 7.85585,2.44214 17.950269,12.66033 22.538519,22.81488 3.57129,7.903803 1.87274,0.57237 1.85953,13.117093 -0.013,12.44206 -0.42545,14.82416 -3.65157,21.09513 -6.77236,13.1642 -20.024659,22.66699 -39.213849,28.119 -11.62098,3.30174 -12.70641,2.59964 -12.70641,-8.21897 l 0,-8.88479 9.78347,-6.04664 c 15.05202,-9.30285 23.66254,-13.66296 21.97308,-26.259 -1.07546,-8.018293 -0.85698,-9.216463 -7.19161,-14.154013 -4.49409,-3.50294 -6.39093,-3.94314 -20.90016,-4.85022 -8.7766,-0.54869 -12.77222,-0.62179 -19.75487,-0.68028 l -12.69569,-0.10639 0,55.190623 c 0,30.35483 -0.39944,60.01958 -0.88766,65.92161 l -0.46392,-3.67572 -8.52279,0 -8.5228,0 -1.18006,-0.67105 z m 25.73079,75.64273 c -94.38836,-9.41198 -164.48068,-97.14293 -146.69606,-183.611913 13.30372,-64.682712 62.04122,-112.724411 129.54076,-127.691323 20.51069,-4.547908 57.85937,-2.978493 78.90289,3.315544 60.418509,18.070941 103.1836889,62.399737 117.351779,121.642469 3.10383,12.978493 3.56448,19.011713 2.79547,36.612383 -1.88497,43.1409 -17.0321501,75.2824 -50.14729,106.40967 -14.2448,13.38971 -20.001,17.42483 -36.25084,25.41195 -10.62443,5.22211 -25.63914,11.14319 -33.366009,13.15795 -16.93015,4.41448 -44.42976,6.51834 -62.1307,4.75327 z m 48.95991,-21.44079 c 12.99983,-2.44681 25.296879,-6.64793 35.709919,-12.19984 14.57594,-7.77144 33.60298,-21.27617 38.14429,-27.07351 2.03597,-2.59908 6.63476,-7.88659 10.21955,-11.75002 11.72043,-12.6315 23.4934499,-36.43223 27.3627099,-55.31736 1.1949,-5.83202 1.12189,-5.95883 -1.42772,-2.47957 -5.8086399,7.92675 -14.4533599,12.76055 -25.0058699,13.98242 -5.7026,0.6603 -9.002,1.5177 -11.37292,1.68312 -3.14412,0.13575 -5.44567,-0.38801 -8.51108,-0.50442 -6.12658,-0.1742 -6.96671,1.6549 -6.96822,15.17081 -5.8e-4,5.17724 -0.35663,9.76875 -0.79124,10.20335 -0.4346,0.4346 -3.83772,0.85679 -7.56251,0.93817 -14.04818,0.30691 -12.91869,2.80903 -12.91869,-28.61822 l 0,-28.25868 -7.88851,9.68398 c -4.33867,5.32617 -10.06797,10.78498 -12.73177,12.13067 -2.663779,1.34567 -6.423739,3.29283 -8.355459,4.32704 -1.93172,1.03419 -11.01955,3.47512 -20.19522,5.42423 -9.17565,1.94911 -21.01209,4.15003 -21.01209,4.15003 -0.0334,2.26208 -0.98504,-2.51529 -1.2201,-18.54046 -0.32097,-21.87885 -2.21057,-22.17309 2.96753,-22.20947 4.17198,-0.0294 16.26128,-4.97698 22.3171,-8.35676 5.01794,-2.80051 6.7107,-9.52927 4.02712,-16.00796 -2.56202,-6.185253 -5.67527,-7.102913 -24.20159,-7.133563 l -14.48788,-0.0239 -0.13205,9.219553 c -0.0727,5.07075 -0.27022,30.16111 -0.43903,55.75636 l -0.30695,46.5368 -21.07327,0 -21.07327,0 -0.87806,-20.08474 -0.87805,-20.08474 -6.14637,-0.586 c -10.84355,-1.03381 -13.47584,-2.10929 -19.00534,-7.76501 -5.24737,-5.36713 -8.78129,-18.84979 -9.56627,-21.54251 -0.54929,-1.88423 -0.30481,-0.89634 -0.73723,-3.88119 -0.29376,-3.38921 -0.22545,-1.85989 -0.35752,-4.41135 -0.0278,-1.2402 -0.41262,-6.58881 -0.82246,-11.67751 -0.91507,-11.36174 -3.59935,-15.08842 -9.7713,-13.56583 -2.48632,0.61337 -5.23512,1.81336 -6.10845,2.66661 -0.8733,0.85328 -1.66355,14.034 -1.7561,29.29053 l -0.16823,27.7391 -10.09761,0.52665 c -9.47484,0.49419 -10.10889,0.27757 -10.28049,-3.51221 -0.10063,-2.22137 -0.2228,-14.50965 -0.27159,-27.30727 0.0699,-5.64769 -1.07568,-22.45681 -1.13251,-23.15597 1.16212,-3.02844 -6.36028,-11.344603 -9.54252,-10.12346 -6.12666,2.35102 -5.06469,39.27071 1.72759,60.06004 9.43262,28.87063 30.11443,56.11955 55.06066,72.54412 5.31222,3.49757 10.05371,6.78166 10.53664,7.29797 3.15008,3.36793 29.76683,14.05954 40.39043,16.22435 19.989,4.0732 47.03648,4.32275 66.73202,0.61569 z m -56.79949,-75.60886 c 0.15068,-8.69274 0.34824,-34.06415 0.43903,-56.3809 l 0.16507,-40.575943 14.48787,0.4635 c 7.96834,0.25494 19.0043,0.53598 24.52437,0.62454 8.5922,0.13786 10.92669,0.94262 16.2223,5.59222 6.81367,5.98249 10.83127,16.328873 9.06826,23.353263 -2.07842,8.28109 -11.24434,16.66709 -21.46463,19.63821 l -9.47216,2.75362 0,8.65592 c 0,10.31329 1.04794,10.59364 18.35772,4.91125 21.386059,-7.02054 32.492219,-21.04707 32.492219,-41.03603 0,-17.982223 -11.2408,-35.371713 -25.406929,-39.304503 -4.02684,-1.11791 -21.74615,-1.94856 -41.68698,-1.95419 l -34.6831,-0.01 -0.25063,13.60983 c -0.88657,48.141443 -1.01827,112.056053 -0.23511,114.096963 0.64722,1.6866 3.38791,2.26002 9.04859,1.89319 l 8.12016,-0.5262 0.27395,-15.80495 z m -28.83982,-78.58574 0.46818,-46.097785 41.26848,0.57424 c 30.1714,0.41984 43.47398,1.271702 49.47042,3.167962 10.546469,3.33513 22.876019,14.2268 28.090189,24.81429 3.86356,7.84504 4.13015,8.04509 4.65398,3.49244 l 0.55567,-4.82929 22.27371,0.0105 c 27.06264,0.0123 33.48987,1.64027 43.80892,11.09918 l 7.9966899,7.330103 -1.12965,-8.393433 C -3.3350611,76.128317 -16.981301,49.837825 -32.217441,32.445765 -44.958161,17.902244 -56.524051,8.605164 -72.786981,-0.1654958 -118.52151,-24.830312 -167.52762,-25.771132 -214.0411,-2.8772958 c -19.96131,9.8249 -35.91389,22.9036398 -48.76746,39.9820308 -9.49469,12.6155 -22.26871,36.231512 -22.26871,41.169372 0,1.25847 2.17319,3.06425 4.8293,4.0128 2.65611,0.94858 7.04505,2.97446 9.75321,4.50199 4.4914,2.53336 5.44026,2.53231 10.80204,-0.0123 13.7838,-6.54084 30.79891,-0.83923 38.84195,13.015613 0.84105,1.44879 2.42478,11.50328 3.51939,22.34332 1.09464,10.84003 2.99156,20.91569 4.21541,22.39035 1.22387,1.47474 4.88118,2.68126 8.12738,2.68126 l 5.90218,0 0.4682,-46.09776 z m 174.360589,39.8157 c 11.71662,-5.5599 14.98227,-26.03275 5.64235,-35.37269 -6.20896,-6.20893 -34.95227,-10.341343 -36.88565,-5.303 -1.27685,3.3274 -1.61367,39.73302 -0.38599,41.71944 1.74468,2.82297 25.10532,2.05207 31.62929,-1.04375 z" />
  </g>
</svg>
