<?xml version="1.0" encoding="UTF-8" standalone="no"?>
<!-- Created with Inkscape (http://www.inkscape.org/) -->

<svg
   xmlns:dc="http://purl.org/dc/elements/1.1/"
   xmlns:cc="http://creativecommons.org/ns#"
   xmlns:rdf="http://www.w3.org/1999/02/22-rdf-syntax-ns#"
   xmlns:svg="http://www.w3.org/2000/svg"
   xmlns="http://www.w3.org/2000/svg"
   xmlns:sodipodi="http://sodipodi.sourceforge.net/DTD/sodipodi-0.dtd"
   xmlns:inkscape="http://www.inkscape.org/namespaces/inkscape"
   id="svg7281"
   version="1.1"
   inkscape:version="0.91 r13725"
   width="400"
   height="400"
   viewBox="0 0 400 399.99999"
   sodipodi:docname="simmons.svg">
  <metadata
     id="metadata7287">
    <rdf:RDF>
      <cc:Work
         rdf:about="">
        <dc:format>image/svg+xml</dc:format>
        <dc:type
           rdf:resource="http://purl.org/dc/dcmitype/StillImage" />
        <dc:title></dc:title>
      </cc:Work>
    </rdf:RDF>
  </metadata>
  <defs
     id="defs7285" />
  <sodipodi:namedview
     pagecolor="#ffffff"
     bordercolor="#666666"
     borderopacity="1"
     objecttolerance="10"
     gridtolerance="10"
     guidetolerance="10"
     inkscape:pageopacity="0"
     inkscape:pageshadow="2"
     inkscape:window-width="1450"
     inkscape:window-height="848"
     id="namedview7283"
     showgrid="false"
     fit-margin-top="0"
     fit-margin-left="0"
     fit-margin-right="0"
     fit-margin-bottom="0"
     inkscape:zoom="1.043771"
     inkscape:cx="178.34428"
     inkscape:cy="150.3741"
     inkscape:window-x="0"
     inkscape:window-y="0"
     inkscape:window-maximized="0"
     inkscape:current-layer="svg7281" />
  <path
     style="fill:#000000"
     d="m 219.80744,263.45316 c -2.3564,-2.3564 -2.07044,-5.28201 0.51629,-5.28201 1.94541,0 1.95536,-0.22894 0.091,-2.09324 -3.28172,-3.28173 -4.06589,-7.48408 -2.22559,-11.92695 1.71034,-4.12913 3.67276,-4.97222 12.11277,-5.20394 l 4.51751,-0.12399 0,11.71017 c 0,10.1549 -0.35709,11.90128 -2.68863,13.14908 -3.6305,1.94299 -10.27484,1.81947 -12.3234,-0.22909 z m 11.95403,-1.39 c 0.99432,-0.99433 1.66801,-5.78842 1.66801,-11.86984 0,-8.65255 -0.29415,-9.92964 -1.93697,-8.40952 -1.37352,1.27095 -1.54695,2.52701 -0.59622,4.31802 0.95587,1.80063 0.70465,3.49655 -0.87507,5.90751 -2.58911,3.95148 -3.93118,4.18382 -6.91748,1.19752 -4.15139,-4.15139 -2.20977,-9.23401 4.07072,-10.65606 2.67554,-0.60581 2.68149,-0.67199 0.15857,-1.76079 -3.41086,-1.47203 -6.62065,0.6273 -8.19904,5.36245 -1.58334,4.75004 1.84642,10.57227 6.33501,10.75405 2.35051,0.0952 2.00827,0.43928 -1.42205,1.42975 -4.6528,1.34344 -5.83274,3.24252 -2.78,4.47433 3.26666,1.31814 8.82482,0.92228 10.49452,-0.74742 z m -8.75573,-1.10993 c -0.49485,-0.80069 0.49965,-1.24178 2.35047,-1.04251 2.35438,0.2535 3.20983,-0.36416 3.21415,-2.3207 0.003,-1.46639 0.78511,-2.92589 1.7375,-3.24336 2.10646,-0.70214 2.23744,1.67211 0.29271,5.30587 -1.52241,2.84466 -6.15074,3.63731 -7.59483,1.3007 z m 6.25373,-12.51211 c 0,-3.15727 -0.63579,-4.17001 -2.61789,-4.17001 -2.65313,0 -4.36346,3.42711 -3.29506,6.60252 0.32153,0.95563 1.78348,1.7375 3.24877,1.7375 2.03353,0 2.66418,-0.98711 2.66418,-4.17001 z m 93.42421,3.92619 0.40103,-12.96121 6.25502,-0.2409 c 7.97628,-0.30718 11.12003,2.34806 11.12003,9.39206 0,6.00063 -2.87427,9.61389 -7.64763,9.61389 -2.34222,0 -3.40594,0.89353 -3.72323,3.12751 -0.28806,2.02829 -1.56221,3.28608 -3.62521,3.57869 -3.14341,0.44585 -3.1763,0.29783 -2.78001,-12.51004 z m 4.03988,6.15134 c 0.0901,-2.86688 0.27032,-7.40177 0.40045,-10.07753 0.27804,-5.71714 -0.38335,-8.34002 -2.10301,-8.34002 -0.6827,0 -1.24129,5.31676 -1.24129,11.81503 0,6.95002 0.57235,11.81503 1.39001,11.81503 0.7645,0 1.46373,-2.34563 1.55384,-5.21251 z m 10.67819,-3.40551 c 0.9174,-0.9174 1.668,-4.02291 1.668,-6.90112 0,-5.7377 -3.79508,-9.17228 -8.10113,-7.33163 -1.9173,0.81958 -1.71591,1.15326 1.15112,1.90721 2.85249,0.75013 3.47501,1.76678 3.47501,5.67514 0,3.68322 -0.78683,5.15936 -3.47501,6.51935 l -3.47501,1.75806 3.54451,0.0204 c 1.94948,0.0111 4.29511,-0.7301 5.21251,-1.6475 z m -3.19701,-6.07382 c 0,-2.65896 -0.7891,-4.1871 -2.31374,-4.48073 -2.9987,-0.57749 -4.74103,4.71904 -2.45749,7.47054 2.51769,3.03362 4.77123,1.62148 4.77123,-2.98981 z m 49.34513,14.06591 c 0,-1.10876 0.9134,-2.52711 2.02978,-3.15186 1.72981,-0.96805 1.52529,-2.52578 -1.38376,-10.54012 -3.07337,-8.46707 -3.18636,-9.49138 -1.13377,-10.27902 2.59782,-0.99688 6.04777,2.87793 6.04777,6.79256 0,4.08668 2.3617,2.86834 3.27307,-1.6885 0.85914,-4.29575 4.3712,-6.87309 6.36263,-4.66927 0.60983,0.67489 -1.04591,6.70022 -3.67944,13.38961 -4.18124,10.62069 -5.2147,12.16254 -8.15226,12.16254 -2.01235,0 -3.36402,-0.81001 -3.36402,-2.01594 z m 10.05495,-10.387 c 2.38511,-6.24994 3.43107,-10.80715 2.65789,-11.58033 -0.77318,-0.77317 -1.98786,1.507 -3.08663,5.79418 -0.99645,3.88798 -2.20074,7.06906 -2.67619,7.06906 -0.47545,0 -1.63929,-3.02326 -2.58631,-6.71836 -0.94702,-3.69509 -2.51354,-6.71835 -3.48117,-6.71835 -1.26404,0 -0.84055,2.53121 1.50438,8.99136 3.13944,8.64912 3.16937,9.09617 0.78588,11.74491 -2.38678,2.65242 -2.37812,2.73464 0.2358,2.23827 1.92475,-0.3655 3.85683,-3.51107 6.64635,-10.82074 z m -385.7712148,4.5743 c -0.5360966,-0.5361 -0.974721,-6.18724 -0.974721,-12.55809 l 0,-11.58336 4.6262828,0 c 4.368472,0 4.715194,0.36793 6.221786,6.60252 0.877529,3.63138 1.996164,8.0099 2.485855,9.73003 0.489692,1.72013 0.306648,3.1275 -0.406765,3.1275 -0.713412,0 -2.105258,-4.06576 -3.09299,-9.03502 -1.540102,-7.74823 -2.219821,-9.03503 -4.772519,-9.03503 -2.7941355,0 -2.9766443,0.6818 -2.9766443,11.12004 0,6.11601 0.4691262,11.12002 1.0425027,11.12002 0.5733766,0 1.0425026,-4.37851 1.0425026,-9.73002 0,-5.35151 0.563114,-9.73003 1.251363,-9.73003 0.688251,0 1.99387,3.28389 2.901376,7.29752 2.594999,11.47692 2.935714,12.34804 4.611077,11.7896 0.867839,-0.28928 2.369629,-3.29485 3.337314,-6.67904 l 1.759426,-6.15306 -0.726056,6.12242 c -0.88003,7.42084 -1.460425,8.47262 -4.675424,8.47262 -1.808877,0 -3.097023,-2.01081 -4.674873,-7.29752 l -2.177988,-7.29752 0.239396,6.90166 c 0.18193,5.24501 -0.277357,7.00823 -1.913393,7.34557 -1.1840329,0.24416 -2.5914116,0.006 -3.1275078,-0.53081 z m 18.4700318,-4.3339 c -0.0085,-2.86688 -0.403007,-7.55814 -0.876873,-10.42502 -0.571628,-3.45835 -0.332589,-5.21252 0.7103,-5.21252 1.019462,0 1.571875,3.41948 1.571875,9.73003 0,5.56001 0.595715,9.73002 1.390003,9.73002 0.810835,0 1.390004,-4.63335 1.390004,-11.12002 0,-10.12054 -0.245062,-11.12004 -2.726431,-11.12004 -2.042708,0 -3.107223,1.48146 -4.244886,5.90752 -0.835151,3.24914 -1.80205,6.53302 -2.148665,7.29752 -0.875864,1.93181 0.596528,-9.71966 1.53846,-12.17428 0.530747,-1.38311 -1.175725,-2.73326 -5.580924,-4.41563 C 6.6097558,227.06345 1.3223542,217.05536 1.3066212,200.83349 l -0.0078,-7.99252 8.5357209,0 8.5357199,0 -6.367673,-5.60508 C 0.62665416,177.22239 -3.3310688,159.46144 3.0363572,146.99841 10.410475,132.56499 31.527883,130.69127 46.204693,143.16815 c 5.658681,4.81049 7.820455,10.7148 7.881137,21.52524 l 0.03317,5.90752 -10.772528,0.0772 -10.772528,0.0772 4.170011,3.04701 c 8.282139,6.0517 17.17054,16.04665 17.758686,19.96952 0.598179,3.98977 1.426615,-35.83768 1.02409,-49.23356 l -0.219279,-7.29752 10.873303,0.0442 c 16.985103,0.0691 15.738318,-3.82115 15.738318,49.10667 l 0,45.36938 -12.336282,0 -12.336283,0 -0.868752,-4.34376 c -0.477814,-2.38907 -0.925165,-6.29845 -0.994114,-8.68752 l -0.125364,-4.34376 -1.27452,4.40225 c -1.64993,5.69894 -8.337631,11.25722 -16.015439,13.31071 l -6.089376,1.62867 0,12.22174 c 0,11.29507 -0.210785,12.22174 -2.780008,12.22174 -2.283064,0 -2.782741,-0.93177 -2.795305,-5.21251 z m 11.993654,-29.41769 c 8.709202,-3.95499 10.262558,-7.12512 10.256506,-20.93173 -0.0065,-14.90739 -1.681689,-17.87942 -16.232637,-28.7997 -10.525437,-7.89919 -10.880273,-8.35498 -11.281678,-14.49142 -0.443222,-6.77572 1.810017,-10.27794 5.661643,-8.79993 2.253528,0.86476 4.502576,9.46169 3.078206,11.76637 -0.520444,0.8421 2.653696,1.36636 8.2726,1.36636 l 9.117058,0 0,-6.16453 c 0,-8.48887 -1.93722,-12.82385 -7.146397,-15.99174 -10.032392,-6.10107 -23.664042,-5.23779 -31.5603984,1.99868 -4.6237977,4.2374 -5.0074944,5.22238 -5.5119304,14.14966 -0.736237,13.02957 1.6160581,18.20352 11.7048258,25.74515 14.957872,11.18142 16.03638,12.61923 15.560146,20.74408 -0.802499,13.69116 -9.456314,12.74271 -9.456314,-1.0364 l 0,-7.47481 -9.171504,0 -9.1715048,0 0.993716,8.68752 c 0.5465454,4.77814 1.8654387,10.38911 2.9308757,12.46882 4.3978581,8.58455 20.4606091,11.98422 31.9567871,6.76362 z m 38.061774,-33.82748 0,-34.40259 -9.730025,0 -9.730026,0 0,33.82342 c 0,18.60288 0.260626,34.08404 0.579169,34.40259 0.318542,0.31855 4.697053,0.57917 9.730025,0.57917 l 9.150857,0 0,-34.40259 z m -47.667031,12.52623 c -0.332479,-1.72904 -0.617131,-0.64169 -0.63256,2.41631 -0.01543,3.05801 0.256601,4.47267 0.604508,3.1437 0.347908,-1.32895 0.360531,-3.83096 0.02805,-5.56001 z M 27.78245,162.88602 c -0.673511,-2.25508 -1.278329,-3.05667 -1.34404,-1.78132 -0.133371,2.58859 1.350277,7.09979 2.091287,6.35878 0.262526,-0.26253 -0.07374,-2.32239 -0.747247,-4.57746 z m 48.576615,-18.69518 0,-4.17001 -9.730025,0 -9.730026,0 0,4.17001 0,4.17001 9.730026,0 9.730025,0 0,-4.17001 z M 34.620901,255.32003 c -2.007632,-3.7513 0.0835,-7.06424 5.82026,-9.22095 l 4.642822,-1.74546 -5.212513,0.80844 c -3.199851,0.49629 -5.212514,0.25033 -5.212514,-0.63698 0,-2.72509 4.369243,-5.81398 8.223875,-5.81398 5.74124,0 8.456169,3.89387 8.456169,12.12821 l 0,7.04432 -7.624313,0.091 c -6.225905,0.0744 -7.893835,-0.41254 -9.093786,-2.65467 z m 5.945571,0.0278 c -3.838379,-1.54284 -4.000427,-3.56171 -0.438882,-5.46779 3.440738,-1.84143 7.468558,-1.86461 6.338709,-0.0364 -1.020651,1.65144 0.433417,6.93758 1.908335,6.93758 1.797907,0 0.447567,-14.2669 -1.465144,-15.47985 -2.885895,-1.83008 -7.581456,-1.39139 -9.470527,0.88481 -1.905549,2.29604 -0.416639,2.74615 2.653957,0.80231 1.077425,-0.68206 2.797554,-0.91831 3.82251,-0.525 3.345955,1.28397 1.960215,4.34558 -2.400378,5.30333 -6.72734,1.47756 -7.575638,9.1092 -0.992206,8.92629 l 3.171134,-0.0881 -3.127508,-1.25711 z m 3.82251,-3.54753 c 0,-1.21045 -0.742784,-1.95324 -1.65063,-1.65063 -2.577376,0.85914 -3.004854,3.85148 -0.550209,3.85148 1.210461,0 2.200839,-0.99038 2.200839,-2.20085 z m 9.730025,-3.13901 0,-9.50988 6.602517,-0.10064 c 3.631385,-0.0553 7.384395,0.54769 8.340022,1.34005 1.029517,0.85363 1.737505,4.76964 1.737505,9.61048 0,7.24316 -0.315325,8.16983 -2.780008,8.16983 -2.409339,0 -2.780007,-0.92667 -2.780007,-6.95001 0,-6.02336 -0.370668,-6.95002 -2.780007,-6.95002 -2.409339,0 -2.780007,0.92666 -2.780007,6.95002 0,6.02334 -0.370669,6.95001 -2.780008,6.95001 -2.509115,0 -2.780007,-0.92667 -2.780007,-9.50987 z m 4.441352,1.51735 c 0.385194,-6.00305 0.739175,-6.60252 3.89867,-6.60252 3.159495,0 3.513476,0.59947 3.89867,6.60252 0.58432,9.10629 3.051348,8.33916 3.051348,-0.94884 0,-6.28211 -0.458441,-7.69686 -2.727503,-8.41703 -1.500126,-0.47612 -4.002133,-0.18351 -5.560014,0.65024 -2.047847,1.09598 -2.832512,1.09459 -2.832512,-0.006 0,-0.83652 -0.625502,-1.13435 -1.390004,-0.66186 -1.767046,1.09208 -1.838003,15.98504 -0.07616,15.98504 0.722614,0 1.504491,-2.97113 1.737505,-6.60252 z m 17.786733,6.59511 c -1.355444,-0.83771 -2.008393,-3.82258 -2.034535,-9.30063 -0.03414,-7.15318 0.276423,-8.06701 2.74151,-8.06701 2.349441,0 2.847652,1.07225 3.216763,6.92314 0.240215,3.80773 1.178468,7.45199 2.085006,8.09834 1.14537,0.81666 1.012116,1.00375 -0.436756,0.61323 -1.390729,-0.37486 -2.226078,-2.72434 -2.508666,-7.05584 -0.258412,-3.96093 -1.086722,-6.49386 -2.123592,-6.49386 -1.217196,0 -1.491612,2.0723 -0.966343,7.29752 0.669674,6.66172 1.036346,7.29752 4.208597,7.29752 1.911255,0 3.475009,-0.72976 3.475009,-1.62168 0,-0.89192 0.469127,-2.0908 1.042503,-2.66418 0.573377,-0.57337 1.042503,-3.79886 1.042503,-7.16777 0,-5.08359 0.413673,-6.04639 2.432506,-5.66147 1.974397,0.37644 2.509336,2.20286 2.840464,9.69805 l 0.407958,9.23425 -6.713445,0.052 c -3.692395,0.0286 -7.611662,-0.50312 -8.709482,-1.18161 z m 13.91201,-7.63761 c 0,-9.16288 -2.293251,-10.24555 -2.995631,-1.41427 -0.55346,6.95887 -0.154336,9.05929 1.72146,9.05929 0.700794,0 1.274171,-3.44026 1.274171,-7.64502 z m 5.560014,2.085 c 0,-3.82251 -0.625501,-6.95001 -1.390003,-6.95001 -0.764502,0 -1.390004,-0.93826 -1.390004,-2.08501 0,-1.14675 0.581997,-2.08501 1.293327,-2.08501 0.711331,0 1.493208,-1.40737 1.737505,-3.1275 0.318031,-2.23932 1.529762,-3.25244 4.266689,-3.56736 3.99864,-0.46009 5.54745,2.87821 2.085,4.49402 -1.39,0.64867 -1.39,0.973 0,1.62167 2.0653,0.9638 2.34227,4.74919 0.3475,4.74919 -0.7645,0 -1.39,3.1275 -1.39,6.95001 0,6.02335 -0.37067,6.95002 -2.780007,6.95002 -2.409339,0 -2.780007,-0.92667 -2.780007,-6.95002 z m 4.170011,-1.39 c 0,-4.57482 0.593803,-6.98753 1.737503,-7.05976 1.39001,-0.0879 1.39001,-0.24996 0,-0.81084 -0.95563,-0.3856 -1.737503,-1.84785 -1.737503,-3.24943 0,-1.4016 0.781873,-2.90219 1.737503,-3.33467 0.95563,-0.43247 0.49369,-0.63379 -1.02654,-0.44738 -1.520224,0.18643 -2.999962,1.58277 -3.288306,3.10301 -0.288344,1.52022 -1.233779,3.22358 -2.100967,3.78525 -1.129823,0.73179 -1.084249,1.02726 0.160798,1.04251 1.155499,0.0142 1.737505,2.34931 1.737505,6.97131 0,3.82251 0.625501,6.95002 1.390003,6.95002 0.764502,0 1.390004,-3.12751 1.390004,-6.95002 z m 6.101473,6.3561 c -1.71337,-4.46496 0.16261,-8.2107 5.01856,-10.02047 l 4.865,-1.81313 -5.2125,0.80844 c -3.19986,0.49628 -5.21252,0.25032 -5.21252,-0.63699 0,-2.75523 4.38769,-5.81398 8.34002,-5.81398 6.07166,0 8.34002,3.2405 8.34002,11.91431 0,6.54259 -0.35867,7.54574 -2.69797,7.54574 -1.48389,0 -3.08456,-0.6255 -3.55705,-1.39 -0.47248,-0.7645 -2.07315,-1.39001 -3.55703,-1.39001 -3.30838,0 -3.70702,-4.87538 -0.49929,-6.10631 3.94875,-1.51527 6.48243,-0.95752 5.63867,1.2413 -0.9496,2.4746 0.28418,6.25502 2.04138,6.25502 0.68271,0 1.24129,-3.14092 1.24129,-6.97982 0,-6.09625 -0.4399,-7.18026 -3.47501,-8.56315 -2.62674,-1.19682 -4.36713,-1.17684 -7.12964,0.0819 -2.01005,0.91585 -3.31462,2.00518 -2.89906,2.42075 0.41557,0.41557 1.97375,0.10369 3.46262,-0.69319 1.99443,-1.06739 3.39793,-0.9402 5.33156,0.48311 2.1933,1.61446 2.28195,2.0556 0.53952,2.68491 -9.71833,3.50993 -9.91823,3.652 -9.47891,6.73634 0.31057,2.18033 1.69635,3.38272 4.6139,4.0033 l 4.17,0.88699 -4.56113,0.16445 c -2.79112,0.10064 -4.85657,-0.60543 -5.32243,-1.81946 z m 9.18856,-4.38694 c 0,-2.45463 -2.99234,-2.02716 -3.85146,0.55022 -0.30262,0.90784 0.44017,1.65063 1.65063,1.65063 1.21046,0 2.20083,-0.99038 2.20083,-2.20085 z m 10.35294,2.98089 c -6.5386,-9.97915 5.14008,-21.42713 13.41613,-13.15107 3.99667,3.99666 1.46525,6.74934 -3.67633,3.99765 -3.08887,-1.6531 -3.77301,-1.6394 -4.87181,0.0976 -1.84608,2.91828 -1.6134,4.91262 0.80756,6.92184 1.75661,1.45787 2.45,1.32672 3.96901,-0.75066 1.18463,-1.62007 2.71159,-2.18284 4.28475,-1.57916 4.20026,1.61179 -0.56924,7.06486 -6.63435,7.58519 -4.05124,0.34757 -5.40023,-0.22964 -7.29496,-3.12136 z m 11.88712,-0.0851 c 1.09118,-1.31479 1.18435,-2.085 0.25223,-2.085 -0.81298,0 -1.86474,0.6255 -2.33723,1.39 -2.76384,4.47196 -8.52028,-1.88348 -7.04173,-7.7745 0.60472,-2.40942 1.80461,-3.34553 4.2882,-3.34553 1.89669,0 3.44853,0.52125 3.44853,1.15833 0,0.63708 0.87862,1.15834 1.95248,1.15834 3.04168,0 0.89848,-3.63591 -2.67134,-4.53187 -7.04413,-1.76796 -12.43391,5.68322 -9.21738,12.74273 1.79041,3.92951 8.50052,4.69229 11.32624,1.2875 z m 7.87669,2.54834 c -0.50967,-0.50967 -0.92667,-3.51208 -0.92667,-6.67202 0,-3.15994 -0.62563,-6.37098 -1.39028,-7.13564 -2.00034,-2.00034 1.49346,-8.87141 4.51779,-8.88489 1.50944,-0.007 2.4325,1.04408 2.4325,2.76917 0,1.529 0.62551,2.78001 1.39001,2.78001 0.7645,0 1.39,0.93825 1.39,2.085 0,1.14675 -0.6255,2.08501 -1.39,2.08501 -0.7645,0 -1.39001,2.18925 -1.39001,4.86501 0,2.67576 0.62551,4.86501 1.39001,4.86501 0.7645,0 1.39,0.93825 1.39,2.08501 0,2.10384 -5.5938,2.97787 -7.41335,1.15833 z m 4.98085,-1.38392 c -1.02192,-0.41234 -1.73751,-3.22952 -1.73751,-6.84027 0,-3.92615 0.62634,-6.17874 1.73751,-6.24892 1.39,-0.0879 1.39,-0.24996 0,-0.81084 -0.95563,-0.3856 -1.73751,-1.89997 -1.73751,-3.36527 0,-1.46529 -0.6255,-2.66417 -1.39,-2.66417 -0.76451,0 -1.39001,1.25101 -1.39001,2.78001 0,1.52901 -0.78187,2.82938 -1.7375,2.88974 -1.39,0.0879 -1.39,0.24996 0,0.81084 1.05935,0.42745 1.7375,3.36852 1.7375,7.53528 0,6.19315 0.29336,6.82389 3.12751,6.72445 1.72013,-0.0603 2.34563,-0.42523 1.39001,-0.81085 z m 5.94802,0.0675 c -1.63256,-1.63254 -2.14432,-4.23746 -1.84489,-9.39061 0.35251,-6.06656 0.82946,-7.13135 3.19438,-7.13135 2.34945,0 2.84767,1.07225 3.21677,6.92314 0.24022,3.80773 1.17847,7.45199 2.08501,8.09834 1.14537,0.81666 1.01211,1.00375 -0.43676,0.61323 -1.39072,-0.37486 -2.22607,-2.72434 -2.50866,-7.05584 -0.29624,-4.54081 -1.02784,-6.49386 -2.43252,-6.49386 -1.40017,0 -2.00884,1.60413 -2.00884,5.29434 0,6.28802 2.66624,10.49157 6.21557,9.79935 2.72302,-0.53108 3.46959,-2.7413 3.92452,-11.61868 0.23258,-4.53838 0.79577,-5.56002 3.06495,-5.56002 2.49487,0 2.78001,0.92666 2.78001,9.03503 l 0,9.03502 -6.49514,0.35559 c -4.51554,0.24722 -7.18373,-0.33299 -8.7544,-1.90366 z m 14.55453,-6.79193 c 0,-9.01056 -2.21834,-10.25453 -3.09848,-1.7375 -0.66409,6.42639 -0.0789,9.38252 1.8572,9.38252 0.6827,0 1.24128,-3.44026 1.24128,-7.64502 z m 4.45401,-0.3475 0.41101,-9.38253 5.44418,0 c 5.80135,0 8.38534,2.81439 4.05393,4.41539 -3.64054,1.34564 -4.58766,3.22211 -4.61182,9.13715 -0.0177,4.31771 -0.50941,5.21251 -2.8648,5.21251 -2.62443,0 -2.81185,-0.72288 -2.4325,-9.38252 z m 3.88602,2.44428 c 0,-4.04285 0.75428,-6.0193 2.78,-7.28438 1.52901,-0.95488 2.78001,-2.30813 2.78001,-3.00722 0,-0.69909 -1.251,-0.13886 -2.78001,1.2448 -2.57349,2.32898 -2.78,2.33889 -2.78,0.13344 0,-1.31037 -0.62551,-1.99589 -1.39001,-1.52341 -0.7645,0.47249 -1.39,4.26241 -1.39,8.42206 0,4.15964 0.6255,7.56299 1.39,7.56299 0.7645,0 1.39001,-2.49671 1.39001,-5.54824 z m 9.61419,6.36353 c -0.9379,-0.93066 0.27552,-17.4951 1.28179,-17.49788 0.50548,-0.001 0.70711,3.75162 0.44809,8.34002 -0.29108,5.15621 0.0817,8.34257 0.97617,8.34257 0.79593,0 1.66921,-3.90938 1.94064,-8.68752 l 0.4935,-8.68753 0.26783,9.38253 c 0.23604,8.26892 -0.0346,9.38252 -2.28051,9.38252 -1.4016,0 -2.80897,-0.25862 -3.12751,-0.57471 z m 8.73744,-8.7025 0.41342,-9.48784 6.57152,-0.27922 c 8.89054,-0.37775 11.06216,1.9373 10.52289,11.21791 -0.3525,6.06656 -0.82945,7.13136 -3.19438,7.13136 -2.33037,0 -2.84853,-1.0679 -3.20366,-6.60252 -0.28926,-4.50783 -1.03682,-6.60251 -2.35635,-6.60251 -1.31953,0 -2.06709,2.09468 -2.35635,6.60251 -0.36433,5.67799 -0.87082,6.66592 -3.61708,7.05533 -3.09675,0.4391 -3.1809,0.16562 -2.78001,-9.03502 z m 4.58343,0.70314 c 0,-4.50568 -0.64674,-7.3932 -1.73751,-7.75744 -1.25182,-0.41802 -1.7375,1.58919 -1.7375,7.18065 0,5.28383 0.55455,7.75976 1.7375,7.75744 1.16523,-0.003 1.73751,-2.36734 1.73751,-7.18065 z m 10.90838,0.32265 c -0.11634,-3.77544 -0.62245,-7.52915 -1.12454,-8.34154 -1.1547,-1.86836 -5.86674,-1.92694 -7.00384,-0.087 -0.47249,0.76451 0.36193,1.39001 1.85425,1.39001 3.17142,0 4.40077,2.55567 4.40077,9.1487 0,2.61323 0.46913,4.75202 1.0425,4.75285 0.57338,8.3e-4 0.94726,-3.08748 0.83086,-6.86293 z m 38.24323,5.59422 c -4.32113,-3.49904 -4.69438,-14.94978 -0.63355,-19.43693 4.04256,-4.46699 13.88893,-4.10736 16.98669,0.62044 3.39948,5.18826 0.56818,7.51636 -4.39401,3.61311 -5.31628,-4.18179 -8.98561,-1.99686 -8.98561,5.35055 0,7.05624 4.16822,9.9973 7.93455,5.59855 2.70647,-3.16094 7.35549,-3.79024 7.35549,-0.99565 0,1.00261 -1.27537,3.19187 -2.83416,4.86501 -3.57216,3.83427 -10.94255,4.01814 -15.4294,0.38492 z m 14.67777,-1.77645 c 2.94004,-4.1975 1.47792,-5.0224 -2.41679,-1.36351 -1.76638,1.65943 -3.85623,3.01716 -4.64409,3.01716 -2.74213,0 -6.4967,-5.62319 -6.4967,-9.73003 0,-4.25271 3.78349,-9.73002 6.7211,-9.73002 0.91128,0 3.10388,1.25496 4.87242,2.78882 3.97635,3.44866 5.52571,2.41433 2.08256,-1.3903 -2.54496,-2.81216 -9.55915,-3.74337 -12.77829,-1.69646 -4.89782,3.11431 -5.29019,15.77511 -0.59955,19.34641 3.75116,2.85602 10.85501,2.19057 13.25934,-1.24207 z m 8.55218,2.25145 c -6.07265,-6.07265 -2.59449,-16.1674 5.86162,-17.01231 8.46321,-0.84561 13.78954,11.1841 7.48009,16.89407 -3.21483,2.90938 -10.48613,2.97382 -13.34171,0.11829 z m 12.30937,-1.39209 c 4.70818,-4.70818 1.05499,-14.49575 -5.41049,-14.49575 -7.04879,0 -10.9789,8.96363 -6.36672,14.52096 2.31589,2.79048 8.97578,2.77621 11.77721,-0.0252 z m -9.46202,-1.32058 c -2.63116,-2.63116 -2.77962,-4.03526 -0.81482,-7.70655 2.22394,-4.15546 8.02923,-3.52102 9.16432,1.00152 1.6786,6.68806 -3.89258,11.16196 -8.3495,6.70503 z m 6.88568,-2.67115 c 1.04578,-4.1667 -0.15158,-6.33401 -3.49931,-6.33401 -2.97363,0 -4.43802,4.17977 -2.60926,7.44758 1.8839,3.36633 5.13284,2.77406 6.10857,-1.11357 z m 8.93064,-1.94385 0,-9.50988 6.25066,-0.0945 c 3.43785,-0.052 6.5877,0.45088 6.99965,1.11744 0.41196,0.66656 2.2113,0.54566 3.99856,-0.26866 2.3372,-1.06491 4.07941,-1.03647 6.20537,0.10133 2.50728,1.34185 2.95583,2.84012 2.95583,9.87303 0,7.36445 -0.3107,8.29112 -2.78,8.29112 -2.40934,0 -2.78001,-0.92667 -2.78001,-6.95002 0,-5.13402 -0.52489,-6.95002 -2.00885,-6.95002 -1.41038,0 -2.13506,1.96697 -2.4325,6.60252 -0.36154,5.63437 -0.88225,6.66764 -3.55117,7.04669 -2.89047,0.41051 -3.12751,-0.0899 -3.12751,-6.60251 0,-5.33706 -0.50585,-7.0467 -2.08501,-7.0467 -1.57533,0 -2.085,1.69889 -2.085,6.95002 0,6.02335 -0.37067,6.95002 -2.78001,6.95002 -2.50911,0 -2.78001,-0.92667 -2.78001,-9.50988 z m 4.17002,-0.22015 c 0,-4.63336 -0.61778,-8.34002 -1.39001,-8.34002 -0.77223,0 -1.39,3.70666 -1.39,8.34002 0,4.63334 0.61777,8.34002 1.39,8.34002 0.77223,0 1.39001,-3.70668 1.39001,-8.34002 z m 10.06232,1.7375 c 0.75731,-8.16738 -1.40362,-11.3211 -6.18073,-9.02038 l -3.18659,1.5347 3.12751,0.0941 c 2.81379,0.0846 3.1275,0.79122 3.1275,7.04409 0,8.83268 2.30168,9.08968 3.11231,0.3475 z m 10.78773,-0.17731 c 0,-7.41532 -2.47514,-10.88156 -6.58482,-9.2215 -2.18877,0.88412 -2.11651,1.11841 0.6773,2.19572 2.60591,1.00486 3.12751,2.25667 3.12751,7.50579 0,3.46489 0.6255,6.29982 1.39001,6.29982 0.7645,0 1.39,-3.05092 1.39,-6.77983 z m 24.98201,5.31871 c -2.00763,-3.7513 0.0835,-7.06423 5.82026,-9.22095 l 4.64282,-1.74545 -5.21251,0.80844 c -4.1605,0.64527 -5.21251,0.36628 -5.21251,-1.38236 0,-4.36578 10.64056,-6.97974 13.5598,-3.3311 0.76459,0.95563 1.66926,5.27075 2.01038,9.58919 l 0.62022,7.85168 -7.37949,0.0881 c -5.9806,0.0714 -7.65806,-0.43236 -8.84897,-2.65759 z m 5.94557,0.0278 c -3.51657,-1.41348 -3.90184,-2.79635 -1.4595,-5.23868 2.50859,-2.50861 8.55404,-2.17512 7.55935,0.417 -0.85985,2.24074 0.22693,6.25446 1.69389,6.25588 1.5476,0.001 -0.0274,-14.54557 -1.69091,-15.61713 -2.65381,-1.70951 -7.39981,-1.18443 -9.23034,1.02123 -1.90554,2.29603 -0.41664,2.74614 2.65396,0.80231 2.43284,-1.54011 5.68606,-0.41201 5.68606,1.9717 0,0.97989 -2.12886,2.18097 -4.7308,2.6691 -2.60195,0.48813 -5.11474,1.88803 -5.584,3.11089 -1.13766,2.96468 1.60578,6.06216 5.27248,5.95292 2.9031,-0.0865 2.89998,-0.1112 -0.17019,-1.34522 z m 3.82251,-3.58039 c 0,-1.46579 -0.75588,-1.94366 -2.19869,-1.39001 -1.20928,0.46404 -2.4972,0.84372 -2.86203,0.84372 -0.36485,0 -0.27678,0.6255 0.19571,1.39 1.36882,2.21479 4.86501,1.60846 4.86501,-0.84371 z m 9.73003,-3.13676 0,-9.54048 5.90751,-0.0229 c 9.47217,-0.0368 10.77253,1.26842 10.77253,10.8128 0,7.36444 -0.31071,8.29112 -2.78001,8.29112 -2.40933,0 -2.78,-0.92668 -2.78,-6.95002 0,-6.02336 -0.37068,-6.95002 -2.78001,-6.95002 -2.40934,0 -2.78001,0.92666 -2.78001,6.95002 0,6.02334 -0.37067,6.95002 -2.78001,6.95002 -2.50998,0 -2.78,-0.92668 -2.78,-9.54049 z m 4.44135,1.54797 c 0.3852,-6.00305 0.73918,-6.60252 3.89867,-6.60252 3.15949,0 3.51347,0.59947 3.89867,6.60252 0.23302,3.63138 1.04757,6.60251 1.81014,6.60251 0.79681,0 1.2078,-3.04276 0.96635,-7.15436 -0.48176,-8.2037 -3.39653,-11.37387 -7.88198,-8.57267 -1.93526,1.20859 -3.01031,1.22388 -4.17482,0.0593 -1.1645,-1.1645 -1.56838,0.65086 -1.56838,7.04966 0,10.07979 2.43087,11.68544 3.05135,2.0155 z M 188.62986,237.9283 c -1.62275,-1.62274 0.5894,-4.77717 3.35014,-4.77717 1.84798,0 2.58249,0.78267 2.26783,2.41654 -0.47411,2.46189 -4.02477,3.95384 -5.61797,2.36063 z m 4.48951,-1.99715 c 0,-0.76451 -0.6255,-1.39001 -1.39,-1.39001 -0.7645,0 -1.39,0.6255 -1.39,1.39001 0,0.7645 0.6255,1.39 1.39,1.39 0.7645,0 1.39,-0.6255 1.39,-1.39 z m 68.80518,-4.07094 c -9.14497,-2.20695 -15.05895,-8.11078 -17.0389,-17.00966 -0.86076,-3.86867 -1.14599,-2.91182 -1.72615,5.79055 l -0.695,10.42503 -12.16253,0.40161 c -6.68939,0.22089 -12.25691,0.22089 -12.37228,0 -0.11537,-0.22088 -0.64615,-12.28614 -1.17952,-26.81168 l -0.96976,-26.41008 0.0214,26.41008 0.0214,26.41007 -12.04698,0.40161 c -11.72251,0.3908 -12.04935,0.31594 -12.13508,-2.78001 l -0.088,-3.18162 -1.2571,3.12751 c -1.16392,2.89566 -2.12344,3.12751 -12.94319,3.12751 l -11.68607,0 -0.86875,-4.34376 c -0.47781,-2.38907 -0.86875,-20.21587 -0.86875,-39.61511 l 0,-35.27134 11.0042,0 c 6.42921,0 11.20586,0.60499 11.48926,1.45519 0.31523,0.94573 2.22567,0.72792 5.45683,-0.62215 5.40507,-2.25838 9.40446,-1.71373 15.7884,2.1501 4.02142,2.43394 4.20083,2.4232 7.24136,-0.43323 4.29262,-4.03271 12.37864,-3.8665 18.87811,0.38805 5.72311,3.74634 7.95233,7.66757 8.04705,14.15499 0.0621,4.25763 0.17908,4.16022 2.67591,-2.23005 1.43599,-3.67518 3.39405,-7.62581 4.35126,-8.77917 3.32804,-4.01005 9.99364,-6.36173 18.03167,-6.36173 13.65874,0 27.15904,9.61263 27.95119,19.90212 0.1402,1.82101 0.60932,-1.69308 1.0425,-7.80909 l 0.78761,-11.12003 10.99933,-0.41006 c 7.59318,-0.28307 11.32674,0.1197 12.0566,1.30063 0.83199,1.34619 1.51538,1.33045 3.20751,-0.0739 6.306,-5.23353 20.47522,-0.10575 24.62959,8.91332 1.70134,3.69361 2.5713,4.61399 2.59158,2.7418 0.1283,-11.8393 22.17055,-18.03443 36.33815,-10.21307 8.50657,4.69613 12.34251,10.97001 12.34251,20.18686 l 0,7.43947 -8.61216,0 -8.61216,0 6.5301,4.14126 c 9.86255,6.25464 12.32306,11.11093 11.78473,23.25925 -0.40854,9.21885 -0.82028,10.41342 -5.11761,14.84713 -11.63298,12.0022 -37.01642,8.56576 -42.11545,-5.70164 l -1.81258,-5.07171 -0.695,8.24042 -0.695,8.24041 -25.89277,0.32776 -25.89276,0.32777 -0.86481,-4.32403 c -0.47564,-2.37821 -0.93179,-7.21696 -1.01366,-10.75279 l -0.14886,-6.42876 -1.30568,5.82016 c -2.75291,12.27148 -17.45865,19.44225 -32.45167,15.82397 z m -78.51392,-35.54417 c 0.0111,-15.29005 0.55579,-28.6435 1.20906,-29.67435 0.65328,-1.03085 2.36383,-1.6485 3.80123,-1.37256 2.43123,0.46673 2.6619,2.52206 3.30845,29.47783 l 0.695,28.97613 8.68837,0.1965 8.68837,0.19652 0.0204,-27.80007 c 0.0111,-15.29005 0.55494,-28.6435 1.20821,-29.67435 0.65328,-1.03085 2.35432,-1.64962 3.78008,-1.37504 3.72088,0.71657 4.62686,7.70091 4.54297,35.02262 l -0.072,23.43327 8.46517,0.19679 8.4652,0.19678 -8.5e-4,-31.03451 -8.4e-4,-31.0345 -4.0631,-4.06309 c -5.46781,-5.46782 -11.00842,-5.39046 -17.4249,0.24328 -4.1576,3.65042 -5.03751,3.96018 -5.77681,2.03359 -2.4783,-6.45833 -15.58265,-7.81385 -20.71492,-2.14276 -3.17519,3.50853 -4.84041,3.49918 -4.84041,-0.0272 0,-2.49488 -0.92668,-2.78001 -9.03503,-2.78001 l -9.03502,0 0,33.82342 c 0,18.60288 0.26063,34.08405 0.57917,34.40259 0.31854,0.31855 4.3843,0.57917 9.03503,0.57917 l 8.45585,0 0.0213,-27.80007 z m 96.86399,25.77133 c 7.74857,-4.72458 8.755,-8.49923 8.755,-32.83576 0,-19.44056 -0.30349,-22.28857 -2.80669,-26.33885 -5.25187,-8.4977 -19.01372,-11.32929 -30.25821,-6.22584 -9.20406,4.17737 -10.63217,8.75802 -10.62174,34.0691 0.01,23.03065 1.33286,27.93254 8.60652,31.87919 5.7518,3.1209 20.82256,2.80726 26.32512,-0.54784 z m -15.61011,-8.69443 c -0.39965,-1.04147 -0.55413,-12.19036 -0.3433,-24.77529 0.36568,-21.82725 0.51147,-22.8817 3.16336,-22.8817 2.67402,0 2.78,0.92667 2.78,24.30603 0,22.05944 -0.22522,24.3494 -2.4367,24.7753 -1.3402,0.25809 -2.7637,-0.38285 -3.16336,-1.42434 z m 52.18647,-17.0769 c 0.0111,-15.29005 0.55579,-28.6435 1.20906,-29.67435 0.65328,-1.03085 2.36383,-1.64818 3.80123,-1.37184 2.44453,0.46995 2.63758,2.38788 2.98669,29.67434 l 0.37324,29.17192 9.00563,0 9.00562,0 0.004,-31.03451 0.003,-31.0345 -4.06309,-4.06309 c -5.13064,-5.13064 -10.89143,-5.33555 -16.53347,-0.58808 -4.99233,4.20077 -5.8135,4.29894 -5.8135,0.695 0,-2.49488 -0.92668,-2.78001 -9.03503,-2.78001 l -9.03502,0 0,34.4026 0,34.40259 9.03502,0 9.03503,0 0.0213,-27.80007 z m 68.72873,26.34307 c 5.84474,-2.7735 7.70019,-7.05278 7.70019,-17.75918 0,-9.92785 -1.71054,-13.15503 -9.38149,-17.69962 -15.04013,-8.91037 -15.80641,-9.69829 -15.35945,-15.79326 0.36751,-5.0116 0.81999,-5.6711 3.89088,-5.6711 3.01221,0 3.53246,0.69421 3.90643,5.21252 l 0.4314,5.21251 7.56112,0 7.5611,0 0,-6.17751 c 0,-11.19576 -10.67493,-17.69561 -25.42856,-15.48317 -10.25849,1.53836 -13.84552,5.49846 -14.61488,16.13493 -0.86423,11.94763 1.40358,15.72242 14.36014,23.9027 l 10.39326,6.56193 0,6.20193 c 0,4.97188 -0.54891,6.37617 -2.76756,7.08035 -4.25886,1.35169 -5.57246,-0.30504 -5.57246,-7.02811 l 0,-6.17298 -8.53363,0 -8.53364,0 0.81055,6.84388 c 0.99044,8.36266 2.95562,11.70416 8.51535,14.47903 5.61731,2.80361 19.30152,2.88833 25.06125,0.15515 z m -10.83929,-16.26555 c -0.3856,-0.95562 -0.70111,-0.17375 -0.70111,1.73751 0,1.91125 0.31551,2.69313 0.70111,1.7375 0.3856,-0.95563 0.3856,-2.51938 0,-3.47501 z M 357.4184,194.34029 c -3.08914,-2.99792 -5.89414,-6.90731 -6.23333,-8.68753 -0.33918,-1.78022 -0.70188,0.67263 -0.806,5.45076 l -0.18929,8.68753 6.42263,0 6.42262,0 -5.61663,-5.45076 z M 85.002963,229.32862 c -0.549383,-1.33788 -0.998878,-19.0083 -0.998878,-39.2676 l 0,-36.8351 10.302552,-0.41294 c 5.871213,-0.23532 10.673863,0.18785 11.165823,0.98387 0.55749,0.90203 3.02334,0.6526 6.9615,-0.70421 5.83089,-2.00891 6.37899,-1.95534 12.50323,1.22203 6.37901,3.30955 6.41966,3.31211 10.01119,0.63064 4.80915,-3.59055 12.44483,-3.41123 18.67388,0.43854 8.27587,5.11476 8.91703,8.30851 8.91703,44.41666 l 0,32.06885 -12.10333,-0.40162 c -11.57768,-0.38418 -12.14516,-0.55254 -13.06648,-3.87662 l -0.96315,-3.47501 -0.13858,3.82251 -0.13853,3.82251 -12.41336,0 c -11.76795,0 -12.44467,-0.16262 -13.01574,-3.12751 l -0.60238,-3.12751 -0.18929,3.12751 c -0.18062,2.98416 -0.73284,3.12751 -12.047954,3.12751 -9.986763,0 -12.016328,-0.38397 -12.857533,-2.43251 z M 104.15914,194.7469 c 0.64654,-26.95577 0.87722,-29.01109 3.30845,-29.47783 1.43739,-0.27594 3.14794,0.34171 3.80122,1.37256 0.65328,1.03085 1.19698,14.38431 1.20822,29.67435 l 0.0204,27.80007 8.68837,-0.19651 8.68837,-0.19651 0.695,-28.97613 c 0.64655,-26.95577 0.87723,-29.01109 3.30845,-29.47783 1.4374,-0.27594 3.14795,0.34171 3.80123,1.37256 0.65327,1.03085 1.19712,14.38431 1.20855,29.67435 l 0.0207,27.80007 8.68802,-0.23625 8.68804,-0.23625 0,-30.40891 c 0,-34.34213 -0.65846,-37.00865 -9.55064,-38.67683 -5.12753,-0.96193 -12.32708,1.89056 -14.47959,5.73686 -1.05468,1.88462 -1.85462,1.58259 -5.52218,-2.08497 -2.61456,-2.61463 -5.71396,-4.28884 -7.93972,-4.28884 -4.21922,0 -11.85293,3.60384 -11.85293,5.59571 0,0.74487 -0.6255,1.35431 -1.39,1.35431 -0.7645,0 -1.39,-1.251 -1.39,-2.78 0,-2.49488 -0.92667,-2.78001 -9.035029,-2.78001 l -9.035023,0 -8.48e-4,34.40259 -8.47e-4,34.40259 8.68837,-0.19651 8.688367,-0.19651 0.69501,-28.97613 z"
     id="path7835"
     inkscape:connector-curvature="0" />
</svg>
