<?xml version="1.0" encoding="UTF-8" standalone="no"?>
<!-- Created with Inkscape (http://www.inkscape.org/) -->

<svg
   xmlns:dc="http://purl.org/dc/elements/1.1/"
   xmlns:cc="http://creativecommons.org/ns#"
   xmlns:rdf="http://www.w3.org/1999/02/22-rdf-syntax-ns#"
   xmlns:svg="http://www.w3.org/2000/svg"
   xmlns="http://www.w3.org/2000/svg"
   xmlns:sodipodi="http://sodipodi.sourceforge.net/DTD/sodipodi-0.dtd"
   xmlns:inkscape="http://www.inkscape.org/namespaces/inkscape"
   id="svg4222"
   version="1.1"
   inkscape:version="0.91 r13725"
   width="400"
   height="399.08374"
   viewBox="0 0 400 399.08374"
   sodipodi:docname="sureseal.svg">
  <metadata
     id="metadata4228">
    <rdf:RDF>
      <cc:Work
         rdf:about="">
        <dc:format>image/svg+xml</dc:format>
        <dc:type
           rdf:resource="http://purl.org/dc/dcmitype/StillImage" />
        <dc:title></dc:title>
      </cc:Work>
    </rdf:RDF>
  </metadata>
  <defs
     id="defs4226" />
  <sodipodi:namedview
     pagecolor="#ffffff"
     bordercolor="#666666"
     borderopacity="1"
     objecttolerance="10"
     gridtolerance="10"
     guidetolerance="10"
     inkscape:pageopacity="0"
     inkscape:pageshadow="2"
     inkscape:window-width="1443"
     inkscape:window-height="846"
     id="namedview4224"
     showgrid="false"
     fit-margin-top="0"
     fit-margin-left="0"
     fit-margin-right="0"
     fit-margin-bottom="0"
     inkscape:zoom="0.54166667"
     inkscape:cx="286.89806"
     inkscape:cy="90.66281"
     inkscape:window-x="0"
     inkscape:window-y="0"
     inkscape:window-maximized="0"
     inkscape:current-layer="svg4222" />
  <path
     style="fill:#000000"
     d="M 164.58965,396.95284 C 83.932318,382.31067 20.099735,319.47519 2.749996,237.64124 -0.88265181,220.50698 -0.92390411,181.5715 2.671168,163.21913 19.13872,79.154348 86.308138,14.887748 170.99708,2.1676583 c 48.7799,-7.32663 98.16729,4.02922 140.92224,32.4028247 16.80442,11.151969 42.66025,36.978785 53.52286,53.462777 54.25113,82.32604 43.8119,186.00031 -25.5778,254.01847 -27.02586,26.4917 -55.62784,42.58297 -92.94312,52.28915 -19.1851,4.9903 -61.78561,6.34179 -82.33161,2.61196 z m 66.25128,-12.02461 c 58.878,-10.13069 109.49725,-47.34839 136.59315,-100.42978 26.1006,-51.13162 26.93405,-112.43685 2.232,-164.17835 C 343.60537,65.732752 295.88981,28.368958 235.97619,15.633888 c -17.972,-3.82007 -55.07068,-3.7748 -72.9054,0.089 C 112.42887,26.694136 71.50345,54.173093 43.589324,95.947517 -14.197396,182.42733 9.305923,299.29991 95.892977,356.03251 c 23.143903,15.16408 45.308043,24.09583 71.615513,28.85976 15.75283,2.8526 46.85997,2.8703 63.33244,0.036 z M 179.22489,382.6464 C 92.987337,372.83004 26.31849,304.43011 18.804541,218.06071 12.870162,149.84758 42.476681,87.021854 98.214587,49.550788 c 20.832143,-14.00487 45.950503,-24.09147 70.931653,-28.48351 15.99235,-2.81167 47.93492,-2.46512 64.20974,0.69663 72.72176,14.127838 128.92691,69.058401 144.73527,141.453062 3.26365,14.9459 3.74848,57.25942 0.8259,72.07886 -14.49763,73.51247 -71.9613,131.2754 -144.23421,144.98534 -15.88589,3.0135 -40.52955,4.06452 -55.45805,2.36523 z m 40.84316,-12.45107 c 10.405,-1.97382 12.57143,-3.69331 5.65583,-4.48905 -3.88054,-0.4465 -4.20899,-1.03282 -4.62937,-8.2642 -0.50267,-8.6468 -0.33697,-8.80938 10.65904,-10.45833 6.61433,-0.99188 6.88594,-0.8699 10.06678,4.52122 3.95909,6.71016 4.02854,8.06626 0.61103,11.92998 -2.57531,2.91152 -2.53986,2.97827 1.13914,2.14518 2.08844,-0.47293 7.89809,-1.71837 12.91034,-2.76764 8.71362,-1.82414 8.92723,-1.97674 4.87212,-3.48052 -3.15224,-1.16895 -7.63666,-7.00971 -17.46693,-22.74978 -7.27423,-11.64739 -13.69098,-21.89198 -14.25947,-22.76575 -1.30771,-2.01001 -7.1997,4.84235 -7.2696,8.45454 -0.0278,1.43613 -2.09673,12.03019 -4.59762,23.54237 -3.44857,15.87439 -5.32394,21.57336 -7.76258,23.58921 -3.82074,3.15832 -2.81583,3.23742 10.07129,0.79277 z m 3.01544,-33.35023 c 0.59901,-4.43966 1.42484,-8.63617 1.83518,-9.32557 0.41033,-0.6894 2.99821,2.04455 5.75084,6.07545 2.75264,4.03089 4.5601,7.75862 4.01659,8.28383 -0.5435,0.52521 -3.62149,1.4237 -6.83995,1.99667 l -5.85176,1.04175 1.0891,-8.07213 z m -62.09028,21.51483 c 4.85429,-7.33532 3.99716,-9.1974 -1.77234,-3.8504 -4.86838,4.51186 -12.1494,5.11093 -19.00845,1.56398 -5.42419,-2.80496 -5.81533,-7.50603 -1.42878,-17.17231 l 2.98569,-6.57929 6.40831,3.54157 c 3.96886,2.19339 6.77959,4.987 7.38368,7.3387 0.8925,3.47444 1.29904,3.08721 4.78367,-4.55659 2.09456,-4.59456 3.62402,-8.57923 3.39883,-8.85482 -0.22521,-0.27559 -2.09775,0.60513 -4.16124,1.95717 -3.46046,2.2674 -4.23719,2.26401 -10.00438,-0.0436 -3.43894,-1.37595 -6.25261,-3.01989 -6.25261,-3.65316 0,-2.68324 6.59826,-16.74511 7.8573,-16.74511 2.40327,0 12.77185,5.75861 14.82678,8.23465 1.08692,1.30965 1.61781,3.75181 1.17973,5.42701 -0.43807,1.6752 -0.22705,3.04582 0.46893,3.04582 1.90789,0 6.26452,-9.5119 4.92879,-10.76112 -1.79898,-1.68246 -38.94512,-16.51429 -39.63416,-15.82526 -0.33546,0.33547 1.1618,2.18284 3.32723,4.10527 l 3.93715,3.49533 -6.87527,17.40246 c -3.78142,9.57134 -7.57564,18.24631 -8.43161,19.27769 -0.85598,1.03139 -3.67439,2.08563 -6.26314,2.34277 -3.9265,0.39 -1.57856,1.75875 14.16259,8.25622 10.37818,4.28378 20.05582,7.8721 21.50587,7.97403 1.51901,0.10677 4.3492,-2.40281 6.67743,-5.92101 z m 160.91907,-38.13108 15.60795,-15.379 -4.00369,-8.16337 c -4.19796,-8.55949 -7.14675,-10.87376 -5.50123,-4.3175 1.08514,4.32349 1.19196,5.78888 0.85076,11.66963 -0.25517,4.39805 -8.39764,14.86177 -11.56486,14.86177 -2.5033,0 -29.68369,-28.13896 -29.68369,-30.73055 0,-1.10469 1.12784,-3.61873 2.50631,-5.58678 1.37847,-1.96803 1.7741,-3.31622 0.87919,-2.99595 -1.80546,0.64611 -21.61185,19.42689 -21.61185,20.49273 0,0.36973 2.09632,-0.41184 4.65847,-1.73678 l 4.65847,-2.409 13.62096,13.32884 c 13.49842,13.20891 17.01143,18.89931 13.70736,22.20337 -1.88141,1.88142 -2.27529,4.14161 -0.72175,4.14161 0.5443,0 8.01324,-6.92056 16.5976,-15.37902 z M 85.608794,309.83286 c 3.59747,-2.77071 3.797155,-3.71493 3.797155,-17.95482 0,-16.02926 1.463698,-20.0624 7.280988,-20.0624 4.160043,0 8.668433,4.27312 8.661413,8.20944 -0.003,1.75011 -1.36007,5.40336 -3.01542,8.11833 -3.538873,5.8042 -2.936513,6.04992 4.12787,1.6839 4.65115,-2.87458 5.15763,-3.80092 4.35974,-7.97402 -0.52289,-2.73485 -3.43596,-7.1183 -6.92299,-10.41736 -7.683523,-7.2694 -16.174896,-7.94768 -22.338212,-1.78436 -3.646667,3.64666 -3.839852,4.5436 -2.854505,13.25285 1.315594,11.62833 1.220118,10.20086 1.008373,15.07659 -0.11437,2.63226 -1.588912,5.0651 -4.04587,6.67496 -5.445456,3.56801 -10.754337,0.54553 -13.163055,-7.49405 -1.591722,-5.31273 -1.427214,-6.70136 1.406877,-11.8754 4.173425,-7.61914 2.230541,-8.63462 -4.074425,-2.12955 -5.716042,5.89746 -5.5971,8.51976 0.835298,18.41571 7.113943,10.94445 17.139635,14.26543 24.936763,8.26018 z M 221.20425,296.67852 c 21.55778,-4.9032 40.50168,-16.2863 53.7317,-32.28656 15.87045,-19.19358 23.31361,-39.56415 23.31361,-63.80522 0,-28.53587 -9.3285,-50.98971 -29.42166,-70.8184 C 249.0137,110.21492 227.57989,101.46 199.52349,101.46 c -39.31905,0 -71.83926,20.37691 -89.57751,56.12857 -12.842423,25.88407 -12.265983,61.48155 1.42741,88.14611 20.32683,39.58163 66.21168,60.86481 109.83086,50.94384 z m -37.62882,-9.45156 c -4.34528,-0.9536 -4.57771,-1.40455 -5.01208,-9.7245 l -0.45552,-8.72454 9.26144,0 9.26144,0 -0.45218,9.49288 c -0.42489,8.91997 -0.68136,9.50687 -4.24935,9.72451 -2.08844,0.12743 -5.84762,-0.21837 -8.35375,-0.76835 z m 18.08783,-0.7954 c -0.44142,-1.15035 -0.59085,-5.42215 -0.33203,-9.49289 l 0.47055,-7.40132 8.35376,0 8.35374,0 0.44925,8.52344 0.44924,8.52345 -5.76527,0.95272 c -8.63617,1.42717 -11.09443,1.20033 -11.97924,-1.1054 z m -37.01884,-5.3835 c -7.53871,-3.05629 -10.14271,-6.02028 -8.66722,-9.86536 0.78508,-2.04592 2.60062,-2.47172 8.9752,-2.10503 l 7.99101,0.45968 0.46292,7.21459 c 0.25462,3.96803 -0.0872,7.17642 -0.75943,7.12974 -0.6723,-0.0466 -4.27341,-1.3218 -8.00248,-2.83362 z m 59.18087,-4.75162 0,-7.67012 8.73347,0.45552 c 8.27319,0.4315 8.75884,0.67616 9.21505,4.64268 0.42533,3.69796 -0.34361,4.54089 -6.58109,7.21459 -10.58693,4.53809 -11.36743,4.21933 -11.36743,-4.64267 z M 136.01825,262.9512 c -1.31456,-0.85955 -1.83075,-3.83305 -1.51886,-8.74943 l 0.47245,-7.44736 8.35375,0 8.35374,0 0,8.35374 0,8.35375 -6.83489,0.39569 c -3.75919,0.21763 -7.73097,-0.19023 -8.82619,-0.90639 z m 19.76216,-7.46333 0.4555,-8.73346 8.35374,0 8.35376,0 0.45549,8.73346 0.45552,8.73346 -9.26477,0 -9.26476,0 0.45552,-8.73346 z m 22.78294,0 0.4555,-8.73346 8.35375,0 8.35374,0 0.4555,8.73346 0.45552,8.73346 -9.26476,0 -9.26477,0 0.45552,-8.73346 z m 23.49158,7.72088 c -0.55692,-0.55691 -1.01258,-4.30308 -1.01258,-8.32479 0,-6.41876 0.4383,-7.42225 3.58699,-8.21252 1.97284,-0.49516 5.90291,-0.67904 8.73347,-0.40865 5.13428,0.49045 5.14755,0.51232 5.60198,9.22508 l 0.45551,8.73346 -8.1764,0 c -4.49702,0 -8.63206,-0.45567 -9.18897,-1.01258 z m 22.07196,-7.64275 c 0.45729,-8.80108 0.46397,-8.81218 5.60431,-9.30321 2.83057,-0.27039 6.79559,-0.0778 8.81116,0.42815 3.36838,0.84541 3.6277,1.56058 3.20727,8.84537 l -0.45741,7.92559 -8.8116,0.45784 -8.81159,0.45785 0.45786,-8.81159 z m 22.78281,0.005 0.45797,-8.81615 7.59431,0 7.59432,0 0,8.35374 0,8.35375 -8.05228,0.46181 -8.05228,0.46179 0.45796,-8.81554 z M 120.82192,241.01552 c -2.03646,-2.45381 -6.35474,-12.45447 -6.35474,-14.71693 0,-0.87068 3.41017,-1.56765 7.67013,-1.56765 l 7.67009,0 -0.45551,8.73346 c -0.39232,7.52204 -0.89532,8.7963 -3.62615,9.18648 -1.74384,0.24914 -3.95056,-0.48678 -4.90382,-1.63536 z m 14.47129,0.99742 c -0.59446,-0.59444 -1.08082,-4.76017 -1.08082,-9.25719 l 0,-8.17641 8.73348,0.45552 8.73346,0.45551 0,8.35375 0,8.35374 -7.65266,0.44795 c -4.20897,0.24637 -8.13903,-0.0384 -8.73346,-0.63287 z m 20.8299,-1.08022 c -0.46106,-1.20147 -0.62429,-5.16751 -0.36273,-8.81343 l 0.47553,-6.62892 8.35374,0 8.35376,0 0,8.35375 0,8.35374 -7.99101,0.45969 c -5.86823,0.33756 -8.21372,-0.12061 -8.82929,-1.72483 z m 23.21712,1.08022 c -0.59446,-0.59444 -1.08082,-4.72606 -1.08082,-9.1814 l 0,-8.1006 9.18897,0 9.18898,0 -0.45552,8.73346 -0.4555,8.73346 -7.65266,0.44795 c -4.20896,0.24637 -8.13902,-0.0384 -8.73345,-0.63287 z m 23.50797,-0.365 c -1.31806,-0.83589 -1.83158,-3.78067 -1.51885,-8.71021 l 0.47243,-7.44736 8.35376,0 8.35374,0 0.47243,7.44736 c 0.5378,8.47771 -0.78558,9.97303 -8.82617,9.97303 -2.92382,0 -6.21211,-0.56826 -7.30734,-1.26282 z m 22.05791,0.365 c -0.59446,-0.59444 -1.08082,-4.76017 -1.08082,-9.25719 l 0,-8.17641 8.73347,0.45552 8.73346,0.45551 0,8.35375 0,8.35374 -7.65266,0.44795 c -4.20897,0.24637 -8.13902,-0.0384 -8.73345,-0.63287 z m 22.78472,0.001 c -0.59543,-0.59515 -1.0826,-4.72758 -1.0826,-9.18292 l 0,-8.1006 8.42953,0 8.42955,0 -0.45552,8.73346 -0.45549,8.73346 -6.89144,0.44974 c -3.79029,0.24735 -7.37861,-0.0374 -7.97403,-0.63287 z m 20.83646,-1.06027 c -0.46564,-1.21343 -0.63264,-5.18925 -0.37108,-8.83517 l 0.47553,-6.62865 8.16022,-0.46555 8.16024,-0.46555 -1.05119,4.26271 c -1.93488,7.84631 -6.07059,13.34846 -10.41587,13.85732 -2.54649,0.29819 -4.43347,-0.35827 -4.95785,-1.72483 z M 112.24407,218.35573 c -0.36866,-1.08821 -0.78375,-3.00379 -0.9224,-4.25685 -0.64429,-5.82222 -0.0137,-6.23341 8.84126,-5.77152 l 8.73346,0.45551 0,5.31601 0,5.31601 -7.99101,0.4597 c -5.54429,0.31892 -8.19625,-0.14613 -8.66131,-1.51886 z m 21.96832,-7.29457 0,-9.26478 8.73348,0.45553 8.73346,0.45551 0,8.35374 0,8.35373 -8.73346,0.45552 -8.73348,0.45552 0,-9.26477 z m 22.3449,8.16882 c -0.59446,-0.59444 -1.08081,-4.72607 -1.08081,-9.1814 l 0,-8.10059 9.18896,0 9.18898,0 -0.45552,8.73346 -0.45549,8.73344 -7.65266,0.44796 c -4.20897,0.24636 -8.13903,-0.0384 -8.73346,-0.63287 z m 22.78294,0 c -0.59446,-0.59444 -1.08082,-4.72607 -1.08082,-9.1814 l 0,-8.10059 9.18897,0 9.18898,0 -0.45552,8.73346 -0.4555,8.73344 -7.65266,0.44796 c -4.20896,0.24636 -8.13902,-0.0384 -8.73345,-0.63287 z m 22.78294,0 c -0.59446,-0.59444 -1.08082,-4.72607 -1.08082,-9.1814 l 0,-8.10059 9.18897,0 9.18898,0 -0.45551,8.73346 -0.45551,8.73344 -7.65266,0.44796 c -4.20897,0.24636 -8.13902,-0.0384 -8.73345,-0.63287 z m 22.78294,0 c -0.59446,-0.59444 -1.08082,-4.76017 -1.08082,-9.25719 l 0,-8.17641 8.73347,0.45553 8.73346,0.45551 0,8.35374 0,8.35373 -7.65266,0.44796 c -4.20897,0.24636 -8.13902,-0.0384 -8.73345,-0.63287 z m 21.70212,-8.08944 0,-9.19255 8.42953,0 8.42955,0 -0.45552,8.73346 -0.45549,8.73344 -7.97404,0.45911 -7.97403,0.45909 0,-9.19255 z m 21.84738,6.84422 c -2.14535,-5.59071 -0.006,-7.67102 8.38125,-8.14965 9.40899,-0.53693 10.86141,0.38319 9.72734,6.16235 -0.77346,3.94142 -1.28329,4.17687 -9.04402,4.17687 -5.76128,0 -8.47598,-0.65573 -9.06457,-2.18957 z M 114.77095,204.68194 c -2.60613,-2.60614 -2.24927,-8.85822 0.69107,-12.10726 2.36346,-2.61158 2.31233,-2.7776 -0.85567,-2.7776 -2.88637,0 -3.30113,-0.70759 -2.89339,-4.9363 0.4737,-4.91312 0.51514,-4.9363 8.82968,-4.9363 8.31452,0 8.35598,0.0232 8.8297,4.9363 0.40772,4.22871 -0.008,4.9363 -2.89342,4.9363 -3.16797,0 -3.21912,0.16602 -0.85568,2.7776 2.94036,3.24904 3.29722,9.50112 0.69107,12.10726 -1.00244,1.00245 -3.59971,1.82262 -5.77167,1.82262 -2.17198,0 -4.76923,-0.82017 -5.77169,-1.82262 z m 5.77169,-10.87314 c 1.25305,-0.49185 0.57655,-0.74135 -1.50335,-0.55442 -2.43758,0.21907 -3.97061,1.41953 -4.31334,3.37758 -0.48104,2.74833 -0.33781,2.80114 1.50335,0.55444 1.11928,-1.36582 3.06028,-2.88572 4.31334,-3.3776 z m 151.36223,9.91816 c -3.44704,-3.80893 -3.15238,-8.75369 0.68166,-11.43915 l 3.19537,-2.23814 -3.57508,-0.50601 c -2.84728,-0.403 -3.57508,-1.43362 -3.57508,-5.06259 0,-4.51057 0.0844,-4.55659 8.35374,-4.55659 8.31454,0 8.35599,0.0232 8.82969,4.9363 0.43331,4.49393 0.093,4.94492 -3.79715,5.03259 -4.03374,0.0908 -4.08421,0.17227 -0.90111,1.45308 4.67487,1.88111 6.08778,8.38075 2.64807,12.18159 -3.37997,3.73483 -8.58122,3.82206 -11.86011,0.19892 z m 5.83648,-10.64257 c -1.08622,-1.08623 -5.31246,1.10416 -5.31246,2.75334 0,0.99966 1.08971,0.89887 2.96865,-0.27454 1.63276,-1.01968 2.68747,-2.13515 2.34381,-2.4788 z m -143.52896,-4.80617 0,-9.26478 8.73348,0.45553 8.73346,0.45551 0,8.35374 0,8.35374 -8.73346,0.45551 -8.73348,0.45553 0,-9.26478 z m 21.56802,0.37972 0.4555,-8.73346 8.35374,0 8.35376,0 0.45549,8.73346 0.45552,8.73345 -9.26477,0 -9.26476,0 0.45552,-8.73345 z m 22.78294,0 0.4555,-8.73346 8.35375,0 8.35374,0 0.4555,8.73346 0.45552,8.73345 -9.26476,0 -9.26477,0 0.45552,-8.73345 z m 22.78294,0 0.45549,-8.73346 8.35376,0 8.35374,0 0.45551,8.73346 0.45551,8.73345 -9.26476,0 -9.26478,0 0.45553,-8.73345 z m 22.7806,0.0781 0.45783,-8.81153 8.35376,0 8.35374,0 0,8.35373 0,8.35375 -8.8116,0.45784 -8.81159,0.45786 0.45786,-8.81159 z m 22.48134,-0.53717 0,-9.19255 7.97403,0.45909 7.97404,0.4591 0.45549,8.73345 0.45552,8.73346 -8.42955,0 -8.42953,0 0,-9.19255 z m -133.6599,-14.44797 c 0,-0.47166 1.45114,-4.23084 3.22477,-8.35374 2.95356,-6.86576 3.65608,-7.49616 8.35375,-7.49616 l 5.12896,0 0,8.35375 0,8.35373 -8.35374,0 c -4.59457,0 -8.35374,-0.38591 -8.35374,-0.85758 z m 21.26406,-7.57196 0,-8.42955 8.73348,0.45553 8.73346,0.45551 0.45909,7.97402 0.45908,7.97403 -9.19255,0 -9.19256,0 0,-8.42954 z m 21.26409,0.0758 0,-8.35375 9.11317,0 9.11319,0 0,8.35375 0,8.35374 -9.11319,0 -9.11317,0 0,-8.35374 z m 22.78293,0 0,-8.35375 9.11319,0 9.11317,0 0,8.35375 0,8.35374 -9.11317,0 -9.11319,0 0,-8.35374 z m 22.78294,0 0,-8.35375 9.11319,0 9.11316,0 0,8.35375 0,8.35374 -9.11316,0 -9.11319,0 0,-8.35374 z m 22.78294,-0.0758 0,-8.42955 8.73347,0.45553 8.73346,0.45551 0.45909,7.97402 0.45908,7.97403 -9.19255,0 -9.19255,0 0,-8.42954 z m 22.78294,0.0758 0,-8.35375 8.35375,0 8.35375,0 0,8.35375 0,8.35374 -8.35375,0 -8.35375,0 0,-8.35374 z m 21.87463,6.23518 c -0.44714,-1.16522 -0.59655,-4.75353 -0.33203,-7.97404 0.41301,-5.02863 1.03947,-5.92031 4.43653,-6.31472 3.44977,-0.40052 4.37237,0.50954 7.21459,7.11647 1.79244,4.16663 3.25898,7.96161 3.25898,8.43327 0,1.97508 -13.79414,0.78191 -14.57807,-1.26098 z M 134.85902,151.31981 c -0.46105,-1.20147 -0.62428,-5.16751 -0.36273,-8.81343 l 0.47555,-6.62892 8.35375,0 8.35374,0 0,8.35374 0,8.35374 -7.99101,0.4597 c -5.86823,0.33755 -8.21372,-0.12061 -8.8293,-1.72483 z m 21.26409,0 c -0.46106,-1.20147 -0.62429,-5.16751 -0.36273,-8.81343 l 0.47553,-6.62892 8.35374,0 8.35376,0 0,8.35374 0,8.35374 -7.99101,0.4597 c -5.86823,0.33755 -8.21372,-0.12061 -8.82929,-1.72483 z m 23.21712,1.08022 c -0.59446,-0.59445 -1.08082,-4.72606 -1.08082,-9.1814 l 0,-8.1006 9.18897,0 9.18898,0 -0.45552,8.73346 -0.4555,8.73345 -7.65266,0.44795 c -4.20896,0.24638 -8.13902,-0.0384 -8.73345,-0.63286 z m 22.34876,-1.08022 c -0.46106,-1.20147 -0.6243,-5.16751 -0.36274,-8.81343 l 0.47553,-6.62892 8.35376,0 8.35374,0 0,8.35374 0,8.35374 -7.99101,0.4597 c -5.86822,0.33755 -8.21371,-0.12061 -8.82928,-1.72483 z m 23.21712,1.08022 c -0.59446,-0.59445 -1.08082,-4.76017 -1.08082,-9.25719 l 0,-8.17642 8.73347,0.45552 8.73346,0.45552 0,8.35374 0,8.35374 -7.65266,0.44795 c -4.20897,0.24638 -8.13902,-0.0384 -8.73345,-0.63286 z m 21.70212,-8.08945 0,-9.19255 6.64891,0 c 8.25462,0 10.38493,2.37619 9.77168,10.89951 l -0.47252,6.5674 -7.97404,0.4591 -7.97403,0.4591 0,-9.19256 z m -90.05094,-14.69349 c -0.59446,-0.59445 -1.08081,-2.9531 -1.08081,-5.24146 0,-3.59705 0.96254,-4.48865 7.10545,-6.58176 10.84521,-3.69533 11.35463,-3.46974 10.8244,4.79353 l -0.46292,7.2146 -7.65266,0.44795 c -4.20897,0.24638 -8.13903,-0.0384 -8.73346,-0.63286 z m 22.78294,0 c -0.59446,-0.59445 -1.08082,-4.63912 -1.08082,-8.98818 l 0,-7.90734 7.97403,-0.80328 c 4.38572,-0.4418 8.52576,-0.28461 9.20007,0.34932 0.67434,0.63392 1.01608,4.83848 0.75943,9.34349 l -0.4666,8.1909 -7.65266,0.44795 c -4.20896,0.24638 -8.13902,-0.0384 -8.73345,-0.63286 z m 22.35374,-1.06726 c -0.45833,-1.19434 -0.62156,-5.50212 -0.36274,-9.57286 l 0.47055,-7.40132 6.07545,0.46624 c 11.21175,0.8604 11.59155,1.19997 11.08677,9.91224 l -0.45472,7.84787 -7.99101,0.45969 c -5.84784,0.33637 -8.21452,-0.12273 -8.8243,-1.71186 z m 23.21214,1.06726 c -0.59446,-0.59445 -1.08082,-4.04258 -1.08082,-7.66255 0,-7.62292 0.89116,-7.8829 10.63204,-3.10168 5.38335,2.64235 6.83489,4.16123 6.83489,7.15199 0,3.4886 -0.62186,3.83356 -7.65266,4.2451 -4.20897,0.24638 -8.13902,-0.0384 -8.73345,-0.63286 z m -130.665443,84.197 c -0.48486,-1.21164 -0.84477,-0.85175 -0.91765,0.91766 -0.0659,1.60112 0.29304,2.49821 0.79774,1.99351 0.5047,-0.50473 0.55867,-1.81475 0.11984,-2.91117 z m -42.358262,-8.44867 c -1.265593,-1.4619 -3.059461,-4.02499 -3.986362,-5.69573 -0.926915,-1.67075 -1.706077,-2.27555 -1.731487,-1.34398 -0.05073,1.85856 5.716361,9.69773 7.134339,9.69773 0.486538,0 -0.150823,-1.19611 -1.41649,-2.65802 z m 15.947403,-4.96408 c 0.412599,-1.57782 -0.240451,-4.09663 -1.451243,-5.59735 -2.071971,-2.56817 -2.119254,-2.54998 -0.80401,0.30911 1.605484,3.49002 0.92116,6.32416 -2.567165,10.63203 -2.417377,2.98532 -2.403463,2.99018 0.806196,0.28137 1.796314,-1.51604 3.603608,-4.04733 4.016222,-5.62516 z m 24.944339,-2.60935 c -0.349109,-2.30875 -0.644072,-0.78032 -0.655479,3.39656 -0.01215,4.17687 0.274231,6.06587 0.634749,4.19775 0.36053,-1.8681 0.36986,-5.28555 0.0208,-7.59431 z m 214.157613,-1.53974 c -0.34801,-2.29728 -0.63275,-0.4177 -0.63275,4.17687 0,4.59455 0.28474,6.47414 0.63275,4.17686 0.34801,-2.29726 0.34801,-6.05646 0,-8.35373 z m 47.51571,1.69792 c 0,-1.87947 -0.58475,-3.77863 -1.29945,-4.22033 -0.7147,-0.44171 -0.9914,0.80833 -0.6149,2.77787 0.37651,1.96957 -0.10162,5.19544 -1.06264,7.16865 -1.66184,3.41241 -1.6318,3.44364 0.6149,0.63933 1.29916,-1.62156 2.36209,-4.48606 2.36209,-6.36552 z m -17.87694,5.13696 c -0.84775,-1.04422 -1.8774,-3.26556 -2.28807,-4.93631 -0.73155,-2.97613 -0.75026,-2.97458 -0.92287,0.0759 -0.0969,1.71253 0.64399,3.93386 1.64644,4.93632 2.40076,2.40076 3.53074,2.3459 1.5645,-0.076 z M 59.488732,196.81836 c -0.292473,-2.04973 -1.558945,-3.22412 -3.47695,-3.22412 -3.475264,0 -5.107768,5.09904 -2.206558,6.89207 3.039609,1.87859 6.185233,-0.15158 5.683508,-3.66795 z m 285.615288,3.78521 c 2.99644,-1.89892 1.47957,-6.93465 -2.24994,-7.46935 -3.80856,-0.54605 -5.96594,3.67895 -3.43547,6.72799 2.00208,2.41235 2.87006,2.52553 5.68541,0.74136 z M 59.376776,188.87941 c -0.504703,-0.5047 -1.814721,-0.55865 -2.911158,-0.11983 -1.211643,0.48485 -0.851733,0.84476 0.917651,0.91763 1.601139,0.0659 2.49821,-0.29304 1.993507,-0.79774 z m 287.065024,0 c -0.50471,-0.5047 -1.81473,-0.55865 -2.91115,-0.11983 -1.21165,0.48485 -0.85175,0.84476 0.91765,0.91763 1.60112,0.0659 2.49822,-0.29304 1.9935,-0.79774 z M 100.44158,134.31005 c 6.36583,-7.72285 8.33884,-15.06685 5.72712,-21.3176 -3.99491,-9.56118 -11.285273,-10.54991 -25.630341,-3.47604 -11.039458,5.4438 -16.718682,5.14276 -19.533665,-1.03543 -1.474892,-3.23704 -1.199066,-4.32559 1.950233,-7.69646 3.188761,-3.413137 4.521852,-3.810527 10.201577,-3.041038 7.184737,0.973405 7.272679,-0.189644 0.385154,-5.093997 l -4.380962,-3.119518 -4.519102,3.802575 c -6.568686,5.527198 -9.994236,14.908498 -7.833943,21.454268 3.491652,10.57977 11.862225,12.28483 25.246502,5.14257 4.696369,-2.50614 10.102532,-4.55661 12.013704,-4.55661 7.680503,0 10.953413,9.44594 5.24935,15.15 -3.24784,3.24783 -6.579,4.29127 -15.986708,5.00756 l -6.07545,0.46259 6.834882,3.16604 c 7.87155,3.64624 9.827286,3.06627 16.351649,-4.84891 z m 212.66778,-6.97855 c 3.64697,-2.73744 2.53673,-5.17205 -1.26257,-2.76858 -4.85659,3.07232 -12.53911,1.59124 -17.70178,-3.41264 -2.75476,-2.66999 -5.00863,-5.94513 -5.00863,-7.27807 0,-1.33296 2.98336,-5.35148 6.62965,-8.93006 l 6.62966,-6.5065 4.78209,5.80149 c 2.63014,3.19082 4.4312,6.65994 4.00237,7.70914 -2.81108,6.87768 -2.81327,6.90384 -0.4659,5.537 3.12133,-1.81748 13.35597,-10.93546 13.35597,-11.89873 0,-0.42232 -1.87959,-0.3964 -4.17687,0.0576 -3.36974,0.66595 -5.18406,-0.21749 -9.38907,-4.57181 -2.86671,-2.968501 -4.90668,-5.578396 -4.53327,-5.799741 0.37341,-0.221366 3.55584,-3.087258 7.07205,-6.36865 6.37757,-5.951658 6.40116,-5.959059 9.68705,-3.037736 1.81166,1.610651 4.52197,4.921383 6.02294,7.357164 2.45742,3.98794 2.50748,4.857152 0.50296,8.733463 -2.70265,5.22638 -1.25215,5.44951 5.07587,0.78085 l 4.77638,-3.523903 -14.37193,-15.841606 c -14.08221,-15.522228 -20.1969,-20.80305 -15.12504,-13.062396 3.37536,5.151438 2.51867,6.456681 -13.7977,21.021885 -13.6307,12.1678 -14.75751,12.64497 -22.62527,9.58097 -3.23311,-1.259082 -2.32695,-0.12863 14.02758,17.49986 4.26254,4.59455 9.21327,10.22228 11.00164,12.50606 3.17485,4.05431 3.34801,4.09172 7.33753,1.58532 2.24728,-1.41187 5.64671,-3.73852 7.55429,-5.17039 z M 254.47275,87.110027 c -5.2517,-5.280242 -12.48226,-20.066842 -12.38824,-25.334134 0.0181,-1.012875 2.23798,-2.866821 4.93311,-4.119883 8.24134,-3.831685 9.61062,-15.097467 2.37859,-19.569569 -2.72407,-1.684482 -33.25764,-10.785789 -36.20296,-10.7912 -0.41768,-0.001 1.29104,1.644011 3.79716,3.655072 l 4.55659,3.656471 -4.36084,17.220341 c -5.20788,20.565234 -7.35622,24.637475 -12.48087,23.657831 -2.01462,-0.38512 -3.66294,-0.217045 -3.66294,0.373489 0,1.165299 29.24764,9.18905 30.19382,8.283327 0.31679,-0.303257 -1.23745,-1.377624 -3.45386,-2.387499 -4.60412,-2.097763 -6.23228,-6.738489 -4.86125,-13.855927 2.46927,-12.81898 7.37263,-11.19986 12.54835,4.143534 1.92835,5.716523 4.63462,11.640721 6.01393,13.164859 2.22545,2.459071 17.38679,9.20049 18.45216,8.204655 0.22933,-0.214345 -2.2289,-3.049956 -5.46275,-6.301367 z m -27.60973,-32.77182 c 0,-4.718908 5.17435,-19.465136 6.83021,-19.465136 1.03031,0 3.6742,1.416575 5.87528,3.147958 8.02707,6.314088 3.0265,18.116103 -7.67587,18.116103 -2.86254,0 -5.02962,-0.775089 -5.02962,-1.798925 z M 162.2938,87.364403 c 4.10723,-2.40699 7.24353,-5.778105 9.00052,-9.674382 l 2.69662,-5.980089 -5.46006,-15.812986 c -6.13331,-17.762684 -6.42435,-19.851656 -3.14509,-22.573214 4.42005,-3.668312 0.83668,-3.315823 -10.20195,1.003555 l -11.09882,4.342929 6.59683,0.473972 6.59686,0.473971 5.90738,12.78653 c 8.33164,18.033811 8.33916,25.076767 0.032,29.98392 -5.92859,3.502117 -16.05648,3.405225 -19.6497,-0.187985 -2.76915,-2.769149 -11.23569,-21.623991 -13.14813,-29.280702 -0.79349,-3.17683 -0.16535,-4.627876 3.12313,-7.21459 5.57635,-4.38637 3.5612,-4.096343 -10.72247,1.543158 -13.30846,5.254461 -18.08937,8.299438 -10.5398,6.712838 6.10475,-1.282972 8.25052,1.20517 14.32011,16.605005 5.77769,14.659206 8.26155,18.702757 12.63601,20.570544 5.04632,2.154674 16.00119,0.362249 23.05655,-3.772474 z"
     id="path4236"
     inkscape:connector-curvature="0" />
</svg>
