<?xml version="1.0" encoding="UTF-8" standalone="no"?>
<!-- Created with Inkscape (http://www.inkscape.org/) -->

<svg
   xmlns:dc="http://purl.org/dc/elements/1.1/"
   xmlns:cc="http://creativecommons.org/ns#"
   xmlns:rdf="http://www.w3.org/1999/02/22-rdf-syntax-ns#"
   xmlns:svg="http://www.w3.org/2000/svg"
   xmlns="http://www.w3.org/2000/svg"
   xmlns:xlink="http://www.w3.org/1999/xlink"
   xmlns:sodipodi="http://sodipodi.sourceforge.net/DTD/sodipodi-0.dtd"
   xmlns:inkscape="http://www.inkscape.org/namespaces/inkscape"
   sodipodi:docname="trugap.svg"
   viewBox="0 0 400 118.681"
   height="118.681"
   width="400"
   inkscape:version="0.91 r13725"
   version="1.1"
   id="svg3416">
  <metadata
     id="metadata3422">
    <rdf:RDF>
      <cc:Work
         rdf:about="">
        <dc:format>image/svg+xml</dc:format>
        <dc:type
           rdf:resource="http://purl.org/dc/dcmitype/StillImage" />
        <dc:title></dc:title>
      </cc:Work>
    </rdf:RDF>
  </metadata>
  <defs
     id="defs3420">
    <linearGradient
       inkscape:collect="always"
       id="linearGradient4172">
      <stop
         style="stop-color:#ff0a0a;stop-opacity:1"
         offset="0"
         id="stop4174" />
      <stop
         style="stop-color:#df2121;stop-opacity:0;"
         offset="1"
         id="stop4176" />
    </linearGradient>
    <filter
       inkscape:label="Combined Lighting"
       inkscape:menu="Bevels"
       inkscape:menu-tooltip="Basic specular bevel to use for building textures"
       style="color-interpolation-filters:sRGB"
       id="filter4230"
       y="-0.1"
       height="1.2">
      <feGaussianBlur
         stdDeviation="6"
         in="SourceGraphic"
         result="result0"
         id="feGaussianBlur4232" />
      <feDiffuseLighting
         lighting-color="#ffffff"
         diffuseConstant="0.85000002"
         surfaceScale="5"
         result="result5"
         id="feDiffuseLighting4234">
        <feDistantLight
           elevation="124"
           azimuth="207"
           id="feDistantLight4236" />
      </feDiffuseLighting>
      <feComposite
         k1="1.4"
         in2="SourceGraphic"
         in="result5"
         result="fbSourceGraphic"
         operator="arithmetic"
         id="feComposite4238"
         k2="0"
         k3="0"
         k4="0" />
      <feGaussianBlur
         result="result0"
         in="fbSourceGraphic"
         stdDeviation="37.100000000000001"
         id="feGaussianBlur4240" />
      <feSpecularLighting
         specularExponent="25"
         specularConstant="0"
         surfaceScale="5"
         lighting-color="#ffffff"
         result="result1"
         in="result0"
         id="feSpecularLighting4242">
        <feDistantLight
           azimuth="360"
           elevation="84"
           id="feDistantLight4244" />
      </feSpecularLighting>
      <feComposite
         k3="1"
         k2="1"
         operator="arithmetic"
         in="fbSourceGraphic"
         in2="result1"
         result="result4"
         id="feComposite4246"
         k1="0"
         k4="0" />
      <feComposite
         operator="in"
         result="result2"
         in2="SourceGraphic"
         in="result4"
         id="feComposite4248" />
    </filter>
    <filter
       style="color-interpolation-filters:sRGB"
       inkscape:label="Diffuse Light"
       id="filter6008">
      <feGaussianBlur
         in="SourceGraphic"
         stdDeviation="1.6"
         result="blur"
         id="feGaussianBlur6010" />
      <feDiffuseLighting
         diffuseConstant="0.85000002"
         surfaceScale="3.32399988"
         lighting-color="#ffffff"
         result="diffuse"
         id="feDiffuseLighting6012">
        <feDistantLight
           elevation="68"
           azimuth="185"
           id="feDistantLight6014" />
      </feDiffuseLighting>
      <feComposite
         in="diffuse"
         in2="diffuse"
         operator="arithmetic"
         k1="1"
         result="composite1"
         id="feComposite6016"
         k2="0"
         k3="0"
         k4="0" />
      <feComposite
         in="composite1"
         in2="SourceGraphic"
         k1="0.352941"
         operator="arithmetic"
         k3="1"
         result="composite2"
         id="feComposite6018"
         k2="0"
         k4="0" />
    </filter>
    <filter
       inkscape:collect="always"
       style="color-interpolation-filters:sRGB"
       id="filter7059"
       x="-0.0065808292"
       width="1.0131617"
       y="-0.047646601"
       height="1.0952932">
      <feGaussianBlur
         inkscape:collect="always"
         stdDeviation="0.57545255"
         id="feGaussianBlur7061" />
    </filter>
    <linearGradient
       inkscape:collect="always"
       xlink:href="#linearGradient4172"
       id="linearGradient4178"
       x1="132.87834"
       y1="-68.691742"
       x2="132.68361"
       y2="-98.51355"
       gradientUnits="userSpaceOnUse" />
    <filter
       inkscape:collect="always"
       style="color-interpolation-filters:sRGB"
       id="filter4196"
       x="-0.0013360637"
       width="1.0026721"
       y="-0.0096733849"
       height="1.0193468">
      <feGaussianBlur
         inkscape:collect="always"
         stdDeviation="0.11683045"
         id="feGaussianBlur4198" />
    </filter>
  </defs>
  <sodipodi:namedview
     inkscape:current-layer="g6950"
     inkscape:window-maximized="0"
     inkscape:window-y="9"
     inkscape:window-x="122"
     inkscape:cy="346.5601"
     inkscape:cx="-186.56804"
     inkscape:zoom="0.6666667"
     showguides="false"
     showgrid="false"
     id="namedview3418"
     inkscape:window-height="983"
     inkscape:window-width="1665"
     inkscape:pageshadow="2"
     inkscape:pageopacity="0"
     guidetolerance="10"
     gridtolerance="10"
     objecttolerance="10"
     borderopacity="1"
     bordercolor="#666666"
     pagecolor="#ffffff" />
  <g
     id="g6950"
     transform="matrix(1.9183774,0,0,2.1181558,-50.542496,119.32997)">
    <g
       id="g4168"
       transform="translate(0,54.309568)">
      <path
         transform="matrix(0.98675703,0,0,0.91514951,-0.8695838,-17.91992)"
         sodipodi:nodetypes="ccscscccscsccccccccsssscscscccccccssssccsssscccsssscccsssssssccsssscscscscssssssccccccccscsscscscscssssccccccscscscsscccscscsccc"
         inkscape:connector-curvature="0"
         id="path7013"
         d="m 38.042548,-80.814927 0,-11.25 -5,0 c -2.300111,0 -5.028098,-0.0067 -5.028098,-0.0067 0,0 0.0281,-1.743351 0.0281,-3.118282 l 0,-3.125 15.625,0 15.625,0 0,3.125 c 0,1.241778 0.003,3.114469 0.003,3.114469 0,0 -2.489808,0.01053 -5.002964,0.01053 l -5,0 0,11.25 0,11.25 -5.625,0 -5.625,0 z m 23.75,-3.125 0,-14.375 10.9375,0.01843 c 3.99363,0.0067 7.516313,-0.127697 10.010515,0.01571 5.861858,0.337035 7.189319,3.294116 7.55012,7.558494 0.267646,3.163356 -0.33802,5.053737 -2.142363,6.686645 -1.075102,0.972954 -2.379212,2.276085 -2.379212,2.276085 0,0 1.455405,2.313853 3.568577,5.385243 2.037675,2.96166 4.407988,6.753366 4.407988,6.753366 0,0 -3.09375,0.05504 -6.015625,0.0538 -2.165176,-9.21e-4 -4.488787,0.004 -4.488787,0.004 -3.246934,-3.768923 -6.359747,-7.421617 -10.094743,-11.767413 l -0.10397,6.14064 0,5.625 -5.625,0 -5.625,0 z m 19.155821,-3.947489 c 0.93682,-0.936819 0.595684,-2.73268 -1.144813,-3.657825 -0.902494,-0.479713 -2.448331,-0.707186 -3.507814,-0.707186 -1.040688,0 -3.287404,-0.298974 -3.280435,0.309357 l 0.02724,2.378143 0.01773,2.478502 c 0,0 1.920151,0.0215 3.523935,0.0215 1.947918,0 3.911786,-0.370121 4.364156,-0.822491 z m 19.092341,16.824734 c -4.290539,-2.330848 -6.801867,-6.966409 -6.904412,-17.563774 l -0.09375,-9.594721 5.574448,0 5.574444,0 c 0,0 -0.0232,6.870193 -0.0347,10.352165 -0.0268,8.082204 0.55655,10.668524 2.29205,11.759691 1.59125,1.000475 4.565,0.812975 6.15625,-0.1875 1.7355,-1.091167 2.08695,-3.623587 1.95588,-11.704773 -0.0558,-3.437778 -0.16726,-10.219583 -0.16726,-10.219583 l 4.94944,0 4.94945,0 0,9.363426 c 0,10.01574 -0.4758,13.710703 -4.79589,17.210112 -3.33128,2.69844 -14.72929,3.152731 -19.45595,0.584957 z m 47.78433,-0.642391 c -4.1485,-2.573645 -6.03249,-6.555583 -6.03249,-12.750097 0,-9.348793 8.99755,-15.043742 20.93872,-13.253049 5.21788,0.782468 10.31128,4.187508 10.31128,6.893292 0,0.220829 0.0477,0.924401 0.0477,0.924401 l -9.53846,-0.08785 c 0,0 -1.619,-0.715341 -2.3254,-1.0372 -2.39106,-1.089439 -3.96191,-1.096116 -6.30881,-0.0268 -2.64396,1.204668 -3.125,2.270288 -3.125,6.922588 0,6.51175 2.00306,8.631052 7.63457,8.077643 3.44419,-0.338461 5.18786,-3.504145 5.18786,-3.504145 0,0 -1.92218,-0.01864 -3.34327,-0.01864 -1.2861,0 -3.20179,-0.06399 -3.20179,-0.06399 0,0 -0.0274,-1.778738 -0.0274,-3.061011 0,-1.456856 -0.002,-3.198856 -0.002,-3.198856 0,0 3.83131,0.07386 7.50152,0.07386 l 7.5,0 0,6.107574 c 0,2.543125 -0.0537,4.057743 -0.46361,5.121861 -0.51162,1.328246 -1.57817,1.954597 -3.7878,3.003139 -5.54207,2.629889 -16.63379,2.564957 -20.9661,-0.12272 z m 32.90625,-10.047354 c 4.53893,-10.915681 6.48585,-16.527517 6.48585,-16.527517 3.73699,0.0154 7.50473,0.0452 11.19391,0.121267 3.46745,9.577343 7.28122,19.44977 10.94855,28.743929 0,0 -2.77301,-0.150179 -4.89858,-0.150179 -2.36556,0 -4.60435,0.06653 -4.60435,0.06653 -1.05031,-1.711737 -1.98418,-3.32929 -2.96282,-5.096588 0,0 -2.17489,0.03006 -4.4763,0.03006 -2.29078,0 -4.96047,0.129774 -4.96047,0.129774 -0.80952,1.570191 -1.6187,3.204789 -2.36804,4.88802 0,0 -2.00874,-0.01779 -4.57024,-0.01779 l -4.85528,0 z m 13.23486,-3.436434 c -0.73832,-2.405668 -1.44591,-4.233789 -1.57243,-4.0625 -0.12652,0.171289 -0.84677,2.139559 -1.60057,4.373934 -0.82104,2.433687 -1.33741,4.0416 -1.33741,4.0416 0,0 1.90477,0.0209 2.90983,0.0209 1.01894,0 2.88256,-0.03918 2.88256,-0.03918 0,0 -0.4761,-1.708954 -1.28198,-4.334754 z m 16.5764,1.124561 -0.28125,-14.124372 11.59562,0.015 c 10.16071,0.01314 11.66208,0.797513 13.79687,3.434727 5.38365,6.650734 0.43818,15.17402 -8.80443,15.17402 l -5.05681,0 0,5 0,5 -5.625,0 -5.625,0 z m 17.27444,-4.563127 c -0.2567,-1.807446 -1.40449,-2.95524 -3.21194,-3.211939 -1.28152,-0.182005 -2.7998,-0.0956 -2.7998,-0.0956 0,0 -0.0127,1.755711 -0.0127,2.908104 0,1.234592 0.0176,3.26607 0.0176,3.26607 0,0 1.81299,-0.05413 3.19432,-0.05413 2.61592,0 3.13781,-0.521899 2.8125,-2.8125 z m -99.77444,8.4375 c 0,-1.256997 0.007,-3.177011 0.007,-3.177011 0,0 2.71351,0.05201 5.61758,0.05201 2.96794,0 5.62849,0.05329 5.62849,0.05329 0,0 -0.003,1.850197 -0.003,3.071711 0,1.438156 0.0152,3.105547 0.0152,3.105547 0,0 -3.06221,0.01945 -5.6402,0.01945 -2.69323,0 -5.6225,-0.04481 -5.6225,-0.04481 0,0 -0.002,-1.706057 -0.002,-3.08019 z"
         style="fill:#474747;fill-opacity:1;stroke:none;stroke-width:0.5;stroke-miterlimit:4;stroke-dasharray:none;stroke-opacity:1;filter:url(#filter7059)" />
      <path
         transform="matrix(0.98675703,0,0,0.91514951,0.17544338,-17.127005)"
         style="fill:#b41c1c;fill-opacity:1;stroke:none;stroke-width:0.5;stroke-miterlimit:4;stroke-dasharray:none;stroke-opacity:1;filter:url(#filter6008)"
         d="m 37,-81.759145 0,-11.25 -5,0 c -2.300111,0 -5.028098,-0.0067 -5.028098,-0.0067 0,0 0.0281,-1.743351 0.0281,-3.118282 l 0,-3.125 15.625,0 15.625,0 0,3.125 c 0,1.241778 0.003,3.114469 0.003,3.114469 0,0 -2.489808,0.01053 -5.002964,0.01053 l -5,0 0,11.25 0,11.25 -5.625,0 -5.625,0 z m 23.75,-3.125 0,-14.375 10.9375,0.01843 c 3.99363,0.0067 7.516313,-0.127697 10.010515,0.01571 5.861858,0.337035 7.189319,3.294116 7.55012,7.558494 0.267646,3.163356 -0.33802,5.053737 -2.142363,6.686645 -1.075102,0.972954 -2.379212,2.276085 -2.379212,2.276085 0,0 1.455405,2.313853 3.568577,5.385243 2.037675,2.96166 4.407988,6.753366 4.407988,6.753366 0,0 -3.09375,0.05504 -6.015625,0.0538 -2.165176,-9.21e-4 -4.488787,0.004 -4.488787,0.004 -3.246934,-3.768923 -6.359747,-7.421617 -10.094743,-11.767413 L 72,-76.134145 l 0,5.625 -5.625,0 -5.625,0 z m 19.155821,-3.947489 c 0.93682,-0.936819 0.595684,-2.73268 -1.144813,-3.657825 -0.902494,-0.479713 -2.448331,-0.707186 -3.507814,-0.707186 -1.040688,0 -3.287404,-0.298974 -3.280435,0.309357 L 72,-90.509145 l 0.01773,2.478502 c 0,0 1.920151,0.0215 3.523935,0.0215 1.947918,0 3.911786,-0.370121 4.364156,-0.822491 z M 98.998159,-72.0069 c -4.290536,-2.330848 -6.801864,-6.966409 -6.904409,-17.563774 L 92,-99.165395 l 5.574448,0 5.574442,0 c 0,0 -0.0232,6.870193 -0.0347,10.352165 -0.0268,8.082204 0.55655,10.668524 2.29205,11.759691 1.59125,1.000475 4.565,0.812975 6.15625,-0.1875 1.7355,-1.091167 2.08695,-3.623587 1.95588,-11.704773 -0.0558,-3.437778 -0.16726,-10.219583 -0.16726,-10.219583 l 4.94944,0 4.94945,0 0,9.363426 c 0,10.01574 -0.4758,13.710703 -4.79589,17.210112 -3.33128,2.69844 -14.72929,3.152731 -19.455951,0.584957 z m 47.784331,-0.642391 c -4.1485,-2.573645 -6.03249,-6.555583 -6.03249,-12.750097 0,-9.348793 8.99755,-15.043742 20.93872,-13.253049 5.21788,0.782468 10.31128,4.187508 10.31128,6.893292 0,0.220829 0.0477,0.924401 0.0477,0.924401 l -9.53846,-0.08785 c 0,0 -1.619,-0.715341 -2.3254,-1.0372 -2.39106,-1.089439 -3.96191,-1.096116 -6.30881,-0.0268 -2.64396,1.204668 -3.125,2.270288 -3.125,6.922588 0,6.51175 2.00306,8.631052 7.63457,8.077643 3.44419,-0.338461 5.18786,-3.504145 5.18786,-3.504145 0,0 -1.92218,-0.01864 -3.34327,-0.01864 -1.2861,0 -3.20179,-0.06399 -3.20179,-0.06399 0,0 -0.0274,-1.778738 -0.0274,-3.061011 0,-1.456856 -0.002,-3.198856 -0.002,-3.198856 0,0 3.83131,0.07386 7.50152,0.07386 l 7.5,0 0,6.107574 c 0,2.543125 -0.0537,4.057743 -0.46361,5.121861 -0.51162,1.328246 -1.57817,1.954597 -3.7878,3.003139 -5.54207,2.629889 -16.63379,2.564957 -20.9661,-0.12272 z m 32.90625,-10.047354 c 4.53893,-10.915681 6.48585,-16.527517 6.48585,-16.527517 3.73699,0.0154 7.50473,0.0452 11.19391,0.121267 3.46745,9.577343 7.28122,19.44977 10.94855,28.743929 0,0 -2.77301,-0.150179 -4.89858,-0.150179 -2.36556,0 -4.60435,0.06653 -4.60435,0.06653 -1.05031,-1.711737 -1.98418,-3.32929 -2.96282,-5.096588 0,0 -2.17489,0.03006 -4.4763,0.03006 -2.29078,0 -4.96047,0.129774 -4.96047,0.129774 -0.80952,1.570191 -1.6187,3.204789 -2.36804,4.88802 0,0 -2.00874,-0.01779 -4.57024,-0.01779 l -4.85528,0 z m 13.23486,-3.436434 c -0.73832,-2.405668 -1.44591,-4.233789 -1.57243,-4.0625 -0.12652,0.171289 -0.84677,2.139559 -1.60057,4.373934 -0.82104,2.433687 -1.33741,4.0416 -1.33741,4.0416 0,0 1.90477,0.0209 2.90983,0.0209 1.01894,0 2.88256,-0.03918 2.88256,-0.03918 0,0 -0.4761,-1.708954 -1.28198,-4.334754 z m 16.5764,1.124561 -0.28125,-14.124372 11.59562,0.015 c 10.16071,0.01314 11.66208,0.797513 13.79687,3.434727 5.38365,6.650734 0.43818,15.17402 -8.80443,15.17402 l -5.05681,0 0,5 0,5 -5.625,0 -5.625,0 z m 17.27444,-4.563127 c -0.2567,-1.807446 -1.40449,-2.95524 -3.21194,-3.211939 -1.28152,-0.182005 -2.7998,-0.0956 -2.7998,-0.0956 0,0 -0.0127,1.755711 -0.0127,2.908104 0,1.234592 0.0176,3.26607 0.0176,3.26607 0,0 1.81299,-0.05413 3.19432,-0.05413 2.61592,0 3.13781,-0.521899 2.8125,-2.8125 z M 127,-81.134145 c 0,-1.256997 0.007,-3.177011 0.007,-3.177011 0,0 2.71351,0.05201 5.61758,0.05201 2.96794,0 5.62849,0.05329 5.62849,0.05329 0,0 -0.003,1.850197 -0.003,3.071711 0,1.438156 0.0152,3.105547 0.0152,3.105547 0,0 -3.06221,0.01945 -5.6402,0.01945 -2.69323,0 -5.6225,-0.04481 -5.6225,-0.04481 0,0 -0.002,-1.706057 -0.002,-3.08019 z"
         id="path3426"
         inkscape:connector-curvature="0"
         sodipodi:nodetypes="ccscscccscsccccccccsssscscscccccccssssccsssscccsssscccsssssssccsssscscscscssssssccccccccscsscscscscssssccccccscscscsscccscscsccc" />
      <path
         sodipodi:nodetypes="ccscscccscsccccccccsssscscscccccccssssccsssscccsssscccsssssssccsssscscscscssssssccccccccscsscscscscssssccccccscscscsscccscscsccc"
         inkscape:connector-curvature="0"
         id="path6820"
         d="m 37,-81.759145 0,-11.25 -5,0 c -2.300111,0 -5.028098,-0.0067 -5.028098,-0.0067 0,0 0.0281,-1.743351 0.0281,-3.118282 l 0,-3.125 15.625,0 15.625,0 0,3.125 c 0,1.241778 0.003,3.114469 0.003,3.114469 0,0 -2.489808,0.01053 -5.002964,0.01053 l -5,0 0,11.25 0,11.25 -5.625,0 -5.625,0 z m 23.75,-3.125 0,-14.375 10.9375,0.01843 c 3.99363,0.0067 7.516313,-0.127697 10.010515,0.01571 5.861858,0.337035 7.189319,3.294116 7.55012,7.558494 0.267646,3.163356 -0.33802,5.053737 -2.142363,6.686645 -1.075102,0.972954 -2.379212,2.276085 -2.379212,2.276085 0,0 1.455405,2.313853 3.568577,5.385243 2.037675,2.96166 4.407988,6.753366 4.407988,6.753366 0,0 -3.09375,0.05504 -6.015625,0.0538 -2.165176,-9.21e-4 -4.488787,0.004 -4.488787,0.004 -3.246934,-3.768923 -6.359747,-7.421617 -10.094743,-11.767413 L 72,-76.134145 l 0,5.625 -5.625,0 -5.625,0 z m 19.155821,-3.947489 c 0.93682,-0.936819 0.595684,-2.73268 -1.144813,-3.657825 -0.902494,-0.479713 -2.448331,-0.707186 -3.507814,-0.707186 -1.040688,0 -3.287404,-0.298974 -3.280435,0.309357 L 72,-90.509145 l 0.01773,2.478502 c 0,0 1.920151,0.0215 3.523935,0.0215 1.947918,0 3.911786,-0.370121 4.364156,-0.822491 z M 98.998159,-72.0069 c -4.290536,-2.330848 -6.801864,-6.966409 -6.904409,-17.563774 L 92,-99.165395 l 5.574448,0 5.574442,0 c 0,0 -0.0232,6.870193 -0.0347,10.352165 -0.0268,8.082204 0.55655,10.668524 2.29205,11.759691 1.59125,1.000475 4.565,0.812975 6.15625,-0.1875 1.7355,-1.091167 2.08695,-3.623587 1.95588,-11.704773 -0.0558,-3.437778 -0.16726,-10.219583 -0.16726,-10.219583 l 4.94944,0 4.94945,0 0,9.363426 c 0,10.01574 -0.4758,13.710703 -4.79589,17.210112 -3.33128,2.69844 -14.72929,3.152731 -19.455951,0.584957 z m 47.784331,-0.642391 c -4.1485,-2.573645 -6.03249,-6.555583 -6.03249,-12.750097 0,-9.348793 8.99755,-15.043742 20.93872,-13.253049 5.21788,0.782468 10.31128,4.187508 10.31128,6.893292 0,0.220829 0.0477,0.924401 0.0477,0.924401 l -9.53846,-0.08785 c 0,0 -1.619,-0.715341 -2.3254,-1.0372 -2.39106,-1.089439 -3.96191,-1.096116 -6.30881,-0.0268 -2.64396,1.204668 -3.125,2.270288 -3.125,6.922588 0,6.51175 2.00306,8.631052 7.63457,8.077643 3.44419,-0.338461 5.18786,-3.504145 5.18786,-3.504145 0,0 -1.92218,-0.01864 -3.34327,-0.01864 -1.2861,0 -3.20179,-0.06399 -3.20179,-0.06399 0,0 -0.0274,-1.778738 -0.0274,-3.061011 0,-1.456856 -0.002,-3.198856 -0.002,-3.198856 0,0 3.83131,0.07386 7.50152,0.07386 l 7.5,0 0,6.107574 c 0,2.543125 -0.0537,4.057743 -0.46361,5.121861 -0.51162,1.328246 -1.57817,1.954597 -3.7878,3.003139 -5.54207,2.629889 -16.63379,2.564957 -20.9661,-0.12272 z m 32.90625,-10.047354 c 4.53893,-10.915681 6.48585,-16.527517 6.48585,-16.527517 3.73699,0.0154 7.50473,0.0452 11.19391,0.121267 3.46745,9.577343 7.28122,19.44977 10.94855,28.743929 0,0 -2.77301,-0.150179 -4.89858,-0.150179 -2.36556,0 -4.60435,0.06653 -4.60435,0.06653 -1.05031,-1.711737 -1.98418,-3.32929 -2.96282,-5.096588 0,0 -2.17489,0.03006 -4.4763,0.03006 -2.29078,0 -4.96047,0.129774 -4.96047,0.129774 -0.80952,1.570191 -1.6187,3.204789 -2.36804,4.88802 0,0 -2.00874,-0.01779 -4.57024,-0.01779 l -4.85528,0 z m 13.23486,-3.436434 c -0.73832,-2.405668 -1.44591,-4.233789 -1.57243,-4.0625 -0.12652,0.171289 -0.84677,2.139559 -1.60057,4.373934 -0.82104,2.433687 -1.33741,4.0416 -1.33741,4.0416 0,0 1.90477,0.0209 2.90983,0.0209 1.01894,0 2.88256,-0.03918 2.88256,-0.03918 0,0 -0.4761,-1.708954 -1.28198,-4.334754 z m 16.5764,1.124561 -0.28125,-14.124372 11.59562,0.015 c 10.16071,0.01314 11.66208,0.797513 13.79687,3.434727 5.38365,6.650734 0.43818,15.17402 -8.80443,15.17402 l -5.05681,0 0,5 0,5 -5.625,0 -5.625,0 z m 17.27444,-4.563127 c -0.2567,-1.807446 -1.40449,-2.95524 -3.21194,-3.211939 -1.28152,-0.182005 -2.7998,-0.0956 -2.7998,-0.0956 0,0 -0.0127,1.755711 -0.0127,2.908104 0,1.234592 0.0176,3.26607 0.0176,3.26607 0,0 1.81299,-0.05413 3.19432,-0.05413 2.61592,0 3.13781,-0.521899 2.8125,-2.8125 z M 127,-81.134145 c 0,-1.256997 0.007,-3.177011 0.007,-3.177011 0,0 2.71351,0.05201 5.61758,0.05201 2.96794,0 5.62849,0.05329 5.62849,0.05329 0,0 -0.003,1.850197 -0.003,3.071711 0,1.438156 0.0152,3.105547 0.0152,3.105547 0,0 -3.06221,0.01945 -5.6402,0.01945 -2.69323,0 -5.6225,-0.04481 -5.6225,-0.04481 0,0 -0.002,-1.706057 -0.002,-3.08019 z"
         style="opacity:0.39300005;fill:url(#linearGradient4178);fill-opacity:1;stroke:none;stroke-width:0.5;stroke-miterlimit:4;stroke-dasharray:none;stroke-opacity:1;filter:url(#filter4196)"
         transform="matrix(0.98675703,0,0,-0.91514951,0.17544338,-145.73919)" />
    </g>
  </g>
</svg>
